<svg xmlns="http://www.w3.org/2000/svg" width="36" height="23" viewBox="0 0 36 23">
    <path fill="#FFF" fill-rule="evenodd" d="M32.038 9.45V5.465h-2.83V9.45h-4.076v2.847h4.076v4.099h2.83v-4.099H36V9.45h-3.962zm-20.604-.227v4.554s4.393-.006 6.182-.006c-.97 2.953-2.475 4.56-6.182 4.56-3.751 0-6.68-3.058-6.68-6.831 0-3.773 2.929-6.832 6.68-6.832 1.983 0 3.264.701 4.44 1.679.94-.946.861-1.081 3.254-3.354A11.356 11.356 0 0 0 11.434 0C5.119 0 0 5.149 0 11.5S5.12 23 11.434 23c9.439 0 11.746-8.266 10.981-13.777H11.434z"/>
</svg>
