<svg xmlns="http://www.w3.org/2000/svg" width="26" height="24" viewBox="0 0 26 24">
    <path fill="#FFF" fill-rule="evenodd" d="M26 24h-5.746v-8.437c0-2.208-.9-3.716-2.876-3.716-1.512 0-2.352 1.017-2.744 1.998-.147.352-.124.842-.124 1.332V24H8.817s.074-14.945 0-16.304h5.693v2.559c.337-1.119 2.156-2.716 5.059-2.716C23.17 7.54 26 9.885 26 14.934V24zM3.06 5.657h-.036C1.189 5.657 0 4.41 0 2.83 0 1.22 1.224 0 3.096 0c1.87 0 3.019 1.217 3.055 2.826 0 1.58-1.186 2.83-3.09 2.83zM.656 7.697h5.067V24H.656V7.696z"/>
</svg>
