<svg width="36" height="42" viewBox="0 0 36 42" xmlns="http://www.w3.org/2000/svg"><title>Img/Logo_Nilu</title><g fill="#FFF" fill-rule="evenodd" opacity=".5"><path d="M31.094 17.395a13.88 13.88 0 0 0-4.07-9.845 13.83 13.83 0 0 0-9.827-4.079 13.83 13.83 0 0 0-9.828 4.08 13.886 13.886 0 0 0-4.07 9.844 1.65 1.65 0 1 1-3.299 0C.001 7.879 7.7.168 17.197.167 26.694.168 34.39 7.879 34.39 17.395a1.65 1.65 0 1 1-3.297 0M2.842 35.483c-.066-.101-.1-.135-.148-.135-.05 0-.083.034-.083.135V41.5a.333.333 0 0 1-.33.334H.33c-.18 0-.33-.15-.33-.334V31.404c0-.352.28-.638.627-.638h1.67c.331 0 .495.168.693.52l3.918 6.133c.065.101.083.134.132.134.034 0 .082-.033.082-.15v-6.318c0-.186.15-.32.33-.32h1.953c.18 0 .328.134.328.32v10.11a.647.647 0 0 1-.643.638H7.434c-.348 0-.547-.097-.824-.52l-3.768-5.83zM13.987 41.833h-2.034c-.167 0-.273-.15-.273-.334V31.085c0-.186.106-.32.273-.32h2.034c.167 0 .288.134.288.32v10.414c0 .185-.12.334-.288.334M17.902 41.833c-.186 0-.382-.13-.382-.37V31.1c0-.183.15-.335.333-.335h2.19c.185 0 .334.152.334.335v7.894c0 .514.094.514.545.514h3.4c.184 0 .335.15.335.335v1.625c0 .308-.188.364-.465.364h-6.29zM30.165 41.833c-2.683 0-4.859-.996-4.859-4.779v-5.972c0-.184.151-.316.337-.316h2.21c.187 0 .338.132.338.316v5.972c0 1.693.456 2.405 1.974 2.405 1.517 0 1.991-.712 1.991-2.405v-5.972c0-.184.151-.316.337-.316h2.192c.187 0 .354.132.354.316v5.972c0 3.783-2.193 4.78-4.874 4.78"/><path d="M32.71 28.161c1.095 0 1.68-.444 1.68-1.597V22.87c0-.523-.473-1.476-1.643-1.476-1.22 0-1.647.953-1.647 1.476v1.717c0 .523-.406.951-.918.951-.609 0-.886-.428-.886-.95v-.656c0-.672-.421-.951-.933-.951h-1.088c-.666 0-.931-.211-.931-.952v-4.634a.947.947 0 0 0-.934-.951h-3.936a.947.947 0 0 0-.935.95v7.193a.944.944 0 0 1-.931.951h-.057a.945.945 0 0 1-.933-.95v-4.025a.944.944 0 0 0-.933-.95h-1.059a.946.946 0 0 0-.934.95v2.32c0 .522-.281.952-.89.952-.57 0-.865-.43-.865-.952v-.218c0-.523-.253-.952-.934-.952H9.755a.946.946 0 0 0-.933.952v.513c0 .523-.278.657-.69.657H6.182c-.578 0-.741.362-.741.728v.297c0 .53-.34 1.1-1.076 1.1-.863 0-1.056-.577-1.056-1.1v-.63c0-.79-.591-1.605-1.667-1.605-1.095 0-1.641.892-1.641 1.604v2.655c0 .796.408 1.278 1.666 1.278H32.71z"/></g></svg>