<svg width="121" height="84" viewBox="0 0 121 84" xmlns="http://www.w3.org/2000/svg" xmlns:xlink="http://www.w3.org/1999/xlink"><title>Img/Logo_EU_Commission</title><defs><path id="a" d="M60.34 83.706h60.338V0H0v83.706z"/></defs><g fill="none" fill-rule="evenodd" opacity=".5"><mask id="b" fill="#fff"><use xlink:href="#a"/></mask><path d="M57.146 68.099h.59c.124 0 .157-.057.157-.155v-2.372c0-.827-.099-1.555-1.206-1.555-.5 0-1.074.278-1.378.491-.008 0-.016-.009-.024-.009v-.245c0-.106-.042-.163-.156-.163h-.583c-.114 0-.155.057-.155.163v3.69c0 .106.04.155.155.155h.583c.114 0 .156-.057.156-.155v-2.732c.221-.107.795-.369 1.123-.369.476 0 .59.319.59.802l-.007 2.299c0 .106.049.155.155.155zm.566 3.094c-.393 0-.484.205-.484.467 0 .237.057.474.484.474.41 0 .484-.22.484-.474 0-.278-.082-.467-.484-.467zm-3.936 5.425c.312.122.861.18 1.271.18.845 0 1.657-.312 1.657-1.268 0-.974-.706-1.13-1.484-1.245-.5-.081-.697-.122-.697-.44 0-.312.123-.459.647-.459.304 0 .763.05 1.116.09.147.017.197 0 .222-.115l.065-.294c.025-.123-.033-.188-.172-.245-.345-.131-.91-.18-1.247-.18-.919 0-1.542.425-1.542 1.235 0 .891.705 1.063 1.509 1.178.517.073.657.155.657.532 0 .326-.214.466-.739.466-.279 0-.804-.04-1.165-.099-.131-.016-.188-.007-.213.123l-.057.27c-.025.13.008.205.172.27zm-.967-9.566c-.312.18-.812.385-1.165.385-.385 0-.508-.115-.508-.475 0-.54.262-.687.672-.687h1v.777zm1.157 1.047c.139-.024.196-.082.196-.171v-.344c0-.09-.033-.115-.156-.123-.254-.033-.296-.04-.296-.376v-1.579c0-.917-.17-1.498-1.59-1.498-.386 0-1.034.058-1.386.18-.18.074-.205.14-.19.246l.075.302c.024.114.065.124.23.098.328-.031.844-.072 1.115-.072.673 0 .853.171.853.662v.212h-1.05c-1.033 0-1.55.41-1.541 1.367 0 .687.254 1.162 1.123 1.162.549 0 1.1-.221 1.51-.532l.016.008c.081.385.32.499.705.499.123 0 .254-.016.386-.04zm3.451 4.625c-.115 0-.165.04-.165.155v3.698c0 .105.05.155.165.155h.582c.115 0 .148-.066.148-.155V72.88c0-.09-.033-.155-.148-.155h-.582zm-8.274-1.53c-.393 0-.484.204-.484.466 0 .237.058.474.484.474.41 0 .484-.22.484-.474 0-.278-.082-.467-.484-.467zm48.07-29.513c-2.007-1.112-12.602-8.15-12.602-8.15v2.379s8.812 5.136 12.538 7.171c3.725 2.035 7.132 2.766 12.13 3.307 5 .54 11.4 1.24 11.4 1.24v-.604s-3.63-.445-11.367-1.43c-7.737-.987-10.093-2.8-12.1-3.913zM47.338 65.727c.041-.615.205-.982.812-.982.68 0 .812.482.812.982h-1.624zm2.568.114c-.025-.883-.287-1.833-1.756-1.833-1.6 0-1.747 1.31-1.747 2.103 0 1.064.23 2.062 1.797 2.062.401 0 1-.082 1.32-.205.148-.065.164-.13.14-.253l-.05-.27c-.024-.156-.074-.156-.222-.14-.311.033-.77.09-1.065.09-.673 0-.968-.228-.993-1.055h2.173c.329 0 .41-.204.403-.499zm-1.06 6.883c-.113 0-.163.04-.163.155v3.698c0 .105.05.155.164.155h.583c.114 0 .147-.066.147-.155V72.88c0-.09-.033-.155-.147-.155h-.583zm2.757 3.329c-.28 0-.804-.04-1.165-.099-.132-.016-.189-.007-.213.123l-.058.27c-.024.13.008.205.172.27.312.123.862.18 1.271.18.845 0 1.658-.31 1.658-1.267 0-.974-.706-1.13-1.485-1.245-.5-.081-.697-.122-.697-.44 0-.312.123-.459.647-.459.304 0 .764.05 1.116.09.148.017.197 0 .222-.115l.065-.294c.025-.123-.033-.188-.172-.245-.345-.131-.91-.18-1.247-.18-.918 0-1.542.425-1.542 1.235 0 .891.706 1.063 1.51 1.178.516.073.656.155.656.532 0 .326-.214.466-.738.466zM97.212 48.2c-5.2-2.057-12.6-5.218-12.6-5.218v2.13s8.133 2.828 12.568 4.297c4.384 1.453 6.719 1.655 12.132 2.13 5.412.478 11.366.955 11.366.955v-.572s-9.965-1.024-11.334-1.177c-3.11-.35-7.016-.52-12.132-2.545zm12.065.669c5.888.556 11.399 1.144 11.399 1.144v-.571s-5.96-.627-11.4-1.273c-5.538-.658-8.596-1.505-12.13-3.275-3.17-1.587-12.535-6.67-12.535-6.67v2.228s8.766 4.078 12.535 5.746c4.214 1.865 6.294 2.119 12.13 2.67zm-24.665-35.74c.435.514 9.95 11.772 12.502 14.688 2.977 3.401 7.132 4.292 12.163 5.214 5.03.923 11.398 2.13 11.398 2.13v-.507s-7.267-1.356-11.398-2.163c-7.165-1.399-10.061-3.657-12.163-6.392A9846.203 9846.203 0 0 1 84.612 9.69v3.439zM24.67 40.73L0 41.402v2.318l24.67-1.295v-1.694zm84.665-13.407c-7.904-1.672-10.136-4.132-12.089-7.243C95.293 16.969 84.611 0 84.611 0v4.008s10.084 14.46 12.535 17.861c2.945 4.088 5.587 4.573 12.05 6.012 6.46 1.44 11.482 2.508 11.482 2.508v-.604s-3.44-.79-11.343-2.46zm-68.356-11.09c2.893-.796 5.556-2.012 7.912-3.612 2.26-1.524 4.363-3.74 6.446-6.171 1.326-1.548 2.717-3.565 4.016-5.512V0c-1.54 2.292-3.057 4.265-4.618 6.009-2.068 2.313-4.237 4.206-6.448 5.625-2.282 1.478-4.85 2.58-7.634 3.278a38.243 38.243 0 0 1-4.086.782c-.99.14-2.01.248-2.996.352L0 19.626v2.333s35.763-4.651 36.773-4.818a39.144 39.144 0 0 0 4.205-.907zM61.403 74.72c0 .875-.148 1.293-.895 1.293-.688 0-.844-.425-.844-1.293 0-.85.156-1.292.853-1.292.747 0 .886.425.886 1.292zm-2.65-.057c0 .932.107 2.136 1.755 2.136 1.698 0 1.813-1.204 1.813-2.136 0-.965-.22-2.02-1.813-2.02-1.582 0-1.755 1.251-1.755 2.02zm5.059-30.677l-1.452-1.068-1.453 1.068.572-1.731-1.473-1.09h1.805l.549-1.686.532 1.685h1.812l-1.459 1.09.567 1.732zm-1.599 5.9l-1.453-1.067-1.45 1.068.572-1.73-1.472-1.093h1.804l.546-1.687.535 1.687h1.81l-1.458 1.093.566 1.73zm-4.257 4.19l-1.453-1.069-1.452 1.068.572-1.73-1.473-1.09h1.806l.547-1.687.533 1.687h1.812l-1.46 1.09.568 1.73zm-5.74 1.532l-1.451-1.065-1.453 1.065.572-1.728-1.472-1.092h1.806l.547-1.687.532 1.687h1.812l-1.458 1.092.566 1.728zm-2.064-25.958l.546-1.753.535 1.753h1.81l-1.458 1.133.566 1.797-1.453-1.107-1.451 1.107.572-1.797-1.47-1.133h1.803zm-3.793 24.44l-1.451-1.067-1.452 1.067.572-1.73-1.47-1.09h1.804l.546-1.688.535 1.687h1.81l-1.458 1.091.564 1.73zm-5.65-5.256L39.256 49.9l.571-1.73-1.47-1.093h1.805l.547-1.684.532 1.684h1.812l-1.458 1.093.564 1.73-1.45-1.067zm-3.89-7.656h1.804l.547-1.685.534 1.685h1.81l-1.458 1.092.566 1.73-1.452-1.064-1.453 1.064.573-1.73-1.47-1.092zm3.343-5.722l.547-1.686.532 1.686h1.812l-1.458 1.09.564 1.731-1.45-1.066-1.453 1.066.571-1.73-1.47-1.09h1.805zm4.14-4.249l.546-1.686.535 1.686h1.809l-1.458 1.092.567 1.73-1.453-1.067-1.452 1.067.572-1.73-1.47-1.092h1.804zm11.654-.014l.547-1.686.533 1.686h1.812l-1.46 1.09.568 1.73-1.453-1.065-1.452 1.066.572-1.73-1.473-1.091h1.806zm4.804 2.562l.535 1.687h1.81l-1.458 1.088.566 1.733-1.453-1.067-1.45 1.067.572-1.733-1.472-1.088h1.804l.546-1.687zM25.128 59.409h51.083V25.173H25.128v34.236zm72.02-20.748c-1.973-1.463-12.537-9.821-12.537-9.821v2.576s8.591 6.034 12.57 8.675c4.086 2.715 7.578 2.958 12.13 3.53 4.554.573 11.367 1.559 11.367 1.559v-.636s-3.852-.54-11.366-1.621c-7.578-1.093-10.19-2.8-12.163-4.262zM65.52 76.732h.59c.124 0 .157-.057.157-.155v-2.373c0-.826-.099-1.554-1.206-1.554-.5 0-1.075.278-1.378.49-.009 0-.016-.007-.024-.007v-.246c0-.106-.042-.163-.157-.163h-.582c-.115 0-.156.057-.156.163v3.69c0 .106.04.155.156.155h.582c.115 0 .157-.057.157-.155v-2.732c.22-.107.795-.37 1.123-.37.476 0 .59.32.59.803l-.008 2.299c0 .106.05.155.156.155zm43.758-46.276c4.457.954 11.401 2.284 11.401 2.284v-.509s-9.149-1.8-11.4-2.284c-8.725-1.876-10.7-5.055-12.164-7.028C95.65 20.947 84.612 4.857 84.612 4.857v3.63c.435.568 9.882 12.905 12.534 16.308 2.988 3.836 7.674 4.707 12.131 5.66zM84.612 17.64s9.461 10.066 12.502 13.038c3.991 3.902 7.737 4.198 12.163 4.993a5455.47 5455.47 0 0 1 11.398 2.067v-.54s-8.418-1.49-11.398-2.068c-7.45-1.44-8.978-2.628-12.131-6.074-1.982-2.164-12.107-14.09-12.534-14.593v3.177zm24.633 20.608c5.444.929 11.43 1.907 11.43 1.907v-.572s-6.375-1.04-11.43-1.94c-5.296-.943-9.116-2.088-12.099-5.183-2.81-2.918-12.535-13.081-12.535-13.081v2.989s9.766 9.134 12.503 11.65c3.057 2.809 6.794 3.318 12.13 4.23zm0 2.575c5.413.858 11.43 1.844 11.43 1.844v-.604s-4.743-.73-11.398-1.908c-6.654-1.176-9.106-2.014-12.13-4.706-3.288-2.926-12.536-11.491-12.536-11.491v2.798s8.798 7.228 12.535 10.251c3.238 2.618 6.687 2.958 12.099 3.816zm-75.57-19.69c.898-.099 1.797-.199 2.698-.318a46.464 46.464 0 0 0 4.17-.733c2.972-.667 5.656-1.721 7.976-3.133 2.305-1.391 4.342-3.338 6.532-5.72 1.365-1.482 2.882-3.573 4.302-5.538v-.855c-1.672 2.28-3.26 4.196-4.83 5.83-2.14 2.227-4.347 3.997-6.562 5.266-2.239 1.294-4.824 2.24-7.684 2.814a45.122 45.122 0 0 1-4.072.616c-.891.097-1.79.175-2.69.253-.485.042-.97.084-1.454.13A4430.57 4430.57 0 0 0 0 22.777v2.331a4428.307 4428.307 0 0 1 33.675-3.976zm-9.005 3.582h7.93l3.217-.34a56.87 56.87 0 0 0 4.12-.615c3.05-.578 5.666-1.443 7.996-2.642 2.382-1.211 4.763-3.226 6.976-5.359 1.485-1.43 2.915-3.277 4.444-5.216V9.77c-1.766 2.204-3.451 4.043-5.133 5.591-2.183 2.012-4.46 3.594-6.773 4.703-2.26 1.096-4.79 1.865-7.734 2.352a54.992 54.992 0 0 1-4.036.504L0 25.864v2.327l24.67-2.63v-.846zm34.682-9.235v-.833c-1.97 2.048-3.605 3.684-5.343 5.085-2.255 1.82-3.996 3.115-6.756 4.216-.775.31-1.572.556-2.391.767h3.29c2.214-1.09 4.437-2.704 6.516-4.462 1.558-1.314 3.054-2.968 4.684-4.773zm0 4.872v-.822c-1.915 1.879-3.02 2.934-5.116 4.324-.472.312-1.008.597-1.578.861h1.974c2.079-1.593 4.718-4.325 4.72-4.363zm-12.077 56.38h.59c.116 0 .148-.057.148-.155V74.17c0-.818-.106-1.521-1.188-1.521-.526 0-1.034.27-1.445.572-.254-.474-.647-.572-1.123-.572-.451.016-.903.262-1.222.483l-.008-.009v-.237c0-.099-.041-.163-.164-.163h-.583c-.107 0-.148.057-.148.163v3.69c0 .106.041.155.148.155h.59c.116 0 .157-.057.157-.155v-2.732c.312-.164.77-.37 1.058-.37.41 0 .54.238.54.737v2.365c0 .106.034.155.14.155h.599c.123 0 .156-.057.156-.155V74.26c0-.188-.008-.335-.008-.416.254-.132.746-.37 1.05-.37.41 0 .557.173.557.778v2.324c0 .106.042.155.156.155zM24.67 30.492c-3.244.202-6.484.41-9.762.626L.001 32.127v2.327l15.057-1.39c2.978-.268 6.254-.561 9.612-.853v-1.719zm0 3.45c-7.939.388-15.981.811-24.669 1.273v2.32c8.322-.646 16.51-1.278 24.67-1.879v-1.713zm0 16.899c-3.57-.016-7.089-.021-10.454-.024L.001 50.83v2.314l14.25-.375c3.345-.082 6.858-.167 10.42-.242V50.84zm0-3.365c-8.194.046-16.367.113-24.67.185v2.315c7.933-.27 16.269-.55 24.67-.811v-1.69zm0 36.23h51.999v-2.96H24.67v2.96zm0-25.98L0 57.099v2.314h24.67v-1.685zm0-13.603L0 44.571v2.314l24.67-1.069v-1.693zM0 56.244a7272.79 7272.79 0 0 0 24.67-.197V54.36c-8.166-.126-16.349-.276-24.67-.433v2.316zM24.67 27.14L0 28.946v2.323l24.67-2.404v-1.726zm15.421 40.24c-.689 0-.845-.425-.845-1.292 0-.851.156-1.294.853-1.294.747 0 .886.427.886 1.294 0 .875-.147 1.292-.894 1.292zm0-3.371c-1.583 0-1.755 1.252-1.755 2.021 0 .933.107 2.136 1.755 2.136 1.698 0 1.813-1.203 1.813-2.136 0-.965-.221-2.021-1.813-2.021zm57.087-9.288A2235.06 2235.06 0 0 1 84.611 52.6v1.91s6.54.826 12.535 1.45c2.677.278 7.39.565 12.13.826 4.553.25 11.4.604 11.4.604v-.572s-10.698-.732-11.4-.763c-.7-.032-7.258-.536-12.098-1.336zM.001 40.706c8.3-.57 16.474-1.125 24.67-1.655v-1.705c-8.11.323-16.316.676-24.67 1.04v2.32zm97.177 10.77c-5.095-1.335-12.567-3.645-12.567-3.645v2.002s9.23 2.187 12.535 2.915c2.983.657 7.058 1.039 12.13 1.4 6.276.446 11.402.794 11.402.794v-.54s-9.013-.731-11.369-.891c-2.356-.158-7.036-.7-12.13-2.035zM43.256 65.212c.246-.132.762-.369 1.099-.369.435 0 .64.18.64 1.219 0 1.03-.205 1.334-.796 1.334-.279 0-.574-.033-.943-.139v-2.045zM43.1 64.09h-.582c-.115 0-.156.058-.156.164v5.186c0 .107.024.165.156.165h.582c.13 0 .156-.074.156-.165V68l.008-.008c.377.132.754.18 1.025.18 1.296 0 1.633-.768 1.633-2.102 0-1.236-.28-2.045-1.354-2.045-.476 0-1 .286-1.295.49l-.026-.016v-.245c0-.098-.032-.164-.147-.164zm-2.253 12.642h.59c.115 0 .148-.057.148-.155V74.17c0-.818-.107-1.521-1.189-1.521-.525 0-1.034.27-1.444.572-.254-.474-.648-.572-1.123-.572-.452.016-.903.262-1.223.483l-.008-.009v-.237c0-.099-.04-.163-.163-.163h-.584c-.106 0-.147.057-.147.163v3.69c0 .106.041.155.147.155h.592c.114 0 .155-.057.155-.155v-2.732c.312-.164.771-.37 1.058-.37.41 0 .542.238.542.737v2.365c0 .106.032.155.14.155h.598c.122 0 .156-.057.156-.155V74.26c0-.188-.008-.335-.008-.416.254-.132.746-.37 1.05-.37.41 0 .556.173.556.778v2.324c0 .106.042.155.157.155zm-10.93.073c.4 0 1.114-.073 1.516-.245.132-.057.172-.13.14-.262l-.066-.31c-.033-.107-.065-.148-.222-.132a9.843 9.843 0 0 1-1.32.107c-1.074 0-1.28-.843-1.28-1.915 0-1.063.165-1.962 1.28-1.962.427 0 .92.056 1.32.106.148.016.19-.025.214-.123l.074-.336c.025-.13-.025-.196-.156-.253-.435-.18-1.1-.237-1.5-.237-1.871 0-2.215 1.424-2.215 2.822 0 1.39.385 2.74 2.214 2.74zm6.566-12.714h-.582c-.115 0-.156.057-.156.163v3.69c0 .105.04.155.156.155h.59c.115 0 .156-.057.156-.155V65.31c.287-.123.87-.287 1.329-.377.172-.032.164-.083.156-.197l-.058-.548c-.016-.139-.09-.163-.197-.139-.385.074-.968.352-1.213.58l-.017-.015v-.36c0-.098-.041-.163-.164-.163zm-5.6-.614c.124 0 .165-.05.165-.147v-.508c0-.097-.058-.155-.156-.155h-3.018c-.115 0-.164.058-.164.164v5.12c0 .098.049.148.164.148h3.059c.115 0 .156-.04.156-.148v-.498c0-.107-.05-.155-.148-.155h-2.296v-1.612h1.985c.122 0 .164-.05.164-.148v-.507c0-.098-.058-.147-.164-.147h-1.985v-1.407h2.239zm2.55 9.95c.747 0 .886.425.886 1.292 0 .875-.148 1.293-.894 1.293-.69 0-.845-.425-.845-1.293 0-.85.156-1.292.853-1.292zm-.008 3.371c1.698 0 1.813-1.204 1.813-2.136 0-.965-.222-2.02-1.813-2.02-1.583 0-1.755 1.251-1.755 2.02 0 .932.107 2.136 1.755 2.136zm-.665-8.626c.501 0 1.059-.27 1.378-.49l.016.008v.254c0 .098.033.155.156.155h.583c.115 0 .156-.05.156-.155v-3.69c0-.106-.041-.163-.156-.163h-.583c-.123 0-.156.064-.156.163v2.732c-.212.106-.754.368-1.106.368-.5 0-.6-.31-.6-.8v-2.3c0-.106-.04-.163-.147-.163h-.598c-.115 0-.156.064-.156.163v2.405c0 .86.106 1.513 1.213 1.513zM84.611 57.54v1.873h36.065v-.557s-20.569-.828-23.498-.89c-2.93-.065-12.567-.426-12.567-.426z" fill="#FEFEFE" mask="url(#b)"/></g></svg>