<svg width="37" height="34" viewBox="0 0 37 34" xmlns="http://www.w3.org/2000/svg"><title>Img/Logo_Vub</title><g fill-rule="nonzero" fill="#FFF" opacity=".5"><path d="M29.585 15.18c.61 0 1.42.017 1.967-.236a1.6 1.6 0 0 0 .893-1.431c0-.634-.4-1.133-.975-1.368-.546-.254-1.293-.145-1.903-.145h-1.312v3.17h1.33v.01z"/><path d="M3.16.333V33.65h33.502V.333H3.161zM24.467 18.92c0 1.16-.073 2.265-.547 3.261-.856 1.694-2.641 2.872-4.727 2.962h-.474a5.988 5.988 0 0 1-1.83-.371 5.931 5.931 0 0 1-2.168-1.513c-1.139-1.286-1.267-2.717-1.267-4.33v-6.965l-.009.018-4.982 12.772H6.075L3.161 17.29V9.22L7.26 20.731l4.099-11.513h4.982v10.19c0 .553.036 1.105.3 1.613.046.09.1.172.155.262a2.638 2.638 0 0 0 1.84 1.07l.082.008c.073.01.155.01.228.01.082 0 .155 0 .237-.01l.09-.009a2.61 2.61 0 0 0 1.978-1.277c.245-.48.3-.996.31-1.53V9.218h2.896v9.701h.009zm9.928 4.81c-1.248.906-2.832.987-4.335 1.033H25.34V9.219l3.626-.009c1.42 0 2.86-.063 4.171.589 1.294.652 2.205 2.047 2.205 3.496 0 1.223-.574 2.428-1.713 2.971 1.713.544 2.669 2.002 2.669 3.768 0 1.513-.701 2.79-1.904 3.696z"/><path d="M32.354 18.304c-.656-.335-1.357-.317-2.05-.317h-2.058v3.968h1.995c.847 0 1.63-.037 2.395-.544.529-.362.765-.86.765-1.512-.009-.752-.364-1.223-1.047-1.595zM0 9.22l3.16 8.079v-8.08z"/></g></svg>