<svg width="50" height="45" viewBox="0 0 50 45" xmlns="http://www.w3.org/2000/svg"><title>Img/Logo_OnSubject</title><g fill="#FFF" fill-rule="evenodd" opacity=".5"><path d="M34.968 39.493h3.009l.206-1.152h-3.075l.268-2.184h3.553l.204-1.151h-4.78l-.844 6.886-.128 1.045h4.727l.179-1.045.018-.105-3.621-.002.284-2.292zm-2.165-4.566l-.655 5.32c-.04.327-.107.6-.2.806-.09.198-.192.352-.303.457a.95.95 0 0 1-.344.213 1.752 1.752 0 0 1-.71.057 1.433 1.433 0 0 1-.273-.064c-.304-.109-.61-.018-.73.158a.665.665 0 0 0-.115.221l-.167.479.472.18a2.816 2.816 0 0 0 1.06.183h.024c.311 0 .605-.052.872-.15.285-.107.542-.273.757-.493.116-.115.22-.25.316-.402.079-.127.151-.264.216-.415.131-.31.224-.681.275-1.105l.672-5.445h-1.167zm-8.825-.014l-.585 4.792a2.943 2.943 0 0 1-.229.839c-.114.254-.26.476-.434.663-.168.18-.361.321-.59.427-.406.19-.956.199-1.313.036a1.14 1.14 0 0 1-.408-.307 1.42 1.42 0 0 1-.263-.5 2.288 2.288 0 0 1-.094-.855l.618-5.09h-1.168l-.585 4.78c-.012.087-.02.173-.023.251a3.056 3.056 0 0 0-.006.237c0 .368.053.718.159 1.042a2.656 2.656 0 0 0 .482.883c.216.253.486.458.802.606.312.144.67.22 1.064.22h.001a2.82 2.82 0 0 0 1.2-.258 3.07 3.07 0 0 0 1.043-.787c.226-.26.416-.555.563-.881.168-.366.278-.762.33-1.18l.602-4.909-1.166-.01zm19.712.093l-.002.019a3.137 3.137 0 0 0-.482-.132 4.345 4.345 0 0 0-.699-.055 3.822 3.822 0 0 0-1.602.343 3.84 3.84 0 0 0-1.285.958 4.44 4.44 0 0 0-.84 1.454 5.49 5.49 0 0 0-.297 1.832c0 .512.072.983.212 1.399.136.408.33.766.578 1.068l.038.047c.27.318.605.563.99.735.379.168.8.253 1.251.253h.005c.31-.001.58-.03.826-.082a3.711 3.711 0 0 0 1.35-.579 4.92 4.92 0 0 0 .534-.435l.35-.382-.53-.569-.288.002c-.201.019-.34.147-.4.201-.042.04-.102.09-.173.152a2.32 2.32 0 0 1-.603.356c-.13.055-.285.102-.463.14-.393.081-.958.084-1.37-.102a1.64 1.64 0 0 1-.593-.441 2.199 2.199 0 0 1-.403-.73 3.318 3.318 0 0 1-.152-1.033 4.4 4.4 0 0 1 .23-1.468c.152-.427.358-.79.616-1.08.255-.289.556-.512.895-.665a2.665 2.665 0 0 1 1.115-.231c.282 0 .513.03.681.086.178.063.327.134.425.2.14.097.196.153.215.176.086.095.26.295.533.295a.575.575 0 0 0 .507-.275l.21-.305h.891l-.7 5.734-.126 1.045h1.165l.071-.592.759-6.187h2.387l.098-1.151v-.001H43.69zm-38.1 4.813A3.267 3.267 0 0 1 5 40.897c-.244.286-.525.5-.856.652-.337.151-.689.226-1.082.226-.292 0-.547-.05-.78-.154a1.632 1.632 0 0 1-.582-.434 2.078 2.078 0 0 1-.393-.725 3.343 3.343 0 0 1-.15-1.028c0-.371.036-.72.105-1.038.067-.312.164-.602.287-.859.119-.25.266-.476.432-.672a2.477 2.477 0 0 1 1.926-.884c.291 0 .557.052.79.154.227.1.416.242.578.434.166.193.296.438.388.723.098.3.147.646.147 1.03 0 .557-.074 1.06-.22 1.497zm1.39-1.497c0-.5-.07-.965-.206-1.386a3.276 3.276 0 0 0-.61-1.112 2.763 2.763 0 0 0-.985-.73c-.681-.305-1.573-.33-2.328-.104-.336.1-.656.248-.951.44a3.695 3.695 0 0 0-.794.7c-.233.27-.434.579-.6.921a4.974 4.974 0 0 0-.377 1.116c-.086.404-.13.833-.129 1.276 0 .505.07.97.205 1.384.14.427.346.8.61 1.106.272.315.6.56.98.73.36.16.763.246 1.199.252l.058.002a3.71 3.71 0 0 0 1.565-.333 3.62 3.62 0 0 0 1.015-.692c.084-.08.165-.165.243-.255.346-.4.62-.888.814-1.452.193-.553.29-1.18.29-1.863zm21.76-.848a1.277 1.277 0 0 1-.263.43 1.442 1.442 0 0 1-.466.32 1.835 1.835 0 0 1-.727.128h-.99l.271-2.205h1.079c.438 0 .763.082.941.237.104.09.241.252.24.62 0 .153-.029.311-.085.47zm-.147 3.554c-.07.163-.164.295-.291.405-.13.115-.29.2-.49.263-.218.066-.47.1-.754.1h-1.187l.284-2.303h1.326c.214 0 .409.025.57.076.15.047.273.111.368.19a.707.707 0 0 1 .205.268.91.91 0 0 1 .075.38c0 .24-.036.449-.106.62zm1.065.429c.133-.315.199-.67.199-1.057 0-.285-.05-.55-.148-.786a1.822 1.822 0 0 0-.588-.766c.081-.07.157-.145.229-.226.193-.22.346-.472.453-.742.114-.279.172-.582.172-.898 0-.61-.22-1.119-.63-1.47-.394-.336-.965-.506-1.699-.506h-2.109l-.842 6.886-.128 1.045h2.493c.4 0 .774-.054 1.106-.16a2.48 2.48 0 0 0 .903-.498 2.273 2.273 0 0 0 .589-.822zm-13.755-2.382c.183.082.373.159.57.23.174.066.345.134.509.202.133.057.253.125.353.202a.693.693 0 0 1 .192.222c.04.072.06.177.06.309 0 .225-.037.44-.111.637a1.508 1.508 0 0 1-.312.502 1.508 1.508 0 0 1-.49.337 1.653 1.653 0 0 1-.663.126 1.4 1.4 0 0 1-.374-.04 1.033 1.033 0 0 1-.458-.24 1.522 1.522 0 0 1-.135-.14l-.122-.158c-.19-.248-.467-.314-.702-.226a.83.83 0 0 0-.246-.58.85.85 0 0 0-1.198.01.87.87 0 0 0-.103.131l.383-3.61a.816.816 0 0 0 .242.538c.16.158.363.242.58.242h.014a.847.847 0 0 0 .782-.53 1.786 1.786 0 0 0 .182.905c.116.226.272.42.467.578.171.14.367.259.58.353zm.257-2.668c.106-.11.236-.199.397-.268.154-.067.34-.1.55-.1.124 0 .233.01.317.031.09.022.164.047.218.075a.68.68 0 0 1 .131.085c.046.039.085.077.115.111l.1.11c.17.198.363.227.464.227a.58.58 0 0 0 .515-.313l.178-.3-.208-.279a2.18 2.18 0 0 0-.792-.676c-.584-.282-1.437-.28-2.043-.017-.3.128-.562.309-.777.535a2.357 2.357 0 0 0-.603 1.176.83.83 0 0 0-.239-.47.847.847 0 0 0-1.198.013.836.836 0 0 0-.196.337l.18-1.688H12.12l-.675 5.527-3.648-6.405-1.07 7.774-.14 1.036h1.145l.127-1.036.552-4.517 2.577 4.517.596 1.045.709 1.24.13-1.24.112-1.045.058-.544a.8.8 0 0 0 .19.299.817.817 0 0 0 .587.244h.012a.842.842 0 0 0 .463-.14l.065.102c.01.014.02.026.028.04.104.153.216.293.332.415a2.169 2.169 0 0 0 1.177.629 3 3 0 0 0 .558.049h.001c.19 0 .372-.017.549-.05a2.645 2.645 0 0 0 1.663-1.044c.134-.186.244-.39.328-.61.125-.327.189-.678.189-1.04 0-.317-.062-.596-.185-.832a1.78 1.78 0 0 0-.468-.571 2.677 2.677 0 0 0-.58-.348c-.18-.08-.365-.157-.56-.233a11.72 11.72 0 0 1-.514-.21 1.53 1.53 0 0 1-.353-.206.699.699 0 0 1-.192-.225.683.683 0 0 1-.063-.32c0-.173.03-.336.09-.495.06-.153.14-.282.249-.395zM19.038 29.256a14.755 14.755 0 0 0 11.36.384 14.775 14.775 0 0 0 8.3-7.78c2.509-5.536 1.4-11.76-2.382-16.026a9.854 9.854 0 0 1 .272 8.554l-.081.178a9.767 9.767 0 0 1-5.447 5.05 9.722 9.722 0 0 1-7.511-.254 9.77 9.77 0 0 1-5.134-5.505 9.798 9.798 0 0 1 .254-7.53A9.805 9.805 0 0 1 25.402.812l-.216-.001c-1.76 0-3.526.317-5.225.956a14.773 14.773 0 0 0-8.301 7.78 14.82 14.82 0 0 0-.383 11.386 14.78 14.78 0 0 0 7.76 8.323z"/><path d="M19.67 6.783c-1.988 4.388-.044 9.582 4.333 11.577a8.699 8.699 0 0 0 7.807-.301 6.194 6.194 0 0 1-3.123-.325 4.196 4.196 0 0 1-.311-.12l-.099-.046c-3.122-1.42-4.512-5.137-3.09-8.28a6.213 6.213 0 0 1 3.49-3.27 6.197 6.197 0 0 1 4.775.162 6.25 6.25 0 0 1 2.67 2.327 8.737 8.737 0 0 0-4.905-6.068 8.636 8.636 0 0 0-6.67-.222 8.664 8.664 0 0 0-4.877 4.566z"/><path d="M32.985 16.568a5.153 5.153 0 0 0 2.546-2.51l.024-.054c1.168-2.586.02-5.646-2.558-6.82a5.145 5.145 0 0 0-6.808 2.562 5.15 5.15 0 0 0-.202 3.743c.036-.338.116-.67.24-.993.024-.071.055-.153.09-.232.04-.088.083-.168.129-.247a4.005 4.005 0 0 1 5.178-1.747 3.976 3.976 0 0 1 2.093 2.246 4 4 0 0 1-.104 3.072c-.164.361-.377.69-.628.98z"/><path d="M27.724 15.774a2.89 2.89 0 0 0 1.033.8c.081.038.167.07.251.102 1.46.487 2.988-.185 3.605-1.544a2.923 2.923 0 0 0-1.445-3.86c-.407-.184-.866-.288-1.268-.259l.008.014c1.227.623 1.751 2.118 1.17 3.4a2.614 2.614 0 0 1-3.354 1.347z"/></g></svg>