<svg width="41" height="50" viewBox="0 0 41 50" xmlns="http://www.w3.org/2000/svg"><title>Img/Logo_Certh</title><g fill="#FFF" fill-rule="evenodd" opacity=".5"><path d="M21.076 0h.006c.142.518.21 1.083.545 1.521.008-.147.014-.294.02-.44.433-.012.88-.135 1.306-.002.197.063.212.304.298.464.17-.24.247-.538.43-.767.28-.138.607-.09.91-.106.057.376.088.78.314 1.1.109-.086.178-.208.252-.322.419.17.865-.006 1.296-.027.002.252-.012.52.127.744.344-.283.551-.684.733-1.083.295.075.594.135.894.186-.035.373-.128.75-.071 1.126.019.081.106.313.21.168.417-.373.422-.996.463-1.516.195.115.4.25.473.479.166.458.184.954.258 1.432.475.169.963.31 1.419.526.01.236-.072.48.007.711.066.199.294.244.459.325a15.13 15.13 0 0 0-.157.167 2.909 2.909 0 0 1-.56-.103c-.05-.302.069-.658-.157-.909-.278-.283-.71-.236-1.072-.265.005-.549.011-1.12-.185-1.641-.066-.21-.32-.429-.492-.19.031.393.104.843-.153 1.18-.103.16-.364.242-.499.077-.213-.291-.111-.678-.097-1.01.015-.133.026-.382-.163-.377-.439.069-.72.459-.928.82-.114.215-.38.2-.585.238-.025-.226.018-.496-.161-.67-.13-.152-.392-.245-.556-.096-.109.131-.124.312-.182.468-.12-.074-.24-.15-.357-.229a9.506 9.506 0 0 0-.331.313c-.098-.223-.2-.449-.199-.697-.011-.228-.06-.564-.346-.584-.436.003-.702.422-.83.793l-.233.116c-.055-.406-.457-.612-.833-.573-.242.001-.634.085-.607.402-.006.342-.022.687.034 1.024.054.326.276.582.487.82-.331.3-.693.69-.637 1.176.062.497.519.775.781 1.16-.93-.034-1.86-.027-2.789-.01-1.043-1.511-2.012-3.151-2.316-4.993-.234-.131-.383.076-.559.197-.352.043-.716-.07-1.061.032-.271.095-.158.43-.188.645-.35-.005-.69-.096-1.038-.098-.305.018-.425.34-.527.58-.463-.276-.964.042-1.405.206l-.023.302c-.539.012-1.063-.131-1.599-.165-.231-.005-.54 0-.655.247-.041.21.015.425.027.637-.362.12-.727.239-1.066.42.188.005.377.007.565.01.246.225.496.468.822.567.27.093.56.062.839.04.139 1.386 1.06 2.476 1.679 3.665a1.45 1.45 0 0 1-1.435-.24c-.922-.75-1.404-1.957-2.475-2.54.259-.101.515-.208.77-.32-.378-.156-.782-.214-1.185-.26l.072-.183c-.422.26-.842.53-1.3.722-.163-.195-.351-.435-.64-.346-.02.33-.059.667.012.993.064.334.242.63.305.965l-.14.13c.607.638 1.515.856 2.368.822-.054.412-.173.84-.05 1.251.101.342.286.649.444.966-.262-.316-.552-.611-.901-.828-.849-.536-1.873-.77-2.627-1.46.295.866.24 1.85-.197 2.658-.554 1.033-1.508 1.772-2.49 2.367l-.015.187c-.437-.031-.775.292-1.16.446.074-.148.148-.295.219-.443-.23.105-.536.165-.65.423-.058.385.354.58.605.783.001.071.005.213.005.283-.476.285-1.023.402-1.532.609-.274.121-.576.264-.718.546.086.187.29.259.473.311.432.117.88.144 1.325.173.017 1.03-.179 2.063-.027 3.09.04.35.104.711.287 1.02.105.18.275.309.384.487-.02.257-.219.46-.238.718-.064.628.105 1.275-.099 1.888.208.603-.037 1.23 0 1.842-.011.231.221.306.394.368-.049.472-.208.967-.03 1.431.103.292.389.445.65.57l-.012.235c-.044.146-.22.327-.061.46.333.332.84.365 1.226.613.046.263-.033.537.055.796.154.522.259 1.092.63 1.51.592.7 1.363 1.25 1.817 2.062.163.28.225.6.306.909.045.118.083.319.254.272.344-.235.448-.771.876-.88.588.34.973.953 1.567 1.294.318.22.71.258 1.087.251-.01.088-.022.177-.037.265-.117.06-.245.097-.369.141.49.015.98.07 1.47.091.997.026 2 .615 2.406 1.55.014.1.024.2.03.3.245.187.52.328.817.408-.065-.287-.172-.574-.132-.872.026-.357.287-.624.509-.876.347-.396.77-.76.928-1.282.147-.478.46-.873.703-1.302.37-.65.46-1.408.73-2.098.162-.424.424-.8.664-1.18.113-.204.445-.294.594-.082.217.32.09.771.349 1.07.243.287.484.575.73.858.413.485 1.004.803 1.316 1.375.263.493.448 1.024.668 1.538.237.545.37 1.131.634 1.665.251-.027.504-.036.757-.037.239-.087.488-.138.734-.205.132.22.251.489.511.579.331.085.605-.175.908-.258.003.246-.007.492-.022.738-.575-.116-1.072-.57-1.673-.51-.235.189-.14.526-.166.786l-.462.123a4.991 4.991 0 0 0-.578-.66c-.162.186-.21.498-.45.599-.306-.043-.537-.27-.805-.403-.195-.091-.36-.229-.524-.365-.095.09-.194.185-.327.211-.485.134-.95.336-1.444.437a2.918 2.918 0 0 0-.148-.288c-.183-.015-.328.13-.482.206-.33-.222-.642-.49-1.025-.613-.17-.056-.422-.054-.502.141-.196.395-.38.795-.59 1.182h-.036c-.201-.115-.409-.264-.463-.505-.07-.282-.181-.554-.38-.767-.247.3-.23.822-.622.983-.379.002-.747-.17-1.083-.337.01-.286.282-.57.112-.847-.156-.237-.424-.36-.675-.466-1.027-.397-2.14-.457-3.193-.748-.15-.019-.2-.157-.24-.283-.45-.347-.905-.691-1.308-1.096-.16-.139-.33-.318-.56-.305-.29.206-.353.588-.488.898a7.24 7.24 0 0 0-.63-.247c-.045-.344-.112-.694-.289-.998-.47-.85-1.354-1.354-1.86-2.175-.332-.529-.438-1.166-.779-1.689-.15-.195-.305-.464-.085-.671-.195-.012-.413-.026-.543-.195-.275-.313-.628-.614-.695-1.05l.126-.102c-.16-.018-.445.06-.48-.163a15.785 15.785 0 0 1-.223-1.667l-.324.129c-.163-.754.25-1.464.2-2.217-.09.089-.176.18-.263.271-.02-.751.309-1.46.288-2.21.003-.287-.081-.564-.13-.845.06-.087.125-.171.172-.267-.077-.329-.278-.62-.313-.96-.109-.788-.238-1.584-.16-2.38a.943.943 0 0 0-.41-.863C1.167 16.294.56 16.278 0 16.2c-.006-.313.164-.586.382-.795.497-.483 1.202-.611 1.828-.846-.101-.192-.218-.375-.326-.563-.163-.256-.172-.595-.059-.871.25-.38.74-.462 1.157-.51.188-.445.324-.914.609-1.312.264.023.531.032.796-.006-.056-.135-.15-.257-.168-.405.04-.162.142-.298.218-.444.173-.309.25-.658.323-1 .198-.074.467-.139.501-.39.027-.48-.234-.922-.24-1.401.125-.127.25-.255.372-.384.246.035.492.069.74.089.224-.204.453-.402.679-.605l.156.08c-.021-.486-.265-.93-.25-1.42l-.21-.188c.02-.09.046-.18.075-.269.238-.183.523-.287.794-.41.117.149.228.374.452.356.349-.023.667-.24.873-.516.162-.196.072-.459.068-.688.383-.102.823-.133 1.125-.422.225-.238.026-.578.02-.857.505-.054 1.02-.188 1.526-.07.263.063.528.116.797.149l.006-.374c.507-.102 1.03-.16 1.511-.364.226-.087.338-.319.525-.458.317.023.61.2.93.178.251-.124.12-.473.157-.698.42.04.853.158 1.271.045.18-.045.24-.24.325-.38.405.204.856.447 1.32.288.296-.011.453-.275.679-.42.276-.103.576-.024.856.028l.008.326c-.094.048-.187.097-.28.147.304.318.46.731.67 1.111.007-.532-.078-1.086.166-1.582.246-.086.476-.207.694-.348zM18.33 32.594c-.024.2.076.393.153.574.205.091.43.163.585.338.42.417.565 1.011.708 1.568-.06-.874-.102-1.843-.665-2.559-.192-.284-.635-.212-.781.079zm-.564 3.987c.103.12.281.161.418.243.142-.504.09-1.03.074-1.547-.2.42-.397.847-.492 1.304z" fill-rule="nonzero"/><path d="M31.454 4.62a7.61 7.61 0 0 1 .65-1.052c.19.622.062 1.27-.047 1.893.5-.23.808-.731 1.146-1.147.005.417.179.805.37 1.167.06.122.135.265.063.4-.18.376-.454.726-.482 1.159.228-.096.412-.262.593-.425.386.018.744-.168 1.123-.214 0 .113 0 .225-.002.337-.083.093-.165.188-.25.281.286.032.553.174.845.16.217.001.423-.07.63-.13.104.233.147.499.045.742-.149.436-.54.738-.668 1.184.702-.124 1.235-.764 1.337-1.46.37.929-.07 1.932-.55 2.729.68.27 1.388-.029 2.079-.078.006.208-.02.423-.173.576-.275.355-.762.334-1.152.45.096.217.022.44-.003.662.361.214.784-.02 1.164-.057.15.31.357.615.365.97-.178.145-.386.268-.507.47-.068.098.01.198.115.22.326.076.66-.02.976-.1.043.265.15.515.319.724-.028.1.04.285-.112.303-.17.066-.341.128-.51.196.19.615.076 1.274-.113 1.874.207-.006.413-.018.619-.02l.03-.19c.223-.008.446.013.666.057.002.108.004.216.008.324-.203.047-.407.088-.612.123-.227.457-.249.975-.275 1.476a8.371 8.371 0 0 0-.446-.046c.267.118.552.181.837.234l-.001.277c-.361.437-.417 1.14-.987 1.378.016.24.255.427.16.676.037.21.075.418.09.631-.262.005-.526.012-.775.1.153.267.449.38.704.52.115.512.254 1.02.318 1.543a3.683 3.683 0 0 1-.153-.508c-.286.029-.573.045-.86.042.26.16.5.348.729.548-.018.305-.168.576-.228.871-.057.206-.139.476-.385.506-.276-.01-.545-.081-.818-.12l-.026.242c.169.08.336.162.5.25-.001.13.112.3-.026.395-.31.294-.57.696-1.019.776.02.185-.044.401.108.547a.396.396 0 0 1 .212-.127c.003.093.003.186.002.281l-.176-.11c-.326.413-.484.911-.65 1.403-.266.005-.711-.038-.766.318.044.44.276.84.268 1.29-.618.292-.742 1.02-1.153 1.501-.226.288-.717.21-.878.557.035.28.275.491.255.785-.293.154-.562.373-.893.437a.481.481 0 0 1-.482-.176c-.207-.252-.41-.51-.645-.739-.005.14-.058.292.01.425.063.172.244.241.386.332-.023.471-.217.91-.311 1.369a22.82 22.82 0 0 0-.835-.107.775.775 0 0 1 .17-.513c-.414-.127-.73.213-1.079.368-.216.124-.486.184-.646.387-.104.266.06.629-.18.847-.252.22-.538.392-.813.58-.166-.2-.377-.355-.635-.4-.215.253.02.554-.029.84-.07.577-.343 1.098-.523 1.643-.078-.449-.127-.964-.494-1.281-.272-.262-.68-.188-1.002-.33a1.909 1.909 0 0 1 .034-.45c.059.153.108.309.135.472.318-.065.592-.268.922-.295.117.349.269.685.367 1.04.131-.34.406-.635.402-1.016-.049-.242-.146-.475-.143-.725.324-.155.662-.023.941.163.275-.171.595-.313.77-.6.127-.218-.096-.456-.024-.683.442-.317.997-.442 1.414-.803.122-.077.239-.236.4-.193.164.114.29.273.434.411.004.067.01.201.015.268.185-.15.405-.302.46-.552-.004-.363-.317-.593-.494-.875-.115-.308.226-.523.47-.61.16.09.166.292.237.443.065.21.222.422.46.426.257.007.573-.018.73-.253.14-.216.057-.483.047-.72-.027-.246.06-.482.124-.713.158.121.347.295.56.187.505-.257.796-.791 1.01-1.296.108-.31.267-.693.067-.998-.164-.202-.013-.463.032-.683-.574.31-1.234.36-1.864.473-.455.065-.913.168-1.374.11.404-.266.9-.323 1.353-.465.631-.14 1.231-.444 1.888-.45.013.049.04.145.055.193.137-.24.407-.265.65-.315.407-.236.592-.707.654-1.155-.113-.161-.336-.2-.506-.28a12.18 12.18 0 0 1 0-.294c.415-.217.882-.352 1.241-.663.088-.058.105-.132.052-.224-.13-.066-.274-.098-.413-.136 0-.108.003-.215.005-.322-1.685-.465-3.319-1.095-4.945-1.732 1.696.205 3.355.686 4.939 1.325.001-.046.005-.137.008-.183.322.064.664.198.99.084.294-.142.429-.502.423-.812-.182-.353-.622-.414-.92-.63v-.26c.374-.115.77-.141 1.149-.24-.187-.515-.729-.709-1.128-1.014a3.288 3.288 0 0 1-.005-.28c.371-.178.744-.366 1.062-.636-.026-.106-.05-.214-.074-.32a10.417 10.417 0 0 0-.516-.065c0-.194.001-.386.003-.58.234-.019.515-.01.674-.22.158-.23.253-.496.41-.727-.422-.017-.842-.381-.782-.832.237-.125.501-.224.687-.426.176-.216.19-.51.24-.773-.38.03-.76.004-1.13-.074a18.157 18.157 0 0 1-.003-.294c.375-.214.64-.614.654-1.053.006-.151-.019-.339-.163-.42-.17-.1-.351.046-.513.087a3 3 0 0 1-.004-.304c.3-.334.76-.429 1.1-.703a6.866 6.866 0 0 0-.315-.253c-.407.078-.851.188-1.248.008-.145-.183-.09-.461-.028-.668.182-.213.417-.38.557-.63-.427-.266-1.02-.103-1.403-.47-.127-.181.049-.358.135-.513l-.323-.016a1.71 1.71 0 0 1 .04-.304c.315-.24.678-.404 1.034-.568-.548.11-1.144.186-1.646-.123-.006-.139-.02-.29.083-.398.442-.57.548-1.306.685-1.995-.181.302-.32.65-.616.86-.255.199-.586.248-.898.284-.05-.484.307-.856.474-1.279.052-.116.105-.332-.07-.361-.254-.067-.513.017-.762.064-.085-.128-.144-.374-.345-.323-.165.054-.307.162-.456.25 0-.107.002-.214.005-.321.16-.171.314-.35.44-.548-.61.24-1.144.684-1.82.73.023-.127-.016-.278.07-.386.209-.307.424-.624.489-.996.077-.374-.013-.755-.13-1.11-.481.34-.868.79-1.29 1.199-.014-.532.06-1.062.088-1.593-.206.182-.462.291-.697.429.005-.14.018-.282.158-.35zM19.308 6.33c.678-.21 1.398-.199 2.1-.185a9.213 9.213 0 0 1 4.209 1.313c.16.048.09.235.11.358-.997-.575-2.067-1.063-3.218-1.21-.944-.13-1.901-.079-2.848-.183a1.139 1.139 0 0 1-.353-.094z" fill-rule="nonzero"/><path d="M18.527 6.485c.206.098.285.33.214.547.092.026.184.085.283.041 1.12-.217 2.278-.27 3.407-.08 1.966.34 3.804 1.296 5.295 2.62 1.042.917 1.92 2.016 2.657 3.194.083.131.155.27.205.418-.296-.28-.493-.642-.754-.952-1.348-1.744-2.953-3.377-4.986-4.286-1.838-.82-3.931-.966-5.897-.607-1.804.335-3.495 1.116-5.045 2.084-.301.177-.577.394-.887.555.116-.124.247-.233.383-.334 1.27-.958 2.685-1.733 4.194-2.235.378-.115.754-.251 1.149-.297-.118-.204-.21-.43-.218-.668z" fill-rule="nonzero"/><path d="M22.862 8.027c.09-.147.288-.054.423-.034.307.086.784.194.758.606-.363.028-.72-.07-1.06-.189-.161-.05-.16-.25-.121-.383zM17.327 9.995c-.03-.563-.012-1.2.369-1.653.144.558-.27 1.036-.302 1.58l.113-.032c.262 1.012.639 1.99.926 2.994.034.206.28.323.23.55.032.169-.225.308-.313.14-.13-.158-.034-.35.035-.509a25.076 25.076 0 0 1-.914-3.115l-.144.045zM24.16 8.462c.35.079.898.138.953.583-.317-.088-.584-.291-.887-.415l-.066-.168z" fill-rule="nonzero"/><path d="M17.956 9.607c.041-.34.16-.691.42-.928-.132.36-.298.716-.317 1.107-.074.926.354 1.778.641 2.63-.177-.239-.26-.529-.372-.8-.241-.638-.449-1.319-.372-2.009zM18.606 9.186c-.057-.165-.002-.342.018-.51.481.122.782.568.903 1.027.246.875.213 1.795.22 2.695 0 .232.045.47-.027.697-.127-.596-.08-1.209-.14-1.811-.051-.573-.132-1.184-.483-1.658-.13-.183-.33-.291-.491-.44zM22.31 9.045c.204-.232.577-.244.814-.059.177.211-.134.595-.377.454-.165-.108-.294-.261-.436-.395zM21.239 11.527c.158-.88.206-1.855.803-2.57-.12.38-.284.746-.388 1.132-.37 1.268-.399 2.598-.488 3.906-.022.244.022.488.024.73-.311-.227-.134-.648-.148-.971-.04-.75.12-1.486.197-2.227zM25.326 9.01c.262.062.554.089.774.26.14.108.09.302.106.454-.286-.043-.45-.304-.694-.432a.296.296 0 0 1-.186-.282zM15.048 10.013c.097-.203.26-.4.505-.394.491.01 1.086.303 1.139.85-.237-.031-.515-.223-.736-.056-.089.116-.043.27-.012.398.111.398.32.765.378 1.18-.677-.346-1.143-1.093-1.106-1.864l-.168-.114zM26.344 9.553c.223.264.566.339.825.55.141.093.084.283.109.424-.35-.082-.56-.395-.86-.564-.175-.07-.062-.276-.074-.41z" fill-rule="nonzero"/><path d="M14.885 11.96c-.278-.607-.389-1.37-.07-1.981-.051.386-.138.779-.03 1.164.224 1.011.968 1.787 1.676 2.493.537.544.967 1.26 1.715 1.535-.01.11-.021.222-.034.332-.654-.23-1.041-.84-1.498-1.323-.665-.669-1.335-1.364-1.759-2.22zM20.756 10.056l.046.005c-.175 1.587-.105 3.21-.502 4.765a.83.83 0 0 1-.012-.443c.339-1.42.242-2.893.468-4.327zM25.505 10.353c.306-.156.722-.26 1.004 0 .353.374.4.994.177 1.446-.06-.262.041-.596-.182-.798-.26-.268-.663-.223-.997-.175a6.298 6.298 0 0 1-.002-.473zM23.954 11.323c.103-.204.19-.42.338-.596-.083.286-.227.548-.35.818-.43.922-.905 1.824-1.446 2.686-.117.189-.241.376-.39.543-.037-.266.15-.462.28-.668a34.543 34.543 0 0 0 1.568-2.783zM27.84 10.669c.262.099.623.267.497.618-.257-.091-.424-.368-.497-.618zM22.66 14.546c.768-1.146 1.252-2.458 2.008-3.609a1.71 1.71 0 0 1-.202.44c-.674 1.17-1.237 2.398-1.887 3.58a.446.446 0 0 1 .082-.41zM23.067 11.517c.054-.143.124-.279.214-.402a42.05 42.05 0 0 1-.837 2.253c-.166.36-.297.746-.546 1.061-.049-.279.146-.492.26-.723.367-.701.613-1.456.909-2.19zM28.454 11.514c-.054-.132.01-.276.02-.41.24.227.371.581.683.716.015.381.484.686.214 1.065a37.105 37.105 0 0 1-.05-.29 2.29 2.29 0 0 1-.124-.425l-.102.052-.143-.264-.147-.081c-.113-.126-.259-.221-.35-.363zM26.726 12.517c.189-.239.342-.504.549-.728-.092.256-.27.465-.413.691-.891 1.289-1.91 2.505-3.12 3.503-.003-.143-.036-.318.106-.41 1.013-.964 2.025-1.941 2.878-3.056zM12.014 13.145c-.277-.39-.025-.953.316-1.218.44-.235.552.708.074.579-.238.112-.242.442-.39.639zM14.178 12.456a10.334 10.334 0 0 1 3.438 3.204c.131.144.088.34.074.516-.8-1.311-1.89-2.42-3.12-3.324-.144-.117-.333-.204-.392-.396zM27.875 12.644c.206-.09.431-.119.653-.133l-.001.315c-.39.154-.823.174-1.195.377-.293.146-.55.35-.834.512.025-.118.051-.245.15-.325.338-.35.784-.563 1.227-.746z" fill-rule="nonzero"/><path d="M13.505 12.678c.371.101.702.307 1.03.503.875.56 1.675 1.246 2.35 2.04.278.337.511.846.29 1.268-.274.2-.62.011-.907-.064.007-.139.018-.277.032-.415.265.075.532.222.815.171.053-.18-.107-.332-.186-.48-.85-1.143-2.1-1.868-3.19-2.748a.921.921 0 0 1-.234-.275zM11.955 13.15c.103.22.165.46.299.667.242.384.601.674.967.935.845.572 1.757 1.036 2.664 1.5a39.8 39.8 0 0 1-.052.269c.394.247.798.617.796 1.123.037.391-.297.717-.664.77-.408.06-.825.025-1.234-.017l.015-.315c.456 0 .925.082 1.372-.034.239-.054.477-.304.367-.562-.175-.359-.521-.586-.845-.798-.858-.526-1.81-.872-2.762-1.188a.824.824 0 0 1-.298-.168c1.114.149 2.136.663 3.153 1.119-.98-.616-2.115-.988-2.982-1.78-.433-.391-.75-.93-.796-1.522zM26.734 14.181c.529-.39 1.035-.888 1.704-1.015.455-.096.91.352.803.813-.315-.06-.636-.144-.957-.08-.702.125-1.319.507-1.963.794-.033-.274.245-.364.413-.512zM18.713 13.937c.126.243.179.522.344.745.137.216.367.404.326.69-.435-.334-.608-.912-.67-1.435zM10.52 15.966c.119-.35.444-.572.763-.724l-.01.204c-.264.166-.61.346-.65.688-.025.396.447.587.452.972-.518-.079-.717-.696-.555-1.14zM25.204 16.997c1.369-.341 2.652-.972 3.832-1.742l.014.236c-1.09.475-2.093 1.144-3.228 1.52-.365.115-.739.228-1.125.219.106-.18.328-.182.507-.233z" fill-rule="nonzero"/><path d="M11.787 15.52c.916-.044 1.801.261 2.613.661.627.313 1.314.566 1.797 1.1-.042.055-.004.23-.114.19-.518-.521-1.202-.813-1.865-1.097-.78-.346-1.595-.634-2.444-.739l.013-.114zM17.853 17.567c.48-.814 1.27-1.476 2.19-1.715 1.216-.316 2.509.412 3.112 1.47.393.692.282 1.514.235 2.27-.18-.093-.226-.31-.045-.43.248-1.517-.99-3.077-2.5-3.218-.417-.039-.83.06-1.222.194.01.18.024.41-.213.436l.037-.357c-.626.325-1.116.843-1.594 1.35z" fill-rule="nonzero"/><path d="M17.58 17.301c.16-.374.398-.736.764-.929-.193.288-.452.53-.6.848a3.006 3.006 0 0 0 .107 2.887c.112.188.266.355.326.571-.439-.25-.669-.74-.78-1.215a3.694 3.694 0 0 1 .183-2.162zM28.268 16.835c.586-.224 1.275-.415 1.865-.102.181.08.093.32.098.474-.704-.012-1.407.077-2.11.004-.904.108-1.743.523-2.641.655.104-.089.222-.16.351-.205.802-.305 1.633-.525 2.437-.826zM18.459 17.88c.121-.631.673-1.162 1.33-1.16-.292.278-.695.417-.954.736-.409.387-.487 1.03-.26 1.534.28.654.812 1.297 1.557 1.39.774.149 1.531-.204 2.123-.682l.025.314c-.481.38-1.028.763-1.666.758-.885.042-1.757-.546-2.06-1.382-.186-.479-.173-1.009-.095-1.508z" fill-rule="nonzero"/><path d="M19.807 17.24c.56-.572 1.667-.572 2.13.126.258.438.328.968.288 1.47-.023.329-.16.647-.4.875-.047-.178-.101-.363-.077-.549.063-.22.31-.379.263-.63-.084-.407-.45-.697-.827-.82-.487-.146-.95.145-1.428.2-.017-.22-.064-.472.05-.672zM23.872 17.063a5.04 5.04 0 0 1 .142 2.57c-.16.715-.548 1.408-1.162 1.823.067-.123.14-.245.214-.363l-.212.062.126-.24.15.184c.234-.387.554-.725.705-1.16.366-.92.246-1.935.037-2.876zM11.114 24.913c-1.363-1.971-1.98-4.42-1.832-6.807-.024 1.75.259 3.537 1.072 5.1 1.027 2.04 2.754 3.592 4.478 5.03.154.146.403.252.388.502-1.6-.983-3.034-2.272-4.106-3.825zM15.042 18.482c.486.057 1 .115 1.422.386.219.127.315.428.18.651-.245.45-.72.704-1.174.89-1.036.396-2.114.668-3.193.914a1.717 1.717 0 0 1-.388.032c.244-.183.55-.24.833-.338 1.053-.352 2.154-.61 3.123-1.171.268-.154.536-.336.673-.627a1.89 1.89 0 0 0-.506-.267c.008.202.062.426-.052.61-.12.176-.314.282-.503.37-.94.4-1.955.562-2.951.756l-.074-.088c.84-.358 1.722-.595 2.581-.897.319-.134.685-.238.9-.528.07-.07.007-.161-.009-.238l-.875-.11c.002-.115.007-.23.013-.345zM32.35 18.651c-.01 1.576-.168 3.18-.74 4.66-.137.34-.266.689-.482.987.004-.148.013-.3.089-.43.671-1.392.98-2.935 1.06-4.472.01-.25.024-.5.073-.745z" fill-rule="nonzero"/><path d="M11.815 18.825c.187-.017.394-.069.563.037-.654.123-1.35.242-1.875.691-.158.135-.375.35-.252.575.16.4.62.49.979.622 0 .116 0 .23-.002.347-.559.02-1.074-.43-1.134-.987a.904.904 0 0 1 .51-.926 4.6 4.6 0 0 1 1.211-.359zM29.231 18.98c.427-.03.845-.128 1.256-.246l-.007.264c-1.227.605-2.659.468-3.95.172-.315-.1-.676-.117-.938-.338 1.215-.039 2.422.246 3.64.149zM25.292 19.625c1.292-.103 2.59.096 3.852.372.421.106.89.252 1.133.646.13.183.052.417.047.623-.124-.198-.233-.419-.428-.557-.29-.205-.632-.32-.972-.405-1.022-.235-2.073-.298-3.1-.496-.184-.04-.382-.06-.532-.183zM18.074 20.168c.467.45.898.97 1.509 1.231a2.225 2.225 0 0 0 2.122-.19c.358-.232.633-.563.92-.873.011.101.02.202.03.304-.511.602-1.223 1.113-2.04 1.104-1.07.036-1.979-.723-2.541-1.576zM13.25 21.453c1.09-.516 2.27-.858 3.472-.955-.219.219-.54.256-.815.368-1.21.382-2.433.781-3.507 1.474-.293.205-.582.453-.716.795-.084.197.016.421.182.54.332.248.773.25 1.166.197.003.158.059.334-.034.479-.432.097-.947.03-1.25-.328-.403-.452-.318-1.196.094-1.614.4-.41.904-.697 1.408-.956zM16.334 22.341c.43-.525.806-1.103 1.007-1.758l-.037.216c.17.195.339.395.55.548-.58.204-1.064.592-1.52.994zM26.25 21.275c.775.305 1.537.66 2.358.828v.217l.282.095-.017.3c-.754-.205-1.517-.495-2.1-1.033-.173-.14-.464-.156-.523-.407zM15.477 23.347c.814-.677 1.712-1.246 2.628-1.772.001.12.006.273-.129.326-1.017.65-2.056 1.293-2.908 2.161-.463.49-.905 1.079-.95 1.779-.033.364.153.69.234 1.034-.44-.414-.554-1.102-.348-1.66.272-.767.877-1.346 1.473-1.868zM18.41 21.646c.244.379.233.86.123 1.28-.17.584-.51 1.093-.772 1.635-.37.739-.707 1.518-1.285 2.122-.281.3-.687.524-1.109.426.258-.148.55-.244.773-.448.624-.544.99-1.304 1.413-2.001.365-.63.742-1.274.893-1.995.09-.344-.115-.676-.036-1.019z" fill-rule="nonzero"/><path d="M14.356 23.984c.524-.563 1.016-1.164 1.596-1.672-.163.326-.406.605-.573.928l.002.155-.044-.055a.664.664 0 0 1-.371.335c-.328.13-.626.342-.816.645-.39.56-.865 1.202-.708 1.927-.667-.397-1.23-.95-1.69-1.574.915.093 1.84-.183 2.604-.689zM18.057 24.769c.43-.783.89-1.553 1.383-2.296-.065.246-.19.47-.306.696-.462.86-1.02 1.67-1.385 2.58-.223.553-.368 1.154-.301 1.754.02.227.114.465 0 .681-.325-1.165.058-2.385.61-3.415zM27.884 22.47c.922.241 1.722 1.208 1.47 2.196-.102-.238-.053-.506-.14-.748-.127-.38-.418-.678-.717-.93-.202-.176-.45-.3-.613-.518zM19.911 22.84c.197 1.116.069 2.267-.124 3.375-.117.566-.228 1.155-.542 1.65-.09.156-.258.229-.433.236-.165-.737-.023-1.496.124-2.223.237-1.037.54-2.066.975-3.038z" fill-rule="nonzero"/><path d="M20.16 22.922l.381.195c-.201.754-.156 1.54-.213 2.312-.02.922-.051 1.873.247 2.76.135.423.421.822.853.974a16.39 16.39 0 0 1-1.046.02c-.533-.023-1.058-.162-1.594-.132.438-.4.957-.794 1.103-1.404.402-1.54.278-3.15.269-4.725z" fill-rule="nonzero"/><path d="M20.836 23.525c.063-.232.108-.475.238-.682-.175.937-.389 1.87-.435 2.827-.041.756-.147 1.588.257 2.27.22.388.641.577 1.042.717-.012.116-.025.232-.04.348-.426-.09-.83-.322-1.066-.698-.32-.495-.41-1.101-.434-1.68-.02-1.05.179-2.09.438-3.102zM21.449 23.184c.114.307.195.627.309.934.35 1.035.83 2.031 1.045 3.109.06.335.109.73-.144 1.003-.355-1.386-.846-2.733-1.15-4.133-.077-.298-.073-.608-.06-.913zM29.794 25.614c.568-.741.957-1.597 1.454-2.383.008.175.032.363-.052.527a9.572 9.572 0 0 1-1.707 2.739c-.56.655-1.13 1.392-1.979 1.668.06-.142.14-.274.247-.386.658-.742 1.455-1.355 2.037-2.165zM25.728 23.703c.627.406 1.166.993 1.913 1.182.354.097.722.01 1.043-.154a5 5 0 0 1 .028.475c-.31.133-.656.19-.985.098-.606-.166-1.1-.588-1.547-1.014-.17-.179-.363-.35-.452-.587z" fill-rule="nonzero"/><path d="M22.368 23.72c.234.254.328.596.46.908.24.68.633 1.29.958 1.93.258.51.572 1.028 1.082 1.317.236-.021.476-.046.712.005a.587.587 0 0 0 .298.261 1.03 1.03 0 0 1-.213.252c-.043-.103-.081-.201-.13-.3l-.244.138a5.569 5.569 0 0 1-.026.379 3.277 3.277 0 0 1-.576.237c-.035-.228.137-.37.279-.512-.385.143-.77.287-1.161.406-.277.075-.597.144-.85-.036.183-.181.395-.363.444-.631.107-.491-.027-.992-.164-1.463a57.06 57.06 0 0 0-.77-2.295 1.704 1.704 0 0 1-.1-.597z" fill-rule="nonzero"/><path d="M23.146 24.488c-.086-.219-.212-.427-.238-.664.44.804.682 1.709 1.193 2.475.222.323.467.65.815.843.269.144.584.155.881.13a3.344 3.344 0 0 1-.094-.626c.14.131.187.325.287.485-.048-.189-.096-.404-.287-.497l.03-.374c.22.302.42.694.314 1.076-.09.247-.407.243-.622.222-.495-.037-.883-.394-1.18-.765-.526-.682-.772-1.52-1.099-2.305zM29.992 24.338a.524.524 0 0 1 .17-.448c.014.154-.002.308-.034.459l-.166.124c.02.205-.07.378-.286.401-.02.137-.005.314-.147.392-.285-.022-.051-.56.191-.446.032-.146.043-.303.12-.434l.152-.048zM25.663 24.474c.656.845 1.715 1.403 2.796 1.285-.49.44-.888.986-1.445 1.35-.236.146-.48.28-.72.421.187-.26.328-.567.307-.897-.014-.813-.461-1.534-.938-2.16zM26.14 27.895c.204-.12.4-.252.59-.393.007.138.011.276.016.415-.182.141-.381.26-.59.356a20.043 20.043 0 0 1-.016-.378zM21.363 29.513c.557-.097 1.11-.22 1.676-.247l.003.267c-1.065.185-2.145.372-3.229.275-.257-.03-.52-.06-.753-.18.769.005 1.543.014 2.303-.115zM27.926 30.307a14.208 14.208 0 0 1 2.858 2.396c.164.128.08.347.06.521-.768-.88-1.655-1.641-2.501-2.444-.152-.146-.307-.293-.417-.473z" fill-rule="nonzero"/><path d="M5.291 41.892c-2.354 0-4.185 1.751-4.185 4.03 0 2.3 1.808 4.074 4.14 4.074 1.126 0 2.275-.515 3.082-1.316l-.796-.893c-.603.584-1.422.95-2.218.95-1.592 0-2.843-1.248-2.843-2.827 0-1.58 1.25-2.816 2.843-2.816.808 0 1.638.389 2.218 1.019l.785-.985a4.38 4.38 0 0 0-3.026-1.236zM15.38 43.14v-1.214H9.693v8.013h5.823v-1.213h-4.481v-2.21h3.89v-1.213h-3.89V43.14h4.345zm6.824 6.799l-1.456-2.427c-.114.012-.239.012-.364.012h-1.888v2.415h-1.342v-8.013h3.23c2.036 0 3.208.996 3.208 2.736 0 1.282-.592 2.186-1.65 2.598l1.786 2.679h-1.524zm-3.708-3.629h1.888c1.229 0 1.934-.526 1.934-1.614 0-1.053-.705-1.556-1.934-1.556h-1.888v3.17zm12.318-3.17v-1.214h-6.38v1.214h2.513v6.799h1.342v-6.8h2.525zm8.053 6.799v-8.013h-1.343v3.48h-4.22v-3.48h-1.341v8.013h1.342v-3.32h4.22v3.32h1.342z"/></g></svg>