<svg width="128" height="128" viewBox="0 0 128 128" xmlns="http://www.w3.org/2000/svg"><title>Img/Browser</title><g fill-rule="nonzero" fill="none"><path d="M122.557 0H5.329C2.398 0 0 2.398 0 5.329v117.228c0 2.93 2.398 5.329 5.329 5.329h117.228c2.93 0 5.329-2.398 5.329-5.33V5.33c0-2.931-2.398-5.329-5.33-5.329z" fill="#84DBFF"/><path fill="#FFF" d="M6.741 30.727h114.564v90.319H6.741z"/><g transform="translate(11.984 10.2)" fill="#40596B"><circle cx="5.067" cy="5.254" r="5.062"/><circle cx="21.586" cy="5.254" r="5.062"/></g><path d="M110.834 10.39H67.14c-2.93 0-5.062 2.399-5.062 5.063 0 2.93 2.398 5.062 5.062 5.062h43.694c2.93 0 5.062-2.398 5.062-5.062 0-2.93-2.398-5.062-5.062-5.062z" fill="#F2F2F2"/><path fill="#FFD15C" d="M13.588 62.078h27.975v27.975H13.588z"/><path fill="#FF7058" d="M86.323 62.078h27.975v27.975H86.323z"/><path fill="#F8B64C" d="M49.822 62.078h27.975v27.975H49.822z"/><g fill="#4CDBC4"><path d="M13.588 43.162h64.209v6.66h-64.21zM41.563 102.309h72.735v6.66H41.563z"/></g></g></svg>