<svg width="128" height="128" viewBox="0 0 128 128" xmlns="http://www.w3.org/2000/svg"><title>Img/Bubble_Red_Beaker</title><g fill="none" fill-rule="evenodd"><circle fill="#F66" cx="64" cy="64" r="64"/><path d="M86.469 37H41.505c-.679 0-1.308.366-1.644.947a1.858 1.858 0 0 0 .008 1.88l6.368 10.84v39.42c0 1.034.852 1.88 1.893 1.88h38.333a1.89 1.89 0 0 0 1.893-1.88V38.88A1.877 1.877 0 0 0 86.47 37zm-1.893 51.205h-34.55V76.929h6.627a1.89 1.89 0 0 0 1.893-1.88c0-1.038-.849-1.88-1.893-1.88h-6.627v-5.166h6.627a1.891 1.891 0 0 0 1.893-1.88c0-1.037-.849-1.88-1.893-1.88h-6.627v-5.167h6.627a1.89 1.89 0 0 0 1.893-1.879c0-1.037-.849-1.88-1.893-1.88h-6.627V50.15c0-.338-.082-.666-.252-.947l-4.967-8.448h39.769v47.45zm-11.124-18.32a2.12 2.12 0 0 1 2.124-2.113c1.176 0 2.131.947 2.131 2.113A2.124 2.124 0 0 1 75.577 72a2.12 2.12 0 0 1-2.125-2.114zm-8.753 5.164a2.352 2.352 0 0 1 2.368-2.349 2.35 2.35 0 0 1 2.366 2.35 2.355 2.355 0 0 1-2.366 2.348 2.354 2.354 0 0 1-2.368-2.349zm6.387 6.112c0-1.946 1.59-3.524 3.552-3.524 1.963 0 3.55 1.578 3.55 3.524 0 1.952-1.591 3.523-3.55 3.523-1.962 0-3.552-1.578-3.552-3.523zM66.11 63.774a2.352 2.352 0 0 1 2.367-2.349 2.352 2.352 0 0 1 2.366 2.35 2.354 2.354 0 0 1-2.366 2.348 2.353 2.353 0 0 1-2.367-2.349zM59.55 82.101a2.293 2.293 0 0 1 2.305-2.283 2.29 2.29 0 0 1 2.301 2.283c0 1.27-1.03 2.29-2.3 2.29a2.302 2.302 0 0 1-2.306-2.29z" fill-rule="nonzero" fill="#FFF"/></g></svg>