<svg width="128" height="128" viewBox="0 0 128 128" xmlns="http://www.w3.org/2000/svg"><title>Img/Bubble_Red_Photos</title><g fill="none" fill-rule="evenodd"><circle fill="#F66" cx="64" cy="64" r="64"/><g fill-rule="nonzero" fill="#FFF"><path d="M64.125 47.312C53.58 47.312 45 55.928 45 66.52c0 10.59 8.58 19.207 19.125 19.207S83.25 77.111 83.25 66.52c0-10.592-8.58-19.208-19.125-19.208zm0 35.357c-8.866 0-16.08-7.245-16.08-16.15 0-8.905 7.213-16.15 16.08-16.15 8.867 0 16.08 7.245 16.08 16.15 0 8.905-7.213 16.15-16.08 16.15z"/><path d="M64.5 54.09c-6.617 0-12 5.407-12 12.053 0 6.646 5.383 12.052 12 12.052s12-5.407 12-12.052-5.383-12.052-12-12.052zm0 21.191c-5.017 0-9.099-4.099-9.099-9.138s4.082-9.138 9.099-9.138 9.099 4.1 9.099 9.138c0 5.039-4.082 9.138-9.099 9.138z"/><path d="M97.157 41.21H77.41l-2.017-5.504A4.136 4.136 0 0 0 71.525 33h-14.05a4.136 4.136 0 0 0-3.868 2.706l-2.017 5.503h-6.71v-2.157a3.154 3.154 0 0 0-3.148-3.153h-4.647a3.155 3.155 0 0 0-3.147 3.153v2.157h-2.095A4.853 4.853 0 0 0 27 46.061v40.087A4.853 4.853 0 0 0 31.843 91h65.314A4.853 4.853 0 0 0 102 86.148V46.061a4.853 4.853 0 0 0-4.843-4.852zm-40.52-4.39a.896.896 0 0 1 .838-.585h14.05c.372 0 .709.235.837.586l1.609 4.388H55.029l1.608-4.388zm-19.632 2.232a.08.08 0 0 1 .08-.08h4.647a.08.08 0 0 1 .08.08v2.157h-4.807v-2.157zM30.229 53.45h4.781V78.76H30.23V53.45zM98.77 86.148c0 .892-.724 1.617-1.614 1.617H31.843c-.89 0-1.614-.725-1.614-1.617v-4.153h6.396c.891 0 1.614-.724 1.614-1.617V51.832c0-.893-.723-1.618-1.614-1.618h-6.396v-4.153c0-.892.724-1.617 1.614-1.617h65.314c.89 0 1.614.725 1.614 1.617v4.153h-6.396c-.891 0-1.614.725-1.614 1.618v28.546c0 .893.723 1.617 1.614 1.617h6.396v4.153zm0-7.388H93.99V53.45h4.781V78.76z"/><path d="M64.526 60.87c-3.323 0-6.026 2.715-6.026 6.052 0 .818.66 1.48 1.474 1.48s1.474-.662 1.474-1.48c0-1.704 1.38-3.09 3.078-3.09.814 0 1.474-.664 1.474-1.481 0-.818-.66-1.48-1.474-1.48z"/></g></g></svg>