<svg width="128" height="128" viewBox="0 0 128 128" xmlns="http://www.w3.org/2000/svg"><title>Img/Bubble_Red_Sensors</title><g fill="none" fill-rule="evenodd"><circle fill="#F66" cx="64" cy="64" r="64"/><g fill-rule="nonzero" fill="#FFF"><path d="M47.983 51.569v25.862c0 .776.517 1.293 1.293 1.293h28.448c.776 0 1.293-.517 1.293-1.293V51.569c0-.776-.517-1.293-1.293-1.293H49.276c-.776 0-1.293.517-1.293 1.293zm2.586 1.293h25.862v23.276H50.569V52.862z"/><path d="M54.448 64.5h6.466v2.586h-6.466zM54.448 69.672h15.517v2.586H54.448z"/><path d="M89.362 56.741c.776 0 1.293-.517 1.293-1.293V51.57H101v-2.586H90.655v-3.88c0-.775-.517-1.293-1.293-1.293h-3.88v-3.879c0-.776-.516-1.293-1.292-1.293h-3.88V27h-2.586v11.638h-3.88c-.775 0-1.292.517-1.292 1.293v3.88h-2.586v-3.88c0-.776-.518-1.293-1.294-1.293h-3.879V27h-2.586v11.638h-3.88c-.775 0-1.293.517-1.293 1.293v3.88h-2.586v-3.88c0-.776-.517-1.293-1.293-1.293h-3.88V27H46.69v11.638h-3.88c-.776 0-1.293.517-1.293 1.293v3.88h-3.88c-.775 0-1.292.517-1.292 1.292v3.88H26v2.586h10.345v3.88c0 .775.517 1.292 1.293 1.292h3.88v1.293h-3.88c-.776 0-1.293.518-1.293 1.294v3.879H26v2.586h10.345v3.88c0 .775.517 1.293 1.293 1.293h3.88v1.293h-3.88c-.776 0-1.293.517-1.293 1.293v3.879H26v2.586h10.345v3.88c0 .775.517 1.293 1.293 1.293h3.88v3.879c0 .776.516 1.293 1.292 1.293h3.88V102h2.586V90.362h3.88c.775 0 1.292-.517 1.292-1.293v-3.88h2.586v3.88c0 .776.518 1.293 1.294 1.293h3.879V102h2.586V90.362h3.88c.775 0 1.293-.517 1.293-1.293v-3.88h2.586v3.88c0 .776.517 1.293 1.293 1.293h3.88V102h2.585V90.362h3.88c.776 0 1.293-.517 1.293-1.293v-3.88h3.88c.775 0 1.292-.517 1.292-1.292v-3.88H101v-2.586H90.655v-3.88c0-.775-.517-1.292-1.293-1.292h-3.88v-1.293h3.88c.776 0 1.293-.518 1.293-1.294v-3.879H101v-2.586H90.655v-3.88c0-.775-.517-1.293-1.293-1.293h-3.88v-1.293h3.88zm-1.293-2.586h-2.586v-7.758h2.586v7.758zm-5.172 1.293v27.155H44.103V46.397h38.794v9.051zm-7.76-14.224h7.76v2.586h-7.76v-2.586zm-15.516 0h7.758v2.586h-7.758v-2.586zm-15.518 0h7.76v2.586h-7.76v-2.586zm-5.172 12.931v-7.758h2.586v7.758h-2.586zm0 14.224v-7.758h2.586v7.758h-2.586zm0 6.466h2.586v7.758h-2.586v-7.758zm12.931 12.93h-7.759V85.19h7.76v2.586zm15.517 0h-7.758V85.19h7.758v2.586zm15.518 0h-7.76V85.19h7.76v2.586zm5.172-12.93v7.758h-2.586v-7.758h2.586zm0-14.224v7.758h-2.586v-7.758h2.586z"/></g></g></svg>