<svg width="128" height="128" viewBox="0 0 128 128" xmlns="http://www.w3.org/2000/svg"><title>Img/Bubble_Red_Data</title><g fill="none" fill-rule="evenodd"><circle fill="#F66" cx="64" cy="64" r="64"/><g fill-rule="nonzero" fill="#FFF"><path d="M94.582 46.103c-4.558 0-8.265 3.698-8.265 8.244 0 1.658.494 3.202 1.342 4.495l-8.93 8.907a8.23 8.23 0 0 0-4.508-1.34 8.233 8.233 0 0 0-4.649 1.432l-9.022-9a8.176 8.176 0 0 0 1.342-4.494c0-4.546-3.708-8.244-8.265-8.244-4.558 0-8.266 3.698-8.266 8.244 0 1.657.495 3.2 1.342 4.494l-8.93 8.907a8.23 8.23 0 0 0-4.507-1.338c-4.558 0-8.266 3.698-8.266 8.243 0 4.546 3.708 8.244 8.266 8.244 4.557 0 8.265-3.698 8.265-8.244a8.177 8.177 0 0 0-1.342-4.495l8.93-8.907a8.23 8.23 0 0 0 4.508 1.34 8.23 8.23 0 0 0 4.507-1.34l9.072 9.05a8.177 8.177 0 0 0-1.25 4.352c0 4.546 3.708 8.244 8.265 8.244 4.558 0 8.266-3.698 8.266-8.244a8.177 8.177 0 0 0-1.342-4.495l8.93-8.906a8.23 8.23 0 0 0 4.507 1.338c4.558 0 8.266-3.698 8.266-8.243 0-4.546-3.708-8.244-8.266-8.244zM33.266 79.49c-2.674 0-4.85-2.17-4.85-4.836 0-2.666 2.176-4.836 4.85-4.836 2.673 0 4.849 2.17 4.849 4.836 0 2.667-2.175 4.836-4.85 4.836zm20.36-20.306c-2.673 0-4.848-2.17-4.848-4.836 0-2.667 2.175-4.837 4.849-4.837 2.674 0 4.849 2.17 4.849 4.837 0 2.666-2.175 4.836-4.85 4.836zm20.595 20.306c-2.674 0-4.849-2.17-4.849-4.836 0-2.667 2.175-4.836 4.85-4.836 2.673 0 4.848 2.17 4.848 4.836 0 2.667-2.175 4.836-4.849 4.836zm20.361-20.306c-2.674 0-4.849-2.17-4.849-4.836 0-2.667 2.175-4.837 4.85-4.837 2.673 0 4.848 2.17 4.848 4.837 0 2.666-2.175 4.836-4.849 4.836z"/><path d="M51.878 67.035a1.712 1.712 0 0 0-2.416 0l-3.475 3.466a1.705 1.705 0 1 0 1.208 2.908c.437 0 .875-.167 1.208-.5l3.475-3.465a1.7 1.7 0 0 0 0-2.409zM81.86 56.15a1.712 1.712 0 0 0-2.416 0l-3.475 3.466a1.7 1.7 0 0 0 0 2.41c.334.332.77.499 1.208.499.437 0 .874-.167 1.208-.5l3.475-3.465a1.7 1.7 0 0 0 0-2.41z"/></g></g></svg>