<?xml version="1.0" encoding="UTF-8"?>
<svg width="24px" height="24px" viewBox="0 0 24 24" version="1.1" xmlns="http://www.w3.org/2000/svg" xmlns:xlink="http://www.w3.org/1999/xlink">
    <!-- Generator: sketchtool 42 (36781) - http://www.bohemiancoding.com/sketch -->
    <title>37DE703F-9A97-4B37-8CB0-5F1C57986017</title>
    <desc>Created with sketchtool.</desc>
    <defs>
        <circle id="path-1" cx="9" cy="7" r="3"></circle>
        <mask id="mask-2" maskContentUnits="userSpaceOnUse" maskUnits="objectBoundingBox" x="-2" y="-2" width="10" height="10">
            <rect x="4" y="2" width="10" height="10" fill="white"></rect>
            <use xlink:href="#path-1" fill="black"></use>
        </mask>
        <path d="M0.9957349,0 L14,0 L14,13 L1.49876335,13 L3.99752671,13 C6.20340898,13 8,11.2055291 8,8.99707067 L8,5.00591905 C8,2.23353969 5.76147872,0 2.9914698,0 L0.9957349,0 Z" id="path-3"></path>
        <path d="M0,14 L15,14 L15,0 L0,0 C3.86599325,0 7,3.13400675 7,7 C7,10.8659932 3.86599325,14 0,14 Z" id="path-5"></path>
        <circle id="path-7" cx="7" cy="7" r="3"></circle>
        <mask id="mask-8" maskContentUnits="userSpaceOnUse" maskUnits="objectBoundingBox" x="-2" y="-2" width="10" height="10">
            <rect x="2" y="2" width="10" height="10" fill="white"></rect>
            <use xlink:href="#path-7" fill="black"></use>
        </mask>
    </defs>
    <g id="Symbols" stroke="none" stroke-width="1" fill="none" fill-rule="evenodd">
        <g id="Icons/Icon_Tab_SocialFeed_Inactive">
            <use id="Oval-7" stroke="#FFFFFF" mask="url(#mask-2)" stroke-width="4" xlink:href="#path-1"></use>
            <path d="M3,16.0059191 C3,14.8980806 3.90195036,14 5.0085302,14 L12.9914698,14 C14.1007504,14 15,14.8865548 15,16.0059191 L15,19.9970707 C15,20.5509732 14.544239,21 13.9975267,21 L4.00247329,21 C3.44882258,21 3,20.5621186 3,19.9970707 L3,16.0059191 Z" id="Rectangle" stroke="#FFFFFF" stroke-width="2"></path>
            <g id="Group-3" transform="translate(10.000000, 11.000000)">
                <mask id="mask-4" fill="white">
                    <use xlink:href="#path-3"></use>
                </mask>
                <g id="Combined-Shape"></g>
                <path d="M0,5.00591905 C0,3.89808055 0.901950359,3 2.0085302,3 L9.9914698,3 C11.1007504,3 12,3.88655484 12,5.00591905 L12,8.99707067 C12,9.55097324 11.544239,10 10.9975267,10 L1.00247329,10 C0.448822582,10 0,9.56211865 0,8.99707067 L0,5.00591905 Z" id="Rectangle-Copy" stroke="#FFFFFF" stroke-width="2" mask="url(#mask-4)"></path>
            </g>
            <g id="Group-2" transform="translate(9.000000, 0.000000)">
                <mask id="mask-6" fill="white">
                    <use xlink:href="#path-5"></use>
                </mask>
                <g id="Combined-Shape"></g>
                <g id="Oval-7-Copy" mask="url(#mask-6)" stroke-width="4" stroke="#FFFFFF">
                    <use mask="url(#mask-8)" xlink:href="#path-7"></use>
                </g>
            </g>
        </g>
    </g>
</svg>