<svg xmlns="http://www.w3.org/2000/svg" xmlns:xlink="http://www.w3.org/1999/xlink" width="130" height="130" viewBox="0 0 130 130">
    <defs>
        <path id="a" d="M0 0v130h130V0H0z"/>
    </defs>
    <g fill="none" fill-rule="evenodd">
        <mask id="b" fill="#fff">
            <use xlink:href="#a"/>
        </mask>
        <path fill="#00A3AC" d="M77.342 31.78c-2.308 0-4.401.822-6.058 2.38a1.84 1.84 0 0 0-.582 1.288 1.847 1.847 0 0 0 3.103 1.409c.975-.917 2.165-1.383 3.537-1.383 9.234 0 14.24 9.341 14.438 9.718.033.073.078.146.144.247.078.123.336.522.716 1.158l-1.851 1.856a1.859 1.859 0 0 0 .003 2.613c.706.703 1.925.69 2.606 0l1.118-1.118c3.058 5.838 7.808 16.727 7.808 28.041 0 12.497-1.971 18.317-6.203 18.317-3.185 0-6.11-.087-8.707-.256l1.962-1.965c.349-.35.54-.815.54-1.308 0-.495-.192-.958-.54-1.305a1.828 1.828 0 0 0-1.303-.544h-.001c-.492 0-.956.193-1.303.543l-4.108 4.115c-10.64-1.428-11.527-4.688-11.527-8.188v-.84h6.208a1.849 1.849 0 0 0 1.845-1.848 1.849 1.849 0 0 0-1.845-1.847h-.914l2.22-2.225a1.862 1.862 0 0 0-.001-2.61 1.835 1.835 0 0 0-1.306-.543h-.002c-.492 0-.956.192-1.304.542l-4.826 4.836h-.075v-15.83l4.349-2.178a1.858 1.858 0 0 0 .824-2.485 1.852 1.852 0 0 0-2.475-.823L71.134 62.9V45.726a1.848 1.848 0 0 0-1.843-1.848 1.849 1.849 0 0 0-1.845 1.848v41.672c0 9.306 7.503 12.604 28.675 12.604 8.769 0 9.894-11.764 9.894-22.013 0-17.219-9.791-32.722-10.982-34.543-.678-1.302-6.435-11.667-17.691-11.667M96.12 75.803c.49 0 .953-.19 1.306-.54a1.854 1.854 0 0 0-.002-2.613l-2.684-2.686a1.818 1.818 0 0 0-1.3-.545h-.004c-.492 0-.956.193-1.307.545a1.858 1.858 0 0 0 0 2.612l2.685 2.687c.348.35.812.54 1.306.54m-60.33-5.84l-2.68 2.686c-.35.347-.542.81-.543 1.303-.001.495.19.961.54 1.31.348.35.81.541 1.305.541.495 0 .959-.192 1.304-.54l2.684-2.688c.349-.35.54-.815.54-1.307a1.83 1.83 0 0 0-.54-1.304c-.697-.703-1.912-.704-2.61 0m25.45-26.086a1.848 1.848 0 0 0-1.843 1.847V62.9l-2.696-1.35a1.848 1.848 0 0 0-2.477.826 1.855 1.855 0 0 0 .826 2.48l4.347 2.177v15.831h-.073l-4.827-4.835c-.698-.702-1.912-.702-2.61 0a1.855 1.855 0 0 0 0 2.612l2.218 2.223h-.913a1.848 1.848 0 0 0 0 3.694h6.205v.841c0 3.5-.887 6.76-11.525 8.188l-4.107-4.114c-.697-.703-1.914-.702-2.608 0a1.828 1.828 0 0 0-.541 1.305c0 .493.192.957.54 1.31l1.96 1.963c-2.59.17-5.512.255-8.704.255-4.233 0-6.204-5.82-6.204-18.316 0-11.309 4.75-22.2 7.81-28.039l1.114 1.113c.69.7 1.91.702 2.608.002.349-.349.54-.813.54-1.307a1.84 1.84 0 0 0-.54-1.306l-1.848-1.855c.436-.73.708-1.147.737-1.19.04-.06.078-.127.113-.194.05-.098 5.048-9.739 14.45-9.739 1.345 0 2.517.45 3.482 1.334a1.847 1.847 0 0 0 2.49-2.727c-1.64-1.506-3.706-2.302-5.972-2.302-11.342 0-17.087 10.494-17.68 11.646C34.39 45.14 24.52 60.673 24.52 77.99c0 10.25 1.124 22.013 9.893 22.013 21.17 0 28.673-3.298 28.673-12.604V45.726a1.848 1.848 0 0 0-1.844-1.848m16.1 5.04c.488 0 .95-.19 1.306-.542a1.864 1.864 0 0 0-.001-2.614L67.112 34.206V20.184a1.85 1.85 0 0 0-1.845-1.849 1.849 1.849 0 0 0-1.845 1.85v14.021L51.889 45.762a1.856 1.856 0 0 0 0 2.616c.719.72 1.89.72 2.608 0l10.77-10.794 10.768 10.793c.349.35.813.54 1.307.54m40.546 46.42c-5.9 10.22-13.26 17.935-21.875 22.931-8.851 5.132-19.483 7.845-30.746 7.845-10.993 0-21.59-2.775-30.643-8.024-9.23-5.35-16.97-13.137-22.385-22.516-5.47-9.475-8.36-20.083-8.36-30.678 0-10.86 2.83-21.503 8.186-30.779 5.469-9.47 13.226-17.299 22.43-22.637 8.568-4.967 19.209-7.592 30.772-7.592 11.12 0 21.703 2.727 30.6 7.887 9.319 5.401 17.075 13.161 22.433 22.441 5.117 8.862 7.82 19.471 7.82 30.68 0 10.738-2.768 20.98-8.232 30.442m3.77-63.069c-5.698-9.867-13.944-18.117-23.846-23.859C88.322 2.907 77.07 0 65.267 0 53.022 0 41.71 2.806 32.553 8.115 22.76 13.792 14.516 22.11 8.708 32.17 3.01 42.035 0 53.352 0 64.895c0 11.278 3.07 22.56 8.882 32.625 5.754 9.966 13.984 18.242 23.8 23.934 9.642 5.591 20.91 8.546 32.585 8.546 11.944 0 23.248-2.894 32.689-8.367 9.21-5.34 17.046-13.533 23.29-24.349C127.055 87.222 130 76.326 130 64.895c0-11.892-2.885-23.174-8.342-32.627" mask="url(#b)"/>
    </g>
</svg>
