<?xml version="1.0" encoding="UTF-8"?>
<svg width="24px" height="24px" viewBox="0 0 24 24" version="1.1" xmlns="http://www.w3.org/2000/svg" xmlns:xlink="http://www.w3.org/1999/xlink">
    <!-- Generator: sketchtool 42 (36781) - http://www.bohemiancoding.com/sketch -->
    <title>4E46F13E-EC1F-4BC4-B472-59B354F1C23C</title>
    <desc>Created with sketchtool.</desc>
    <defs></defs>
    <g id="Symbols" stroke="none" stroke-width="1" fill="none" fill-rule="evenodd" stroke-linecap="round">
        <g id="Icons/Icon_Tab_Home_Inactive" stroke="#FFFFFF" stroke-width="2">
            <polyline id="Path-2" stroke-linejoin="round" points="1 13 12 2 23 13"></polyline>
            <path d="M5,13 L5,22.0046024 C5,22.5543453 5.44371665,23 5.99980749,23 L9.00019251,23 C9.55237094,23 10,22.5469637 10,22.0029699 L10,15.9970301 C10,15.4463856 10.4433532,15 11.0093689,15 L12.9906311,15 C13.5480902,15 14,15.4530363 14,15.9970301 L14,22.0029699 C14,22.5536144 14.4437166,23 14.9998075,23 L18.0001925,23 C18.5523709,23 19,22.5443356 19,22.0046024 L19,13" id="Path-3"></path>
        </g>
    </g>
</svg>