<?xml version="1.0" encoding="UTF-8"?>
<svg width="24px" height="24px" viewBox="0 0 24 24" version="1.1" xmlns="http://www.w3.org/2000/svg" xmlns:xlink="http://www.w3.org/1999/xlink">
    <!-- Generator: sketchtool 42 (36781) - http://www.bohemiancoding.com/sketch -->
    <title>364983AE-BC01-4EE6-9753-06C2F5C63780</title>
    <desc>Created with sketchtool.</desc>
    <defs></defs>
    <g id="Symbols" stroke="none" stroke-width="1" fill="none" fill-rule="evenodd">
        <g id="Icons/Icon_Tab_Home_Active" fill-rule="nonzero" fill="#FFFFFF">
            <path d="M10,16.007484 L10,22.992516 C10,23.5489341 9.54902482,24 9.00922203,24 L4.99077797,24 C4.44358641,24 4,23.5510798 4,22.992516 L4,13.4142136 L2.70710678,14.7071068 C2.31658249,15.0976311 1.68341751,15.0976311 1.29289322,14.7071068 L0.292893219,13.7071068 C-0.0976310729,13.3165825 -0.0976310729,12.6834175 0.292893219,12.2928932 L11.2928932,1.29289322 C11.6834175,0.902368927 12.3165825,0.902368927 12.7071068,1.29289322 L23.7071068,12.2928932 C24.0976311,12.6834175 24.0976311,13.3165825 23.7071068,13.7071068 L22.7071068,14.7071068 C22.3165825,15.0976311 21.6834175,15.0976311 21.2928932,14.7071068 L20,13.4142136 L20,22.992516 C20,23.5489341 19.5490248,24 19.009222,24 L14.990778,24 C14.4435864,24 14,23.5510798 14,22.992516 L14,16.007484 C14,15.4489202 13.5480902,15 12.9906311,15 L11.0093689,15 C10.4433532,15 10,15.4510659 10,16.007484 Z" id="Combined-Shape"></path>
        </g>
    </g>
</svg>