<?xml version="1.0" encoding="UTF-8" standalone="no"?>
<svg
   xmlns:dc="http://purl.org/dc/elements/1.1/"
   xmlns:cc="http://creativecommons.org/ns#"
   xmlns:rdf="http://www.w3.org/1999/02/22-rdf-syntax-ns#"
   xmlns:svg="http://www.w3.org/2000/svg"
   xmlns="http://www.w3.org/2000/svg"
   xmlns:sodipodi="http://sodipodi.sourceforge.net/DTD/sodipodi-0.dtd"
   xmlns:inkscape="http://www.inkscape.org/namespaces/inkscape"
   width="16px"
   height="17px"
   viewBox="0 0 16 17"
   version="1.1"
   id="svg13"
   sodipodi:docname="shiny-key.svg"
   inkscape:version="0.91 r13725">
  <metadata
     id="metadata17">
    <rdf:RDF>
      <cc:Work
         rdf:about="">
        <dc:format>image/svg+xml</dc:format>
        <dc:type
           rdf:resource="http://purl.org/dc/dcmitype/StillImage" />
      </cc:Work>
    </rdf:RDF>
  </metadata>
  <sodipodi:namedview
     pagecolor="#ffffff"
     bordercolor="#666666"
     borderopacity="1"
     objecttolerance="10"
     gridtolerance="10"
     guidetolerance="10"
     inkscape:pageopacity="0"
     inkscape:pageshadow="2"
     inkscape:window-width="1920"
     inkscape:window-height="1017"
     id="namedview15"
     showgrid="false"
     inkscape:snap-global="false"
     inkscape:zoom="2"
     inkscape:cx="-98.359564"
     inkscape:cy="31.772915"
     inkscape:window-x="0"
     inkscape:window-y="30"
     inkscape:window-maximized="1"
     inkscape:current-layer="svg13" />
  <!-- Generator: sketchtool 42 (36781) - http://www.bohemiancoding.com/sketch -->
  <title
     id="title2">DA916D2D-6769-496C-89E5-E7B0E2AC7B60</title>
  <desc
     id="desc4">Created with sketchtool.</desc>
  <defs
     id="defs6" />
  <g
     id="Mobile-Screens"
     stroke="none"
     stroke-width="1"
     fill="none"
     fill-rule="evenodd">
    <g
       id="Screen04_Register"
       transform="translate(-61.000000, -297.000000)"
       fill="#FF6666">
      <g
         id="Group-6"
         transform="translate(20.000000, 40.000000)">
        <g
           id="Group-3"
           transform="translate(39.000000, 95.000000)">
          <path
             d="M10.3670307,168.198849 C9.67630753,166.237827 7.82341483,164.926045 5.74430341,164.926122 C3.03612159,164.926122 0.835212502,167.127031 0.835212502,169.835213 C0.835212502,172.543394 3.03612159,174.744303 5.74430341,174.744303 C7.82341483,174.74438 9.67630753,173.432598 10.3670307,171.471576 L13.9261216,171.471576 L13.9261216,174.744303 L17.1988489,174.744303 L17.1988489,171.471576 L18.8352125,171.471576 L18.8352125,168.198849 L10.3670307,168.198849 Z M5.74430341,171.471576 C4.84430341,171.471576 4.10793977,170.735213 4.10793977,169.835213 C4.10793977,168.935213 4.84430341,168.198849 5.74430341,168.198849 C6.64430341,168.198849 7.38066705,168.935213 7.38066705,169.835213 C7.38066705,170.735213 6.64430341,171.471576 5.74430341,171.471576 Z"
             id="Icons/Icon_Password"
             transform="translate(9.835213, 169.835213) rotate(-315.000000) translate(-9.835213, -169.835213) " />
        </g>
      </g>
    </g>
  </g>
  <path
     sodipodi:type="star"
     style="fill:#ffffff;fill-opacity:1;stroke:#d4aa00;stroke-width:1;stroke-miterlimit:4;stroke-dasharray:none;stroke-opacity:1"
     id="path4495"
     sodipodi:sides="4"
     sodipodi:cx="10.494162"
     sodipodi:cy="4.5868645"
     sodipodi:r1="3.5142646"
     sodipodi:r2="1.2899559"
     sodipodi:arg1="0.78539816"
     sodipodi:arg2="1.5707963"
     inkscape:flatsided="false"
     inkscape:rounded="0"
     inkscape:randomized="0"
     d="M 12.979122,7.0718248 10.494162,5.8768203 8.0092013,7.0718248 9.2042058,4.5868645 8.0092013,2.1019042 10.494162,3.2969086 12.979122,2.1019041 11.784117,4.5868644 Z"
     inkscape:transform-center-x="0.22075983"
     inkscape:transform-center-y="0.20162806"
     transform="rotate(-45.654958,11.255315,4.2354792)" />
  <path
     sodipodi:type="star"
     style="fill:#ffffff;fill-opacity:1;stroke:#d4aa00;stroke-width:1;stroke-miterlimit:4;stroke-dasharray:none;stroke-opacity:1"
     id="path4495-6"
     sodipodi:sides="4"
     sodipodi:cx="5.5546603"
     sodipodi:cy="13.385539"
     sodipodi:r1="2.9268279"
     sodipodi:r2="1.0278157"
     sodipodi:arg1="0.78539816"
     sodipodi:arg2="1.5707963"
     inkscape:flatsided="false"
     inkscape:rounded="0"
     inkscape:randomized="0"
     d="m 7.6242402,15.455119 -2.0695799,-1.041764 -2.0695798,1.041764 1.0417641,-2.06958 -1.0417641,-2.06958 2.0695798,1.041764 2.0695799,-1.041764 -1.0417642,2.06958 z"
     inkscape:transform-center-x="0.19101203"
     inkscape:transform-center-y="0.0052860165"
     transform="matrix(0.65634111,-0.69370533,0.69370533,0.65634111,-8.6156491,7.7520953)" />
</svg>
