<?xml version="1.0" encoding="UTF-8"?>
<svg width="24px" height="24px" viewBox="0 0 24 24" version="1.1" xmlns="http://www.w3.org/2000/svg" xmlns:xlink="http://www.w3.org/1999/xlink">
    <!-- Generator: sketchtool 42 (36781) - http://www.bohemiancoding.com/sketch -->
    <title>5C419887-5694-4026-A1A4-26D1ADCD6473</title>
    <desc>Created with sketchtool.</desc>
    <defs>
        <circle id="path-1" cx="11.5" cy="13.5" r="3.5"></circle>
        <mask id="mask-2" maskContentUnits="userSpaceOnUse" maskUnits="objectBoundingBox" x="-2" y="-2" width="11" height="11">
            <rect x="6" y="8" width="11" height="11" fill="white"></rect>
            <use xlink:href="#path-1" fill="black"></use>
        </mask>
    </defs>
    <g id="Symbols" stroke="none" stroke-width="1" fill="none" fill-rule="evenodd">
        <g id="Icons/Icon_Tab_Camera_Inactive" stroke="#FFFFFF">
            <path d="M6,6 L2.00246167,6 C1.43945834,6 1,6.45106594 1,7.00748397 L1,19.992516 C1,20.5510798 1.44881738,21 2.00246167,21 L21.9975383,21 C22.5605417,21 23,20.5489341 23,19.992516 L23,7.00748397 C23,6.44892021 22.5511826,6 21.9975383,6 L12,6 L12,5.0093689 C12,4.44335318 11.5564136,4 11.009222,4 L6.99077797,4 C6.45097518,4 6,4.45190985 6,5.0093689 L6,6 Z" id="Combined-Shape" stroke-width="2"></path>
            <use id="Oval" mask="url(#mask-2)" stroke-width="4" xlink:href="#path-1"></use>
        </g>
    </g>
</svg>