<svg xmlns="http://www.w3.org/2000/svg" width="20" height="20" viewBox="0 0 20 20">
    <path fill="#00A3AC" fill-rule="evenodd" d="M16.934 6.889l-2.57-2.57v.813a.67.67 0 0 1-.674.674c-2.1 0-3.719.553-4.822 1.644a5.105 5.105 0 0 0-1.074 1.576c1.595-.934 3.609-1.102 4.847-1.102.639 0 1.062.045 1.125.052a.67.67 0 0 1 .598.67v.812l2.57-2.57zm-2.745 4.688a.7.7 0 0 1-.752.15.679.679 0 0 1-.43-.624V9.281c-1.356-.038-4.618.096-5.793 2.153a.683.683 0 0 1-.765.322.676.676 0 0 1-.512-.65c0-.108.008-2.677 1.96-4.608 1.241-1.227 2.906-1.906 5.11-2.022V2.674c0-.273.173-.52.43-.623a.695.695 0 0 1 .75.15l4.215 4.214a.667.667 0 0 1 .002.947l-4.215 4.215zM16 15.334c0 .43-.362.666-.79.666H2.696C2.269 16 2 15.764 2 15.334V5.809c0-.43.269-.809.696-.809h2.247a.77.77 0 0 1 .774.772.77.77 0 0 1-.774.772H3.534v7.912h10.932v-.094c0-.43.34-.78.767-.78a.77.77 0 0 1 .767.78v.972z"/>
</svg>
