<svg xmlns="http://www.w3.org/2000/svg" xmlns:xlink="http://www.w3.org/1999/xlink" width="130" height="130" viewBox="0 0 130 130">
    <defs>
        <path id="a" d="M0 0h130v130H0V0z"/>
    </defs>
    <g fill="none" fill-rule="evenodd">
        <mask id="b" fill="#fff">
            <use xlink:href="#a"/>
        </mask>
        <path fill="#00A3AC" d="M96.266 69.96c-1.407 0-1.407 2.188 0 2.188s1.407-2.187 0-2.187m6.465 3.732c-2.44 0-2.44 3.79 0 3.79 2.438 0 2.438-3.79 0-3.79m15.156 21.644c-5.899 10.22-13.259 17.936-21.875 22.932-8.85 5.13-19.482 7.843-30.746 7.843-10.993 0-21.589-2.774-30.643-8.023-9.229-5.351-16.969-13.137-22.384-22.516-5.47-9.474-8.36-20.083-8.36-30.677 0-10.861 2.83-21.504 8.185-30.78 5.47-9.471 13.226-17.3 22.431-22.636 8.567-4.967 19.208-7.593 30.771-7.593 11.121 0 21.703 2.727 30.602 7.886 9.317 5.403 17.073 13.163 22.431 22.442 5.117 8.862 7.821 19.47 7.821 30.68 0 10.738-2.769 20.98-8.233 30.442m3.771-63.068C115.96 22.4 107.713 14.15 97.811 8.409 88.323 2.908 77.07-.001 65.266-.001 53.021 0 41.71 2.807 32.553 8.116 22.761 13.793 14.515 22.11 8.707 32.17 3.011 42.036 0 53.353 0 64.896 0 76.173 3.071 87.455 8.881 97.52c5.755 9.965 13.984 18.242 23.8 23.933 9.643 5.59 20.911 8.546 32.585 8.546 11.944 0 23.248-2.893 32.69-8.366 9.21-5.342 17.045-13.533 23.29-24.35 5.808-10.061 8.753-20.958 8.753-32.388 0-11.893-2.884-23.175-8.34-32.627m-.119 24.75a2.056 2.056 0 0 0-2.033-1.75c-27.22.12-41.12 8.09-54.563 15.8-11.139 6.386-21.659 12.416-39.535 14.507a2.059 2.059 0 0 0-1.805 2.284 2.058 2.058 0 0 0 2.281 1.812c18.711-2.19 30.093-8.715 41.101-15.027 13.264-7.602 25.804-14.796 50.727-15.233.24 2.038.36 4.103.36 6.162a52.243 52.243 0 0 1-12.587 33.993 2.067 2.067 0 0 0 .218 2.909 2.054 2.054 0 0 0 2.902-.22 56.37 56.37 0 0 0 13.581-36.682c0-2.864-.217-5.743-.647-8.554M96.79 84.456a1.458 1.458 0 0 1 0 2.915 1.457 1.457 0 0 1 0-2.915m-3.393 1.458a3.401 3.401 0 0 0 3.393 3.4 3.402 3.402 0 0 0 0-6.801 3.4 3.4 0 0 0-3.393 3.4m-4.803-46.37c.434 0 .864.056 1.281.16 1.016.258 2.043-.374 2.303-1.414.777-3.133 3.522-5.321 6.673-5.321 3.153 0 5.897 2.188 6.675 5.32.26 1.04 1.287 1.673 2.303 1.416.416-.105.847-.16 1.28-.16 2.267 0 4.21 1.464 4.977 3.52H83.618c.768-2.056 2.71-3.52 4.976-3.52m-7.233 7.435h34.981c1.05 0 1.904-.877 1.904-1.957 0-5.18-4.099-9.392-9.137-9.392-.15 0-.302.006-.452.012-1.676-3.952-5.496-6.588-9.806-6.588-4.309 0-8.128 2.636-9.804 6.588-.15-.006-.302-.012-.453-.012-5.038 0-9.138 4.213-9.138 9.392 0 1.08.851 1.957 1.905 1.957M55.114 11.942a2.843 2.843 0 0 1 0 5.686 2.844 2.844 0 0 1 0-5.686m0 8.555c3.141 0 5.697-2.562 5.697-5.71s-2.556-5.71-5.697-5.71c-3.14 0-5.698 2.562-5.698 5.71s2.557 5.71 5.698 5.71m-29.627 14.75h17.826a1.84 1.84 0 0 0 0-3.68h-15.61a4.648 4.648 0 0 1 5.36-2.658 1.835 1.835 0 0 0 2.213-1.33 6.015 6.015 0 0 1 11.661.002 1.842 1.842 0 0 0 2.216 1.328 4.663 4.663 0 0 1 5.361 2.658h-5.797a1.84 1.84 0 0 0 0 3.68h8.01a1.838 1.838 0 0 0 1.835-1.837c0-4.691-3.915-8.465-8.615-8.308a9.634 9.634 0 0 0-8.84-5.735 9.637 9.637 0 0 0-8.842 5.734 11.253 11.253 0 0 0-.319-.005c-4.574 0-8.295 3.729-8.295 8.314 0 1.013.824 1.837 1.836 1.837m72.418 69.93a52.008 52.008 0 0 1-33.925 12.617c-28.732 0-52.109-23.425-52.109-52.22 0-2.06.122-4.124.362-6.162 20.252.363 32.337 5.283 42.37 10.575a2.055 2.055 0 0 0 2.78-.864 2.065 2.065 0 0 0-.863-2.785c-10.79-5.69-23.843-10.971-46.074-11.07a2.06 2.06 0 0 0-2.042 1.75 56.939 56.939 0 0 0-.647 8.556c0 31.068 25.222 56.343 56.223 56.343a56.117 56.117 0 0 0 36.606-13.611 2.066 2.066 0 0 0 .22-2.907 2.053 2.053 0 0 0-2.9-.221" mask="url(#b)"/>
    </g>
</svg>
