<?xml version="1.0" encoding="UTF-8"?>
<svg width="14px" height="14px" viewBox="0 0 14 14" version="1.1" xmlns="http://www.w3.org/2000/svg" xmlns:xlink="http://www.w3.org/1999/xlink">
    <!-- Generator: sketchtool 42 (36781) - http://www.bohemiancoding.com/sketch -->
    <title>8BC9E015-DDF2-4CFC-AB16-8685BDB65451</title>
    <desc>Created with sketchtool.</desc>
    <defs></defs>
    <g id="Mobile-Screens" stroke="none" stroke-width="1" fill="none" fill-rule="evenodd">
        <g id="Screen04_Register" transform="translate(-62.000000, -379.000000)" fill="#FF6666">
            <g id="Group-6" transform="translate(20.000000, 40.000000)">
                <g id="Group-3" transform="translate(39.000000, 95.000000)">
                    <path d="M14.942464,246.056251 C13.633647,244.739331 11.8528916,243.999126 9.99562226,244.000001 C6.12570356,244.000001 3,247.132501 3,251 C3,254.8675 6.12570356,258 9.99562226,258 C13.2614134,258 15.9843652,255.76875 16.7636023,252.75 L14.942464,252.75 C14.203312,254.847204 12.220507,256.250082 9.99562226,256.25 C7.09756098,256.25 4.74233896,253.89625 4.74233896,251 C4.74233896,248.103751 7.09756098,245.750001 9.99562226,245.750001 C11.4490306,245.750001 12.7448405,246.353751 13.6904315,247.307501 L10.8711695,250.125 L17,250.125 L17,244.000001 L14.942464,246.056251 Z" id="Icons/Icon_Repeat"></path>
                </g>
            </g>
        </g>
    </g>
</svg>