<?xml version="1.0" encoding="UTF-8"?>
<svg width="16px" height="17px" viewBox="0 0 16 17" version="1.1" xmlns="http://www.w3.org/2000/svg" xmlns:xlink="http://www.w3.org/1999/xlink">
    <!-- Generator: sketchtool 42 (36781) - http://www.bohemiancoding.com/sketch -->
    <title>DA916D2D-6769-496C-89E5-E7B0E2AC7B60</title>
    <desc>Created with sketchtool.</desc>
    <defs></defs>
    <g id="Mobile-Screens" stroke="none" stroke-width="1" fill="none" fill-rule="evenodd">
        <g id="Screen04_Register" transform="translate(-61.000000, -297.000000)" fill="#FF6666">
            <g id="Group-6" transform="translate(20.000000, 40.000000)">
                <g id="Group-3" transform="translate(39.000000, 95.000000)">
                    <path d="M10.3670307,168.198849 C9.67630753,166.237827 7.82341483,164.926045 5.74430341,164.926122 C3.03612159,164.926122 0.835212502,167.127031 0.835212502,169.835213 C0.835212502,172.543394 3.03612159,174.744303 5.74430341,174.744303 C7.82341483,174.74438 9.67630753,173.432598 10.3670307,171.471576 L13.9261216,171.471576 L13.9261216,174.744303 L17.1988489,174.744303 L17.1988489,171.471576 L18.8352125,171.471576 L18.8352125,168.198849 L10.3670307,168.198849 Z M5.74430341,171.471576 C4.84430341,171.471576 4.10793977,170.735213 4.10793977,169.835213 C4.10793977,168.935213 4.84430341,168.198849 5.74430341,168.198849 C6.64430341,168.198849 7.38066705,168.935213 7.38066705,169.835213 C7.38066705,170.735213 6.64430341,171.471576 5.74430341,171.471576 Z" id="Icons/Icon_Password" transform="translate(9.835213, 169.835213) rotate(-315.000000) translate(-9.835213, -169.835213) "></path>
                </g>
            </g>
        </g>
    </g>
</svg>