<?xml version="1.0" encoding="UTF-8"?>
<svg width="14px" height="17px" viewBox="0 0 14 17" version="1.1" xmlns="http://www.w3.org/2000/svg" xmlns:xlink="http://www.w3.org/1999/xlink">
    <!-- Generator: sketchtool 42 (36781) - http://www.bohemiancoding.com/sketch -->
    <title>FDE47E7C-42EE-473F-AE1E-B23117F6F8AF</title>
    <desc>Created with sketchtool.</desc>
    <defs></defs>
    <g id="Mobile-Screens" stroke="none" stroke-width="1" fill="none" fill-rule="evenodd">
        <g id="Screen04_Register" transform="translate(-61.000000, -135.000000)" fill="#FF6666">
            <g id="Group-6" transform="translate(20.000000, 40.000000)">
                <g id="Group-3" transform="translate(39.000000, 95.000000)">
                    <path d="M9,0 C10.9366667,0 12.5,1.51866667 12.5,3.4 C12.5,5.28133333 10.9366667,6.8 9,6.8 C7.06333333,6.8 5.5,5.28133333 5.5,3.4 C5.5,1.51866667 7.06333333,0 9,0 Z M9,16.0933333 C6.18454763,16.093346 3.5563195,14.7231631 2,12.444 C2.035,10.1886667 6.66666667,8.95333333 9,8.95333333 C11.3216667,8.95333333 15.965,10.1886667 16,12.444 C14.4436805,14.7231631 11.8154524,16.093346 9,16.0933333 Z" id="Icons/Icon_User"></path>
                </g>
            </g>
        </g>
    </g>
</svg>