<?xml version="1.0" encoding="UTF-8"?>
<svg width="276px" height="247px" viewBox="0 0 276 247" version="1.1" xmlns="http://www.w3.org/2000/svg" xmlns:xlink="http://www.w3.org/1999/xlink">
    <!-- Generator: sketchtool 42 (36781) - http://www.bohemiancoding.com/sketch -->
    <title>14621D5C-8024-427B-8435-96DDA92CA97E</title>
    <desc>Created with sketchtool.</desc>
    <defs>
        <path d="M0,89.4 L0,0 L276,0 L276,89.4 L0,89.4 Z M0,262.8 L0,173.4 L276,173.4 L276,262.8 L0,262.8 Z" id="path-1"></path>
    </defs>
    <g id="Mobile-Screens" stroke="none" stroke-width="1" fill="none" fill-rule="evenodd">
        <g id="Screen01_WelcomeA" transform="translate(-42.000000, -138.000000)">
            <g id="Img/Logo_hackAIR_Large_LightBG" transform="translate(30.000000, 105.000000)">
                <g id="Group-2" transform="translate(12.000000, 18.600000)">
                    <g id="Group">
                        <mask id="mask-2" fill="white">
                            <use xlink:href="#path-1"></use>
                        </mask>
                        <g id="Combined-Shape"></g>
                        <polygon id="Path-2" fill="#FF5958" mask="url(#mask-2)" points="55.2 91.2 54.6 79.2 57.6 63.6 64.8 48 76.8 37.8 81 30 94.8 20.4 104.4 19.2 109.2 20.4 121.8 16.2 134.4 21 141.6 16.8 153.6 19.2 160.2 25.2 170.4 25.8 183 32.4 195 45.6 200.4 45.6 210.6 54.6 216.6 65.4 220.8 77.4 221.4 90.6 215.4 114.6 201.6 142.8 178.8 177 155.4 208.8 153 208.2 144.6 204.6 133.2 202.8 120.6 204 113.4 205.8 97.8 178.2 74.4 141 64.2 124.2 57.6 106.2"></polygon>
                        <polygon id="Path-3" fill="#FF5958" mask="url(#mask-2)" points="127.2 243.6 124.8 251.4 127.8 258 136.2 259.2 139.8 255 142.2 246.6 141.6 243"></polygon>
                        <path d="M218.01336,98.94912 C215.29476,112.04592 208.75056,124.42752 202.42056,136.08792 C195.31896,149.16612 187.16976,161.66052 178.46976,173.72532 C170.55756,184.69752 161.24076,195.46692 153.63996,207.07452 C153.50196,206.79672 153.28416,206.53872 152.97216,206.32452 C141.95676,198.79032 126.59556,200.41932 114.29316,203.25192 C114.24396,203.26452 114.20436,203.28312 114.15996,203.29752 C107.58336,190.74912 99.95196,178.66932 92.80356,166.53792 C86.28576,155.48232 79.08576,144.94512 72.22536,134.10732 C65.43996,123.39432 59.86656,112.05012 57.72456,99.45492 C54.52536,80.65092 57.27696,59.01612 70.89156,45.13392 C70.38756,46.65012 69.95436,48.19752 69.58176,49.75812 C69.01416,49.92252 68.43996,50.05092 67.84236,50.06532 C67.22616,50.07912 67.22376,51.03792 67.84236,51.02412 C68.35596,51.01212 68.85276,50.93232 69.34236,50.81532 C69.26316,51.16932 69.18336,51.52332 69.11316,51.87912 C68.20116,52.42512 67.15356,52.74192 66.11496,52.96212 C65.51076,53.09112 65.76816,54.01452 66.37056,53.88792 C67.23576,53.70492 68.09796,53.44752 68.89956,53.07012 C68.83656,53.42172 68.76576,53.77092 68.70996,54.12012 C68.68836,54.24672 68.67696,54.37092 68.65836,54.49272 C67.59876,55.16292 66.41076,55.60812 65.15676,55.84032 C64.54716,55.95492 64.80516,56.88072 65.41236,56.76852 C66.49476,56.56692 67.53096,56.20572 68.49156,55.69752 C68.40996,56.35812 68.33916,57.02172 68.28096,57.68472 C67.29636,58.34832 66.31416,59.02092 65.36076,59.73072 C64.87056,60.09672 65.34876,60.93072 65.84556,60.56052 C66.61236,59.98872 67.39716,59.44272 68.18736,58.90332 C68.16156,59.31372 68.13576,59.72412 68.11656,60.13152 C67.44156,60.77832 66.74796,61.40412 66.00036,61.97172 C65.51496,62.33952 65.99316,63.17412 66.48576,62.79912 C67.03656,62.38392 67.55916,61.93872 68.06736,61.48152 C68.03916,62.55492 68.03016,63.62592 68.04396,64.69932 C67.44156,65.11452 66.80676,65.47752 66.11496,65.76372 C65.55276,65.99592 65.79876,66.92592 66.37056,66.68952 C66.96576,66.44112 67.52616,66.15012 68.06076,65.82012 C68.07696,66.47172 68.09556,67.12092 68.11896,67.77012 C67.42296,68.20092 66.72936,68.63712 66.00036,69.01212 C65.44956,69.29592 65.93496,70.12332 66.48576,69.83952 C67.06236,69.54432 67.61316,69.20892 68.16336,68.86932 C68.19396,69.56772 68.23176,70.26852 68.27136,70.96692 C67.51896,71.38872 66.77136,71.82012 66.00036,72.21132 C65.44956,72.49272 65.93496,73.32012 66.48576,73.04112 C67.11156,72.72432 67.72056,72.37752 68.33256,72.03312 C68.37456,72.75012 68.42136,73.46772 68.46576,74.18472 C68.46816,74.23632 68.47296,74.28552 68.47776,74.33712 C67.70136,74.87832 66.84876,75.30732 66.00036,75.73152 C65.44716,76.00812 65.93256,76.83552 66.48576,76.56132 C67.19076,76.20732 67.89396,75.84912 68.55756,75.43152 C68.58996,75.90492 68.62296,76.38072 68.66076,76.85652 C67.74876,77.51532 66.93096,78.29592 66.00036,78.93312 C65.49396,79.27992 65.97216,80.11212 66.48576,79.76052 C67.28256,79.21692 67.99476,78.56532 68.75676,77.97252 C68.81316,78.63552 68.86896,79.29672 68.93256,79.95732 C68.08656,80.50812 67.22376,81.03312 66.32136,81.49272 C65.76816,81.77172 66.25356,82.60092 66.80676,82.32012 C67.57536,81.93072 68.31336,81.49272 69.03756,81.03072 C69.12936,81.91932 69.22536,82.80732 69.32856,83.69592 C68.63736,84.01212 67.95756,84.35412 67.28016,84.69192 C66.72696,84.96852 67.21236,85.79832 67.76496,85.52172 C68.32296,85.24272 68.88336,84.95412 69.45036,84.68712 C69.55116,85.51212 69.65196,86.33712 69.76236,87.16212 C69.05436,87.38472 68.39796,87.74592 67.82376,88.28712 C67.37376,88.71372 68.05356,89.39112 68.50356,88.96692 C68.92296,88.57092 69.39396,88.29912 69.90036,88.12092 C70.01496,88.93872 70.12536,89.75892 70.25196,90.57672 C69.56736,90.81372 68.89956,91.08792 68.24076,91.41372 C67.68576,91.68552 68.17056,92.51292 68.72616,92.24112 C69.27456,91.97172 69.83256,91.73712 70.39956,91.53552 C70.51896,92.28312 70.64316,93.02832 70.76976,93.77412 C69.98736,94.09272 69.18576,94.35252 68.35596,94.56372 C67.75596,94.71612 68.00916,95.64192 68.60916,95.48952 C69.40836,95.28792 70.18176,95.03232 70.93836,94.73232 C71.04876,95.34672 71.16576,95.95812 71.28756,96.57012 C70.58736,96.97752 69.87936,97.36932 69.19956,97.81212 C68.68416,98.14932 69.16416,98.98152 69.68496,98.64192 C70.27056,98.25972 70.87776,97.91532 71.48256,97.56612 C71.64396,98.35092 71.80836,99.13392 71.98176,99.91452 C71.40756,100.32432 70.80276,100.68792 70.16076,101.01372 C69.60756,101.29272 70.09476,102.12252 70.64556,101.84352 C71.18916,101.56692 71.70756,101.25972 72.20676,100.92672 C72.36336,101.60652 72.52536,102.28632 72.69396,102.96372 C72.04956,103.24932 71.39796,103.51452 70.80036,103.89432 C70.28016,104.22432 70.76076,105.05652 71.28576,104.72412 C71.80596,104.39112 72.37056,104.14752 72.93576,103.90092 C73.10436,104.56452 73.27296,105.22752 73.45116,105.88632 C72.96576,106.23552 72.44076,106.52592 71.87616,106.72512 C71.29476,106.92912 71.54556,107.85732 72.13176,107.65092 C72.69636,107.45172 73.22856,107.18232 73.72536,106.85892 C73.93416,107.60652 74.13756,108.35652 74.36076,109.09932 C73.38756,109.50012 72.38916,109.83552 71.43996,110.29512 C70.88256,110.56452 71.36976,111.38952 71.92536,111.12252 C72.80436,110.69832 73.72776,110.37672 74.63256,110.01372 C74.89236,110.86452 75.15996,111.71052 75.43416,112.55652 C74.76336,113.10492 74.05836,113.61372 73.36236,114.13392 C72.87216,114.49932 73.35036,115.33392 73.84716,114.96372 C74.48736,114.48552 75.13416,114.01452 75.76236,113.52252 C75.93096,114.02172 76.09476,114.52332 76.26816,115.02012 C75.63996,115.58712 74.91576,116.04432 74.11656,116.32512 C73.53576,116.53152 73.78656,117.45732 74.37216,117.25092 C75.18756,116.96292 75.94236,116.53392 76.61316,115.99272 C76.90596,116.81772 77.20596,117.64032 77.51496,118.45812 C76.98576,118.72332 76.45356,118.98792 75.92136,119.25492 C75.36816,119.53152 75.85356,120.35892 76.40676,120.08472 C76.89156,119.84112 77.37636,119.59752 77.86416,119.35572 C78.05676,119.85252 78.24396,120.35412 78.44316,120.85092 C77.77536,121.47432 77.07936,122.02512 76.24236,122.45412 C75.69156,122.73552 76.17696,123.56532 76.72776,123.28392 C77.51316,122.88072 78.18576,122.36772 78.82536,121.79592 C78.96576,122.14032 79.09956,122.48712 79.24476,122.82912 C78.56076,123.34032 77.90916,123.89352 77.20116,124.37412 C76.69236,124.72092 77.17296,125.55252 77.68656,125.20332 C78.35916,124.74672 78.97776,124.22172 79.62456,123.73152 C79.92216,124.42332 80.22216,125.10732 80.53176,125.79192 C80.08656,126.20172 79.62636,126.59352 79.12296,126.93552 C78.61236,127.27992 79.09236,128.11212 79.60596,127.76532 C80.08176,127.44192 80.52456,127.08312 80.94876,126.70572 C81.15036,127.13952 81.34956,127.57752 81.55356,128.01132 C80.89236,128.48952 80.25276,128.99352 79.66416,129.57012 C79.22136,130.00572 79.90116,130.68312 80.34396,130.24932 C80.85276,129.74832 81.40356,129.30732 81.97296,128.89032 C82.27296,129.51132 82.57296,130.12692 82.88256,130.74432 C82.23096,131.30412 81.56076,131.84592 80.94396,132.44952 C80.50356,132.88392 81.18096,133.56372 81.62376,133.12992 C82.16736,132.59592 82.75356,132.11052 83.33256,131.61852 C83.58756,132.12012 83.84316,132.62172 84.10596,133.11852 C84.12216,133.14912 84.13836,133.18152 84.15516,133.21212 C83.71896,133.50492 83.25276,133.75032 82.75836,133.92612 C82.17696,134.13072 82.42776,135.05892 83.01156,134.85192 C83.57136,134.65332 84.10116,134.38872 84.59556,134.06772 C84.88176,134.62332 85.16976,135.17412 85.45116,135.73152 C84.50676,136.15572 83.71236,136.79952 83.10996,137.66772 C82.75596,138.17532 83.58756,138.65652 83.93916,138.15192 C84.42696,137.44932 85.10676,136.93152 85.88496,136.59432 C86.31156,137.45652 86.73756,138.32172 87.15276,139.19112 C86.31816,139.76772 85.51416,140.37432 84.78576,141.08952 C84.34236,141.52452 85.02216,142.20192 85.46316,141.76932 C86.11416,141.12912 86.82696,140.58312 87.56976,140.06532 C87.84636,140.64912 88.12056,141.23232 88.39236,141.81852 C87.64716,142.39932 86.94396,143.03952 86.16156,143.57412 C85.65516,143.92332 86.13336,144.75492 86.64636,144.40332 C87.40356,143.88792 88.08096,143.27172 88.79796,142.70412 C89.01156,143.17332 89.22936,143.63952 89.44236,144.11052 C88.81416,144.72912 88.17456,145.31772 87.44316,145.81452 C86.93256,146.15892 87.41316,146.99112 87.92616,146.64432 C88.62696,146.17092 89.25516,145.62432 89.85756,145.04352 C90.11496,145.61772 90.37536,146.19192 90.62856,146.76852 L88.94556,148.45032 C88.50756,148.88952 89.18736,149.56692 89.62536,149.12832 L91.04076,147.71292 C91.22376,148.13712 91.40916,148.56132 91.59156,148.98552 C90.86316,149.66772 90.08736,150.27252 89.51076,151.10652 C89.15676,151.61772 89.98836,152.09832 90.33756,151.59192 C90.78996,150.93792 91.40196,150.44112 91.98996,149.92092 C92.15916,150.31692 92.33016,150.71052 92.49876,151.10652 C91.92936,151.95972 91.35996,152.81532 90.78996,153.66852 C90.44556,154.18392 91.27776,154.66452 91.61976,154.15332 C92.06076,153.49032 92.50356,152.82612 92.94396,152.16372 C93.25116,152.89032 93.55596,153.61692 93.85836,154.34352 C93.43416,154.97172 92.99316,155.58792 92.46576,156.13152 C92.03496,156.57432 92.71236,157.25412 93.14316,156.80892 C93.56736,156.37332 93.93996,155.89272 94.29396,155.39592 C94.59876,156.12912 94.90356,156.86532 95.20596,157.60032 C94.71816,158.17452 94.27296,158.78952 93.74556,159.33072 C93.31236,159.77412 93.99156,160.45332 94.42296,160.01052 C94.85436,159.56772 95.22936,159.07992 95.61816,158.60112 C95.97456,159.46932 96.33336,160.33872 96.68916,161.20812 C96.66816,161.22252 96.64476,161.22912 96.62376,161.24952 C95.89716,161.97912 95.25036,162.72012 94.90116,163.70112 C94.69236,164.28792 95.62056,164.53632 95.82696,163.95732 C96.08016,163.24032 96.56076,162.68712 97.08096,162.15492 C97.30356,162.69672 97.52616,163.23792 97.74876,163.77912 C97.43916,164.61612 96.95436,165.35892 96.54876,166.14912 C96.26736,166.69752 97.09476,167.18232 97.37856,166.63152 C97.66236,166.07832 97.97136,165.54432 98.25036,164.99352 C98.48496,165.55812 98.71656,166.12092 98.95356,166.68312 C98.36736,167.68152 97.71816,168.64032 97.18836,169.66932 C96.90756,170.21772 97.73496,170.70192 98.01816,170.15112 C98.43756,169.33632 98.93256,168.56532 99.41316,167.78232 C99.66156,168.37332 99.90756,168.96612 100.15836,169.55412 C100.12536,169.58712 100.09236,169.62012 100.06896,169.66692 C99.49956,170.82432 99.03996,172.02912 98.47056,173.18712 C98.19636,173.74032 99.02376,174.22692 99.29796,173.67252 C99.78096,172.69512 100.18656,171.68472 100.64316,170.69832 C101.02536,171.59592 101.41236,172.49112 101.80356,173.38632 C101.72616,173.44032 101.65836,173.51292 101.62056,173.62332 C101.34636,174.44592 101.08836,175.28472 100.70916,176.06772 C100.44156,176.62332 101.26896,177.11052 101.53836,176.55192 C101.85036,175.91052 102.09156,175.23552 102.32136,174.55812 C102.58836,175.16772 102.85596,175.77432 103.13016,176.38152 C102.84636,177.01932 102.61416,177.67992 102.30996,178.30812 C102.03996,178.86372 102.86736,179.34912 103.13916,178.79352 C103.33656,178.39032 103.50036,177.97332 103.66656,177.55572 C103.94316,178.16532 104.21976,178.77432 104.50356,179.37912 C104.28996,180.02172 104.07456,180.66372 103.86156,181.30332 C103.66656,181.89192 104.59236,182.14272 104.78736,181.55892 C104.88996,181.24932 104.99316,180.94032 105.09636,180.63072 C105.33336,181.12992 105.56736,181.63152 105.80916,182.12832 C105.49236,182.66772 105.15516,183.19272 104.87136,183.74832 C104.58996,184.29912 105.41736,184.78392 105.69876,184.23312 C105.88836,183.86532 106.10196,183.51132 106.31316,183.15732 C106.53996,183.61692 106.76316,184.08072 106.99236,184.53792 C106.59876,185.11212 106.42056,185.88312 106.40436,186.55032 C106.38996,187.17012 107.35116,187.17012 107.36496,186.55032 C107.37216,186.26052 107.42136,185.90892 107.52936,185.59032 C107.78256,186.07992 108.02616,186.57612 108.28416,187.06692 C108.20916,187.69272 108.02616,188.29752 107.74956,188.86932 C107.48256,189.42252 108.30996,189.90972 108.57936,189.35412 C108.73836,189.02532 108.86496,188.68872 108.97296,188.34672 C109.28916,188.93472 109.59876,189.52452 109.92216,190.11132 C109.89396,190.95492 109.57056,191.71212 109.30116,192.50412 C109.10196,193.09032 110.03016,193.34112 110.22936,192.75732 C110.38176,192.30972 110.54076,191.87412 110.66496,191.42832 C110.92776,191.89032 111.18996,192.34932 111.45756,192.80652 C111.25356,193.55412 111.13836,194.32332 110.90196,195.06132 C110.71416,195.65412 111.63996,195.90492 111.82776,195.31692 C111.96816,194.88072 112.06236,194.43312 112.16076,193.98552 C112.40676,194.39832 112.65276,194.81052 112.90596,195.21852 C112.89636,195.23712 112.88016,195.24672 112.87056,195.26772 C112.51236,196.04952 112.48656,196.90332 112.48416,197.74932 C112.48416,198.36852 113.44476,198.36852 113.44476,197.74932 C113.44476,197.24952 113.43096,196.70652 113.54796,196.20732 C114.94956,197.93472 117.97536,196.08552 116.70276,194.06052 C109.02456,181.84752 103.76496,168.42012 98.32056,155.11932 C95.65116,148.60332 92.89956,142.11852 89.79396,135.79752 C86.63256,129.35892 83.28756,123.13152 80.77056,116.39592 C75.91896,103.40652 73.47216,89.66772 72.42456,75.87912 C71.90436,69.01212 71.42136,61.99032 72.41316,55.14912 C73.35996,48.62412 75.55836,42.30492 78.99636,36.67992 C82.10676,31.59192 86.59956,27.74832 91.67376,24.70332 C95.43576,22.44432 101.71656,19.37412 106.00836,21.93552 C105.44316,22.59912 104.91336,23.29512 104.41656,24.01692 C103.52616,23.49672 102.53016,23.21292 101.44476,23.18952 C100.82616,23.17752 100.82856,24.13632 101.44476,24.15012 C102.34236,24.16932 103.15836,24.39432 103.88916,24.81612 C103.61076,25.25172 103.33836,25.69512 103.08096,26.14752 C102.23016,25.64832 101.27376,25.37412 100.29396,25.12752 C99.69156,24.97512 99.43836,25.90092 100.03836,26.05332 C100.93836,26.27832 101.83836,26.50812 102.62136,26.98152 C102.18336,27.80172 101.77296,28.64352 101.39316,29.50332 C100.72056,29.17332 99.98916,28.97172 99.20676,28.95012 C98.58576,28.93392 98.58756,29.89272 99.20676,29.91132 C99.85836,29.92752 100.46496,30.10332 101.02296,30.38712 C100.77456,30.98472 100.53756,31.58952 100.31496,32.20092 C99.57216,31.82832 98.84556,31.42752 98.16816,30.93552 C97.66416,30.57012 97.18656,31.40412 97.68336,31.76532 C98.40996,32.29272 99.19476,32.71452 99.99396,33.11052 C99.65436,34.10412 99.34236,35.10492 99.05916,36.11292 C98.61576,35.97432 98.17296,35.83392 97.73256,35.68632 C97.14396,35.49192 96.89316,36.41772 97.47696,36.61212 C97.91736,36.75972 98.36076,36.90012 98.80356,37.03632 C98.63016,37.68552 98.46336,38.32992 98.30916,38.97672 C97.71816,38.78712 97.13496,38.56932 96.56736,38.29512 C96.01236,38.02752 95.52456,38.85492 96.08256,39.12432 C96.73656,39.44112 97.40676,39.69192 98.08836,39.90972 C97.89396,40.76292 97.71156,41.61372 97.54236,42.45012 C96.85836,42.22332 96.17616,41.99592 95.49156,41.76852 C94.90356,41.57172 94.65276,42.49752 95.23836,42.69432 C95.94396,42.92832 96.64956,43.16532 97.35516,43.39932 C97.22136,44.09832 97.09956,44.79672 96.98496,45.49512 C96.30036,45.15492 95.58336,44.89272 94.85196,44.64912 C94.26336,44.45172 94.01316,45.37752 94.59876,45.57432 C95.37216,45.83232 96.11976,46.11372 96.83016,46.49832 C96.71316,47.30172 96.60276,48.10812 96.51156,48.91212 C95.76336,48.61692 95.00196,48.36852 94.21236,48.16692 C93.61236,48.01452 93.35916,48.94032 93.95916,49.09272 C94.80036,49.30812 95.61156,49.57092 96.40836,49.89672 C96.36816,50.27172 96.32616,50.64672 96.29316,51.02412 C95.37936,51.00492 94.47216,50.93712 93.57216,50.72832 C92.96976,50.58792 92.71416,51.51372 93.31896,51.65412 C94.27296,51.87672 95.23836,51.95652 96.21336,51.97992 C96.13176,53.02092 96.07056,54.05892 96.02856,55.09932 C95.25756,54.93312 94.46076,55.01292 93.63756,55.20972 C93.03576,55.35252 93.29076,56.27832 93.89316,56.13552 C94.63416,55.95732 95.32296,55.88232 95.99796,56.07912 C95.96976,57.02412 95.94876,57.96612 95.94876,58.91052 C95.36316,58.72752 94.72536,58.71132 94.08576,58.71132 C93.46656,58.71132 93.46656,59.67012 94.08576,59.67252 C94.70196,59.67252 95.39076,59.64672 95.94876,59.93232 C95.95836,60.66612 95.96976,61.39932 95.99316,62.13312 C95.29236,61.95732 94.59396,61.78392 93.89316,61.60812 C93.29316,61.45812 93.03756,62.38392 93.63756,62.53392 C94.43496,62.73312 95.23176,62.93232 96.02856,63.13152 C96.06156,63.92832 96.10116,64.72512 96.15036,65.52252 C95.37456,65.61612 94.67616,65.28792 94.00836,64.85652 C93.48576,64.51932 93.00516,65.35092 93.52296,65.68632 C94.35036,66.22092 95.25276,66.57432 96.21156,66.47832 C96.24636,66.98472 96.29556,67.48872 96.33756,67.99272 C96.33336,67.99272 96.33096,67.99272 96.32616,67.99032 C95.63916,67.97172 94.94076,67.71372 94.32936,67.41612 C93.77376,67.14672 93.28656,67.97412 93.84396,68.24592 C94.61496,68.62092 95.46156,68.92752 96.32616,68.95092 C96.36156,68.95332 96.38496,68.94192 96.41496,68.93712 C96.44556,69.25572 96.46656,69.57672 96.49716,69.89832 C95.83416,69.87432 95.18016,69.80892 94.53336,69.60972 C93.93996,69.42432 93.68916,70.35252 94.28016,70.53552 C95.03736,70.77012 95.81316,70.84032 96.59556,70.86372 C96.69156,71.78712 96.79476,72.71052 96.90756,73.63392 C96.39636,73.54752 95.88756,73.44432 95.36496,73.43232 C94.74636,73.41852 94.74876,74.37912 95.36496,74.39112 C95.93016,74.40252 96.47616,74.52432 97.02936,74.61372 C97.13016,75.39672 97.23576,76.17672 97.34796,76.95732 C96.52536,76.97592 95.70996,77.04192 94.91736,77.28792 C94.32936,77.47332 94.58016,78.39912 95.17296,78.21372 C95.93016,77.97672 96.70596,77.92512 97.48836,77.91372 C97.56816,78.45252 97.64796,78.99192 97.73256,79.52832 C96.99636,79.55652 96.26316,79.63392 95.55756,79.84932 C94.96896,80.02752 95.21976,80.95572 95.81316,80.77512 C96.48576,80.56932 97.18176,80.50332 97.88016,80.48232 C97.88016,80.48472 97.88256,80.48952 97.88256,80.49192 C98.00676,81.27012 98.13756,82.04832 98.27136,82.82412 C97.41576,82.98072 96.56316,83.03232 95.68656,83.03232 C95.06736,83.03232 95.06736,83.99112 95.68656,83.99112 C96.61656,83.99112 97.52856,83.93232 98.43756,83.76852 C98.52936,84.27912 98.61816,84.79272 98.70996,85.30332 C97.66896,85.65012 96.62376,85.97832 95.55756,86.24832 C94.95756,86.40012 95.21316,87.32592 95.81316,87.17412 C96.85116,86.91132 97.87296,86.59032 98.88756,86.25492 C99.07536,87.25812 99.25836,88.26132 99.45516,89.26452 C98.60436,89.77092 97.63836,90.05172 96.64476,90.07092 C96.02616,90.08232 96.02616,91.04352 96.64476,91.03152 C97.69236,91.01052 98.72856,90.74592 99.65196,90.25572 C99.76896,90.84432 99.88416,91.42752 100.00356,92.01372 C99.47616,92.09112 98.94876,92.17092 98.43756,92.32752 C97.84716,92.51052 98.10036,93.43632 98.69316,93.25332 C99.18576,93.10332 99.69156,93.02412 100.20036,92.94912 C100.28016,93.33552 100.36416,93.72252 100.44396,94.10892 C99.72936,94.33872 99.00516,94.53312 98.24556,94.55172 C97.62696,94.56612 97.62696,95.52672 98.24556,95.51052 C99.07296,95.49192 99.86316,95.29512 100.64316,95.05092 C100.70676,95.35332 100.76976,95.65572 100.83576,95.95812 C100.00116,96.37332 99.11316,96.67512 98.32296,97.17672 C97.80276,97.50732 98.28336,98.33952 98.80836,98.00652 C99.51156,97.55892 100.29396,97.27092 101.04636,96.91932 C101.23836,97.80012 101.42856,98.68392 101.62776,99.56292 C100.75836,99.97752 99.83016,100.27752 98.96316,100.69752 C98.40516,100.96692 98.89236,101.79432 99.44796,101.52672 C100.22616,101.14932 101.05356,100.86612 101.84556,100.51452 C102.02376,101.29032 102.20196,102.06612 102.38496,102.83952 C101.76576,103.02672 101.13756,103.17672 100.48656,103.19112 C99.86736,103.20732 99.86496,104.16612 100.48656,104.15172 C101.21496,104.13552 101.91336,103.97592 102.60516,103.77252 C102.80676,104.62332 103.01076,105.47172 103.21656,106.32012 C102.64236,106.52172 102.06576,106.69752 101.44476,106.71132 C100.82616,106.72512 100.82616,107.68632 101.44476,107.67252 C102.15036,107.65572 102.79476,107.47092 103.44636,107.25012 C103.70676,108.31692 103.97136,109.38312 104.24076,110.44752 C103.42056,110.53632 102.59556,110.55012 101.76576,110.55252 C101.14716,110.55252 101.14476,111.51132 101.76576,111.51132 C102.67776,111.51132 103.58256,111.48792 104.48016,111.38232 C104.72376,112.33632 104.96736,113.29272 105.21336,114.24432 C104.53836,114.54912 103.83096,114.70092 103.04556,114.71292 C102.42696,114.72252 102.42456,115.68072 103.04556,115.67172 C103.90356,115.65972 104.70276,115.50012 105.45996,115.18392 C105.63996,115.86612 105.81336,116.55012 105.99396,117.23232 C104.97216,117.48072 103.94796,117.72012 102.91656,117.92832 C102.30996,118.05252 102.56736,118.97832 103.17216,118.85412 C104.20116,118.64592 105.22296,118.40652 106.24236,118.15812 C106.40196,118.75812 106.55916,119.36052 106.72056,119.95812 C105.77616,120.25332 104.81736,120.50172 103.87536,120.80892 C103.28916,121.00092 103.54236,121.92672 104.13096,121.73472 C105.07056,121.42752 106.02696,121.17912 106.97136,120.88632 C107.18016,121.65732 107.39076,122.43072 107.60196,123.19932 C106.70916,123.50892 105.84156,123.86052 105.03996,124.37592 C104.52456,124.71132 105.00516,125.54352 105.52536,125.20572 C106.25436,124.73472 107.03736,124.41372 107.84556,124.12992 C107.94156,124.49832 108.03996,124.86372 108.13416,125.23152 C107.20836,125.69352 106.28496,126.15492 105.36156,126.61692 C104.80836,126.89592 105.29316,127.72332 105.84636,127.44672 C106.68576,127.02672 107.52456,126.60732 108.36336,126.18792 C108.46416,126.61932 108.56976,127.05012 108.66816,127.48152 C108.08496,128.29932 107.25516,128.87532 106.54476,129.57252 C106.10196,130.00572 106.78176,130.68552 107.22216,130.25112 C107.78736,129.70032 108.39156,129.21612 108.92616,128.65332 C109.04076,129.18312 109.15116,129.71292 109.25676,130.24272 C108.40596,130.87992 107.59476,131.56212 106.64076,132.05652 C106.09236,132.34272 106.57776,133.17012 107.12616,132.88632 C107.97696,132.44592 108.71076,131.85192 109.46316,131.27532 C109.60596,132.01932 109.74636,132.76212 109.88016,133.50492 C109.26816,133.87332 108.71976,134.32692 108.03576,134.56932 C107.45676,134.77452 107.70756,135.70332 108.29076,135.49512 C108.94716,135.26292 109.48836,134.87172 110.05836,134.51052 C110.08836,134.68152 110.12136,134.85192 110.14956,135.02532 C109.51236,135.42012 108.86736,135.80412 108.24156,136.21692 C107.72616,136.55652 108.20676,137.38872 108.72696,137.04672 C109.24956,136.69932 109.78656,136.37532 110.32056,136.04952 C110.36496,136.32432 110.40756,136.60032 110.45196,136.87452 C109.78176,137.23632 109.23576,137.78232 108.56076,138.13872 C108.01236,138.42612 108.49956,139.25412 109.04556,138.96612 C109.60836,138.67092 110.08656,138.24432 110.61816,137.89932 C110.65116,138.11292 110.68656,138.32532 110.72136,138.53952 C110.04156,139.02612 109.38576,139.54272 108.78576,140.13312 C108.34236,140.56692 109.02216,141.24432 109.46316,140.81052 C109.91076,140.37252 110.38836,139.97832 110.88336,139.60332 C110.94396,140.00652 111.00756,140.40492 111.06816,140.80572 C110.60916,141.09192 110.13756,141.35652 109.74396,141.73152 C109.29396,142.16052 109.97376,142.83792 110.42376,142.41132 C110.66496,142.18152 110.93736,141.99192 111.21816,141.81372 C111.23916,141.95412 111.26076,142.09752 111.28176,142.23792 C111.35436,142.72332 111.43176,143.20812 111.50676,143.69352 C110.96976,144.10812 110.40276,144.48312 109.83996,144.85812 C109.32936,145.19952 109.80996,146.02992 110.32536,145.68792 C110.77536,145.38792 111.23016,145.08792 111.67296,144.76932 C111.76236,145.35732 111.85116,145.94592 111.94236,146.53152 C111.42936,146.96532 110.86896,147.34272 110.38416,147.81372 C109.93836,148.24512 110.61816,148.92432 111.06336,148.49112 C111.38916,148.17432 111.75276,147.89952 112.11156,147.62172 C112.18656,148.10412 112.25916,148.58472 112.33416,149.06532 L110.70516,150.69432 C110.26656,151.13232 110.94396,151.80972 111.38256,151.37172 L112.51896,150.23712 C112.62456,150.89952 112.72776,151.56612 112.83336,152.22912 C112.34556,152.84352 111.78336,153.37092 111.12216,153.81852 C110.61156,154.16292 111.09156,154.99512 111.60516,154.64832 C112.13256,154.29192 112.59876,153.89352 113.02536,153.45192 C113.10036,153.92172 113.17536,154.39032 113.25036,154.86132 C112.68336,155.41212 112.09956,155.93232 111.44076,156.37692 C110.93256,156.72432 111.41076,157.55412 111.92616,157.20732 C112.46316,156.84432 112.95516,156.43632 113.43096,156.00492 C113.52936,156.63552 113.63016,157.26612 113.73096,157.89672 C113.21316,158.38872 112.67856,158.85492 112.08096,159.25812 C111.57216,159.60192 112.05036,160.43472 112.56576,160.08792 C113.04156,159.76452 113.48256,159.40812 113.90676,159.03312 C114.00516,159.65652 114.10596,160.28472 114.20196,160.91052 C113.64156,161.37252 113.00916,161.73792 112.40196,162.13872 C111.88836,162.47832 112.36656,163.31052 112.88736,162.96852 C113.38176,162.64032 113.88996,162.33072 114.37056,161.98632 C114.45756,162.53472 114.55116,163.08552 114.65436,163.63632 C114.18756,164.01132 113.69556,164.35332 113.26416,164.77332 C112.81896,165.20652 113.49876,165.88392 113.94396,165.45192 C114.23016,165.17172 114.54636,164.92692 114.86496,164.68392 C114.90996,164.90412 114.95196,165.12612 114.99876,165.34932 C114.70836,165.76692 114.26976,166.02012 113.90436,166.37412 C113.45916,166.80492 114.13836,167.48232 114.58416,167.05332 C114.79716,166.84512 115.02936,166.66932 115.24716,166.48152 C115.30836,166.75812 115.36896,167.03232 115.43496,167.30892 C114.99876,168.26292 114.20196,168.61932 113.12376,168.63312 C112.50516,168.64032 112.50516,169.60032 113.12376,169.59432 C114.21816,169.57992 115.09956,169.24752 115.73256,168.56292 C115.95276,169.45032 116.17776,170.34192 116.40996,171.23232 C115.98996,171.51612 115.55436,171.78072 115.18416,172.13472 C114.73656,172.56372 115.41576,173.24112 115.86336,172.81212 C116.10756,172.57992 116.38416,172.38792 116.66496,172.19952 C116.82216,172.79112 116.97936,173.37912 117.13656,173.97012 C116.55756,174.45492 115.96416,174.88152 115.58916,175.59192 C115.30116,176.13792 116.12856,176.62332 116.41896,176.07432 C116.66316,175.61292 117.02136,175.28712 117.40116,174.97692 C117.52296,175.43472 117.64476,175.89432 117.76416,176.35572 C117.73656,176.36532 117.71076,176.36532 117.68256,176.37912 C116.65596,176.91852 115.82856,177.75732 114.80196,178.29912 C114.25356,178.58712 114.73836,179.41692 115.28736,179.12832 C116.25996,178.61532 117.05676,177.83712 118.01076,177.29832 C118.21896,178.11612 118.42296,178.93632 118.61496,179.75652 C117.57456,180.32532 116.95596,181.38792 116.14476,182.21532 C115.71156,182.65812 116.39076,183.33552 116.82456,182.89272 C117.49716,182.20332 118.03836,181.30032 118.83996,180.74832 C119.06076,181.72992 119.26656,182.71452 119.44476,183.70032 C118.80996,184.27692 117.96156,184.63872 117.20196,185.01852 C116.64876,185.29512 117.13416,186.12432 117.68736,185.84832 C118.33836,185.52252 119.02536,185.20572 119.62776,184.78152 C119.74956,185.52612 119.86236,186.27252 119.95116,187.01772 C119.08176,187.49352 118.44636,188.13552 117.98916,189.03072 C117.71076,189.58152 118.53756,190.06692 118.81896,189.51612 C119.13756,188.88792 119.52936,188.43552 120.06156,188.07012 C120.16236,189.11532 120.23256,190.16292 120.24636,191.21292 C120.15756,191.22432 120.06816,191.25492 119.98656,191.33472 C119.50596,191.78952 118.74396,191.93472 118.16316,192.21852 C117.60516,192.49032 118.09236,193.31772 118.64796,193.04832 C119.17296,192.79272 119.74956,192.63312 120.24636,192.32832 C120.23256,193.11852 120.19236,193.90812 120.11976,194.69952 C119.78256,194.83872 119.42856,194.94912 119.12136,195.09912 C118.56576,195.37092 119.05356,196.19832 119.60676,195.92832 C119.73756,195.86532 119.87136,195.80892 120.00516,195.75192 C119.97456,195.98232 119.94876,196.21452 119.91336,196.44432 C119.54556,198.86532 123.24396,199.90572 123.61656,197.46372 C125.51496,184.95492 120.06816,172.96212 118.05036,160.82412 C116.86896,153.71532 115.79796,146.59512 114.72456,139.47012 C113.64396,132.29592 112.05756,125.31372 110.34156,118.27332 C104.01816,92.30652 95.27136,64.81692 102.50916,38.13072 C103.87776,33.08472 105.82296,27.52992 109.52616,23.69592 C112.81236,20.29512 117.47136,18.14832 122.21076,18.09432 C135.26496,17.94432 135.71076,35.18712 135.71076,44.44932 C135.70836,51.04272 135.53496,57.54912 136.07616,64.12992 C136.70916,71.82912 136.99956,79.25652 136.53996,86.97012 C135.63096,102.24912 132.33336,117.26772 131.22456,132.52992 C130.45836,143.03472 130.85436,153.65892 130.67856,164.18712 C130.49796,175.11132 130.21236,186.03312 129.92616,196.95492 C129.86076,199.36932 133.49796,199.41852 133.74156,197.13072 L134.06496,197.45412 C134.50356,197.89272 135.18336,197.21292 134.74476,196.77432 L133.79316,195.82452 L133.80996,195.26052 C134.10276,195.33552 134.41656,195.35412 134.72616,195.35412 C135.34476,195.35412 135.34476,194.39592 134.72616,194.39352 C134.45436,194.39352 134.06976,194.41212 133.83576,194.24352 C133.84236,193.95732 133.84956,193.67172 133.85676,193.38312 C134.21076,193.50192 134.56416,193.62012 134.91816,193.73712 C135.50676,193.93392 135.75756,193.00572 135.17376,192.81132 C134.74236,192.66852 134.31336,192.52452 133.88256,192.38232 C133.88916,192.10812 133.89636,191.83392 133.90356,191.55972 C134.34876,191.60112 134.79156,191.67432 135.23736,191.81772 C135.83016,192.00492 136.08096,191.07912 135.49236,190.89192 C134.97216,190.72452 134.45436,190.64352 133.92696,190.60032 C133.94316,189.95412 133.95996,189.30972 133.97616,188.66532 C134.50836,188.69952 135.03576,188.77452 135.55836,188.93712 C136.15116,189.12252 136.40196,188.19672 135.81336,188.01132 C135.21816,187.82532 134.61156,187.74192 133.99956,187.70412 C134.01156,187.19952 134.02296,186.69912 134.03736,186.19512 C134.47536,186.28152 134.91336,186.38232 135.36576,186.39432 C135.98496,186.41052 135.98496,185.45112 135.36576,185.43312 C134.92296,185.42172 134.49156,185.32452 134.06076,185.23872 C134.06976,184.77912 134.08176,184.31772 134.09316,183.85812 C134.69316,183.88632 135.28836,183.95412 135.87696,184.13712 C136.46976,184.32012 136.72296,183.39432 136.13256,183.21132 C135.47136,183.00492 134.79636,182.92992 134.11416,182.89752 C134.12856,182.30412 134.14236,181.71132 134.15676,181.12092 C134.35836,181.19592 134.54556,181.30332 134.70516,181.45332 C135.15516,181.87992 135.83496,181.20192 135.38496,180.77412 C135.04236,180.44832 134.62536,180.24912 134.18016,180.13152 C134.18916,179.72532 134.19876,179.31852 134.20836,178.91292 C134.39556,179.04912 134.58996,179.17992 134.80356,179.28792 C135.35436,179.56932 135.83916,178.74192 135.28836,178.45812 C134.88756,178.25412 134.55516,177.98472 134.23656,177.68952 C134.25036,177.03552 134.26416,176.38152 134.27856,175.72692 C134.92536,175.75332 135.54636,175.92012 136.19796,176.13792 C136.78836,176.33232 137.03736,175.40652 136.45356,175.21212 C135.72456,174.96852 135.02136,174.79752 134.29956,174.77172 C134.31156,174.27252 134.32056,173.77332 134.33016,173.27412 L135.68496,173.27412 C136.30356,173.27412 136.30356,172.31292 135.68496,172.31292 L134.35116,172.31292 C134.36736,171.57252 134.37696,170.82912 134.39316,170.08872 C134.75436,170.11212 135.11316,170.17332 135.44316,170.32692 C135.99876,170.59032 136.48836,169.76292 135.92856,169.49832 C135.43656,169.26852 134.93016,169.17432 134.40996,169.13712 C134.42376,168.44832 134.43576,167.76132 134.44716,167.07252 C134.96316,167.08152 135.47616,167.18232 136.00596,167.19432 C136.62456,167.20572 136.62456,166.24752 136.00596,166.23312 C135.47616,166.22412 134.97216,166.14432 134.46576,166.12452 C134.47536,165.52092 134.48496,164.91612 134.49636,164.31372 L136.32456,164.31372 C136.94316,164.31372 136.94316,163.35192 136.32456,163.35192 L134.51076,163.35192 C134.51496,163.09272 134.51976,162.83232 134.52456,162.57432 C134.89476,162.67092 135.26976,162.71292 135.68496,162.71292 C136.30356,162.71532 136.30356,161.75412 135.68496,161.75412 C135.26976,161.75412 134.91156,161.72172 134.54076,161.58312 C134.54796,161.14512 134.55516,160.70652 134.56236,160.26852 C134.97456,160.34952 135.37776,160.48632 135.76236,160.72692 C136.28916,161.05812 136.76976,160.22532 136.24716,159.89832 C135.71496,159.56532 135.15756,159.38952 134.57856,159.29592 C134.58576,158.83632 134.58996,158.37432 134.59716,157.91292 L136.32696,157.91292 C136.94556,157.91292 136.94556,156.95112 136.32696,156.95112 L134.61156,156.95112 C134.62296,156.27612 134.62776,155.59932 134.63736,154.92252 C135.37056,155.16852 136.10436,155.41212 136.83756,155.65572 C137.42856,155.85192 137.67696,154.92432 137.09316,154.72992 C136.27776,154.45812 135.46416,154.18632 134.64876,153.91452 C134.65596,153.32832 134.66316,152.74032 134.66976,152.15112 L136.96416,152.15112 C137.58576,152.15112 137.58576,151.19352 136.96416,151.19352 L134.68176,151.19352 C134.68656,150.83952 134.69076,150.48552 134.69316,150.12912 C134.69796,149.63712 134.70036,149.14272 134.70516,148.64952 C135.65196,148.96452 136.59876,149.24952 137.60436,149.27412 C138.22536,149.28792 138.22296,148.32612 137.60436,148.31292 C136.65036,148.29192 135.75036,147.98952 134.85276,147.68952 C134.80356,147.67332 134.75916,147.67452 134.71236,147.67332 C134.71416,147.24432 134.71896,146.81772 134.72376,146.38872 C134.76576,146.38632 134.80596,146.39112 134.85276,146.37612 C135.75516,146.09592 136.66896,146.07252 137.60436,146.07252 C138.22296,146.07252 138.22536,145.11132 137.60436,145.11372 C136.63176,145.11372 135.67056,145.14912 134.73336,145.41852 C134.73996,144.57432 134.75196,143.73072 134.76336,142.88952 C135.35676,142.91532 135.93096,142.98792 136.51656,143.17452 C137.10996,143.36532 137.36076,142.43712 136.77216,142.24932 C136.11156,142.03872 135.45516,141.95652 134.78016,141.92532 C134.78916,141.28152 134.80356,140.63712 134.81736,139.99272 L136.64556,139.99272 C137.26416,139.99272 137.26416,139.03392 136.64556,139.03392 L134.84316,139.03392 C134.85996,138.39432 134.88336,137.75652 134.90436,137.11932 C135.31236,137.13792 135.71316,137.19192 136.08336,137.36772 C136.63836,137.62992 137.12616,136.80192 136.56816,136.53792 C136.04076,136.28952 135.49476,136.20192 134.93496,136.17012 C134.96976,135.27612 135.01236,134.38152 135.05916,133.48872 C135.79476,133.58712 136.54476,133.59192 137.28576,133.59192 C137.90436,133.59192 137.90436,132.63312 137.28576,132.63312 C136.56156,132.63312 135.83016,132.63072 135.11496,132.52452 C135.14076,132.09672 135.17376,131.66532 135.20196,131.23392 C135.71076,131.09952 136.22136,131.05032 136.72296,131.28792 C137.28096,131.54832 137.76816,130.72092 137.20836,130.45812 C136.56156,130.15332 135.92376,130.11612 135.26736,130.23792 C135.31236,129.64932 135.35916,129.06132 135.40836,128.47332 L137.92536,128.47332 C138.54396,128.47332 138.54396,127.51212 137.92536,127.51212 L135.49476,127.51212 C135.50916,127.35732 135.52056,127.20252 135.53736,127.04592 C135.58176,126.60732 135.63096,126.16932 135.67536,125.72832 C136.17696,125.85492 136.66236,126.04752 137.15916,126.21612 C137.74716,126.41532 137.99796,125.48712 137.41416,125.29032 C136.86336,125.10012 136.32936,124.90332 135.77856,124.77432 C135.86496,123.97992 135.95916,123.18552 136.05276,122.39112 L138.24636,122.39112 C138.86496,122.39112 138.86496,121.43232 138.24636,121.43232 L136.17216,121.43232 C136.21896,121.05012 136.27056,120.67092 136.31976,120.29112 C136.83756,120.43632 137.36736,120.47172 137.92536,120.47172 C138.54636,120.47412 138.54636,119.51292 137.92536,119.51292 C137.42136,119.51292 136.91976,119.49672 136.44636,119.32752 C136.51416,118.80732 136.58496,118.28952 136.65516,117.76932 C137.29236,117.78792 137.93736,117.90012 138.56736,117.91212 C139.18656,117.92412 139.18416,116.96292 138.56736,116.95092 C137.96976,116.93952 137.37456,116.85732 136.78176,116.82912 C136.84956,116.33712 136.91976,115.84512 136.98756,115.35252 L138.88656,115.35252 C139.50516,115.35252 139.50516,114.39192 138.88656,114.39192 L137.12376,114.39192 C137.22696,113.64432 137.33256,112.89912 137.43756,112.15092 L139.84716,112.15092 C140.46576,112.15092 140.46576,111.19272 139.84716,111.19272 L137.57376,111.19272 C137.67936,110.44512 137.78016,109.69932 137.88576,108.95172 L140.16576,108.95172 C140.78496,108.95172 140.78496,107.99112 140.16576,107.99112 L138.01896,107.99112 C138.10836,107.35332 138.19716,106.71132 138.28656,106.07412 C139.11816,106.06932 139.97376,106.02432 140.72856,105.68712 C141.29316,105.43392 140.80356,104.60652 140.24316,104.85732 C139.70436,105.09912 139.04796,105.12672 138.41976,105.12252 C138.47136,104.73792 138.52776,104.35332 138.57936,103.96932 C138.64476,103.50012 138.70356,103.03392 138.76416,102.56772 C139.41156,102.59352 140.04876,102.65892 140.67936,102.85572 C141.27216,103.03872 141.52296,102.11292 140.93496,101.92992 C140.26416,101.72172 139.58256,101.64432 138.89076,101.61372 C138.99156,100.83552 139.08756,100.05732 139.18416,99.27912 C139.93656,99.18792 140.68656,99.04752 141.44556,99.03312 C142.06416,99.01932 142.06656,98.06052 141.44556,98.07252 C140.72376,98.08632 140.01336,98.21292 139.30116,98.30412 C139.36656,97.74912 139.42296,97.19592 139.48656,96.64272 C140.29476,96.51852 141.09396,96.33312 141.89316,96.13392 C142.49316,95.98392 142.23996,95.05812 141.63756,95.20812 C140.96076,95.37912 140.28096,95.53872 139.59636,95.65572 C139.67136,94.98312 139.73736,94.30812 139.80756,93.63312 C140.50116,93.50652 141.20676,93.41772 141.89316,93.25332 C142.49556,93.11052 142.23996,92.18472 141.63996,92.32752 C141.07056,92.46372 140.48916,92.54832 139.91076,92.64432 C139.98756,91.85652 140.06076,91.07172 140.13096,90.28632 C140.83176,90.12432 141.53016,89.95332 142.21416,89.73552 C142.80276,89.54592 142.54956,88.62012 141.95916,88.80972 C141.38736,88.99272 140.80596,89.14032 140.21976,89.27832 C140.28096,88.57512 140.33016,87.87012 140.38656,87.16452 C141.21336,87.12912 142.03416,87.04932 142.85436,86.85492 C143.45676,86.71212 143.20116,85.78632 142.59876,85.92912 C141.88836,86.09832 141.17856,86.16852 140.46156,86.20092 C140.49636,85.72992 140.52696,85.25652 140.55996,84.78552 C141.32376,84.61452 142.10436,84.52752 142.85436,84.29352 C143.44476,84.11052 143.19156,83.18472 142.59876,83.37012 C141.95436,83.56932 141.28656,83.66052 140.62776,83.78952 C140.63916,83.58312 140.65116,83.37432 140.66316,83.16852 C141.22056,82.91052 141.77136,82.72332 142.40676,82.71132 C143.02536,82.69932 143.02776,81.73872 142.40676,81.75252 C141.80436,81.76452 141.25836,81.90252 140.72376,82.10892 C140.73336,81.90972 140.74716,81.71052 140.75676,81.51132 C140.76816,81.28392 140.77056,81.05892 140.77776,80.83152 C141.12216,80.67912 141.46896,80.54352 141.84156,80.46132 C142.44636,80.33232 142.18836,79.40652 141.58656,79.53552 C141.31896,79.59432 141.06336,79.68312 140.81316,79.78392 C140.82456,79.12752 140.82936,78.47172 140.82216,77.81532 C141.40356,77.59932 142.00356,77.44512 142.61076,77.32512 C143.21976,77.20812 142.96236,76.28232 142.35756,76.39932 C141.83016,76.50252 141.31416,76.63872 140.81076,76.80972 C140.80116,76.38072 140.78916,75.95172 140.77296,75.52332 C141.39156,75.37512 142.00596,75.22752 142.64796,75.25332 C143.26896,75.27672 143.26656,74.31612 142.64796,74.29272 C141.99396,74.26692 141.36156,74.40012 140.72856,74.54832 C140.71236,74.19192 140.69796,73.83552 140.67936,73.47672 C141.21816,73.34592 141.73656,73.14432 142.28256,73.03392 C142.88916,72.91212 142.63176,71.98632 142.02696,72.10812 C141.54876,72.20412 141.08916,72.37332 140.62056,72.50412 C140.57376,71.77332 140.52216,71.04672 140.46576,70.31772 C140.98176,70.09752 141.53736,69.92592 142.08756,69.91212 C142.70676,69.89352 142.70916,68.93232 142.08756,68.95092 C141.50676,68.96772 140.93736,69.11772 140.38836,69.32412 C140.34876,68.83392 140.30916,68.34672 140.26656,67.85892 C140.93496,67.62012 141.71736,67.67172 142.40916,67.67172 C143.02776,67.66932 143.02776,66.71052 142.40916,66.71052 C141.66156,66.71052 140.90196,66.70572 140.18496,66.89592 C140.13096,66.28392 140.07696,65.67432 140.02296,65.06292 C140.04636,65.05572 140.06736,65.05572 140.09076,65.04672 C140.51316,64.83552 141.04716,64.51932 141.52536,64.72512 C142.08756,64.96692 142.57776,64.13952 142.01076,63.89592 C141.26736,63.57672 140.61336,63.75012 139.93656,64.05972 C139.89636,63.60012 139.85676,63.14352 139.81896,62.68392 C140.45196,62.45892 141.08256,62.24592 141.76896,62.23152 C142.38576,62.21772 142.38756,61.25652 141.76896,61.27092 C141.05196,61.28712 140.39796,61.47912 139.73916,61.70172 C139.67856,60.91692 139.61976,60.13152 139.57056,59.34912 C140.30196,59.33952 141.00996,59.28552 141.69156,58.96452 C142.24956,58.70172 141.76236,57.87432 141.20676,58.13712 C140.68176,58.38312 140.09076,58.39272 139.51656,58.39272 C139.50276,58.05972 139.48836,57.72912 139.47696,57.39912 C140.04396,56.96292 140.73096,56.71692 141.37056,56.40492 C141.92616,56.13312 141.44076,55.30572 140.88576,55.57512 C140.39556,55.81692 139.89636,56.02512 139.43256,56.29032 C139.40916,55.36452 139.39716,54.43632 139.39716,53.50332 C139.83996,53.29512 140.28756,53.10012 140.73096,52.88472 C141.28656,52.61292 140.80116,51.78552 140.24556,52.05492 C139.96416,52.19352 139.68096,52.32012 139.39716,52.44912 C139.40196,51.79752 139.40916,51.14352 139.42056,50.48952 C140.06316,50.22912 140.74956,50.08392 141.44796,50.07012 C142.06656,50.05812 142.06896,49.09752 141.44796,49.10892 C140.76576,49.12332 140.08656,49.24512 139.43916,49.46052 C139.44876,48.89112 139.46076,48.32592 139.46976,47.75652 C139.89636,47.55972 140.34636,47.51052 140.80836,47.51052 C141.42696,47.50812 141.42696,46.54932 140.80836,46.54932 C140.35116,46.54932 139.91496,46.60812 139.48836,46.73712 C139.50756,45.82332 139.52136,44.90652 139.52856,43.99032 L140.48736,43.99032 C141.10836,43.99032 141.10836,43.02912 140.48736,43.02912 L139.53756,43.02912 C139.53756,42.30252 139.53576,41.57832 139.52376,40.85412 C139.94316,40.80492 140.36736,40.79112 140.80836,40.78872 C141.42696,40.78872 141.42696,39.82992 140.80836,39.82992 C140.36316,39.82992 139.92936,39.84432 139.49796,39.88872 C139.48176,39.22512 139.46316,38.55972 139.42776,37.89912 C139.87296,37.72992 140.34156,37.60332 140.80836,37.58952 C141.42696,37.57332 141.42696,36.61212 140.80836,36.62832 C140.32056,36.64272 139.83756,36.75252 139.37136,36.90732 C139.33836,36.40572 139.29876,35.90412 139.25196,35.40492 C139.64796,35.28792 140.03496,35.14512 140.41236,34.96452 C140.96736,34.69512 140.48256,33.86772 139.92696,34.13472 C139.67616,34.25652 139.41576,34.35252 139.15356,34.43712 C139.08576,33.82092 139.00836,33.20412 138.91416,32.59272 C139.37136,32.35332 139.80036,32.06532 140.18736,31.68792 C140.63256,31.25412 139.95276,30.57672 139.50996,31.01052 C139.27296,31.24032 139.01736,31.42332 138.74796,31.58712 C138.67296,31.15812 138.59796,30.72912 138.50676,30.30492 C138.94236,30.07332 139.35996,29.79672 139.76976,29.52432 C140.28336,29.18232 139.80276,28.35012 139.28736,28.69512 C138.96576,28.90812 138.63576,29.13792 138.29076,29.34192 C138.14316,28.72332 137.97936,28.10652 137.79396,27.49512 C138.18336,27.20652 138.56316,26.90412 138.90756,26.56932 C139.35276,26.13552 138.67296,25.45812 138.23016,25.88952 C137.99556,26.11692 137.74476,26.32512 137.48736,26.52672 C137.33016,26.05092 137.16336,25.57512 136.97856,25.10652 C137.41896,24.75012 137.86416,24.40332 138.26736,24.00732 C138.71076,23.57412 138.03336,22.89672 137.58756,23.32992 C137.27856,23.63232 136.94076,23.90892 136.60356,24.18072 C136.48416,23.90172 136.36236,23.62512 136.23336,23.34912 C136.37136,23.17752 136.49316,22.97832 136.58016,22.73712 C138.27456,17.92512 145.78176,18.64752 149.55756,19.94112 C153.60516,21.32592 156.85836,24.64272 159.30036,28.03392 C164.87856,35.77512 167.65116,45.55092 169.08756,54.87252 C171.02136,67.43712 168.98256,80.62332 166.56816,92.97012 C163.65036,107.88792 159.67776,122.73792 155.18916,137.25492 C151.94316,147.74952 147.98916,158.17332 146.21736,169.04832 C144.68496,178.46772 144.33336,188.63232 140.26896,197.41932 C139.23996,199.64952 142.54716,201.60192 143.58576,199.35732 C144.02376,198.40812 144.41976,197.44932 144.78576,196.47912 C145.05996,197.15412 145.37136,197.81052 145.77216,198.43152 C146.10756,198.94932 146.93916,198.46692 146.60196,197.94672 C146.02296,197.05032 145.63176,196.08552 145.28736,195.08952 C145.49316,194.48232 145.68576,193.87452 145.86816,193.26372 C146.10756,193.58472 146.34156,193.91052 146.52936,194.26692 C146.81736,194.81532 147.64716,194.32692 147.35916,193.78152 C147.03756,193.17252 146.58576,192.65112 146.19876,192.08952 C146.32536,191.63472 146.43996,191.17452 146.55276,190.71852 C146.83836,191.02992 147.13416,191.33232 147.49236,191.58072 C148.00356,191.93472 148.48416,191.10192 147.97776,190.75032 C147.52536,190.43952 147.18756,190.00332 146.82216,189.59592 C146.90916,189.22332 146.99796,188.84832 147.08016,188.47332 C147.20196,188.57172 147.32856,188.66772 147.45996,188.75892 C147.96816,189.11292 148.44876,188.28072 147.94476,187.93152 C147.71316,187.77012 147.50196,187.59192 147.30036,187.40412 C147.38256,186.99672 147.45996,186.58872 147.53496,186.17832 C147.85116,186.51372 148.17216,186.84432 148.49796,187.17012 C148.93656,187.60812 149.61336,186.92832 149.17536,186.49032 C148.68996,186.00492 148.20756,185.51292 147.74796,185.00112 C147.98016,183.68472 148.18176,182.35812 148.37856,181.03152 C148.93836,181.54752 149.47536,182.08872 150.01236,182.62692 C150.45036,183.06372 151.12776,182.38632 150.68916,181.94832 C149.99316,181.24932 149.28756,180.55572 148.54236,179.90892 C148.64076,179.20572 148.73916,178.49952 148.83576,177.79752 C149.33916,178.34352 149.86896,178.86612 150.48756,179.29512 C150.99636,179.64912 151.47696,178.81692 150.97056,178.46532 C150.22056,177.94512 149.60916,177.25572 149.00196,176.56692 C149.13096,175.60812 149.26236,174.64752 149.39796,173.68872 C150.13836,174.44352 150.85356,175.21212 151.45116,176.09352 C151.79556,176.60112 152.62776,176.12412 152.27856,175.60812 C151.50036,174.45972 150.54636,173.47452 149.56656,172.49832 C149.70996,171.51372 149.86236,170.53152 150.02136,169.55412 C150.96576,170.38392 151.82136,171.29952 152.58576,172.30812 C152.95596,172.79352 153.78996,172.31772 153.41496,171.82332 C152.46336,170.56932 151.39716,169.46532 150.20196,168.46932 C150.26316,168.10572 150.33336,167.74512 150.39876,167.38392 C151.57296,168.18552 152.71416,169.03632 153.89316,169.83072 C154.40916,170.17692 154.88916,169.34352 154.37856,169.00032 C153.10116,168.14112 151.87056,167.21052 150.59316,166.34952 C150.59076,166.34952 150.59076,166.34952 150.58836,166.34832 C150.69876,165.78552 150.81336,165.22332 150.93336,164.66052 C151.66416,165.19932 152.40276,165.72912 153.11736,166.29192 C153.59796,166.67172 154.28256,165.99672 153.79476,165.61212 C152.93496,164.93232 152.03496,164.30112 151.15596,163.64592 C151.30596,162.99432 151.46976,162.34752 151.63416,161.69832 C152.21316,162.22452 152.77296,162.77172 153.32856,163.32432 C153.76656,163.76292 154.44636,163.08552 154.00836,162.64752 C153.32136,161.96052 152.63016,161.28552 151.89876,160.64952 C152.03916,160.11852 152.18916,159.58632 152.33736,159.05652 C152.89476,159.53472 153.47376,159.99192 154.06236,160.43472 C154.55676,160.80732 155.03256,159.97332 154.54476,159.60492 C153.88416,159.10812 153.23916,158.58792 152.62296,158.03712 C152.80596,157.39932 152.99316,156.76452 153.18576,156.12912 C153.84396,156.62532 154.46316,157.17612 155.12136,157.67832 C155.61336,158.05572 156.08916,157.22172 155.60436,156.85032 C154.88496,156.29952 154.21416,155.69592 153.48336,155.16372 C153.63576,154.66932 153.79476,154.17432 153.94956,153.68232 C154.76316,154.39032 155.53176,155.14752 156.29556,155.90892 C156.73176,156.34752 157.41156,155.67012 156.97296,155.23152 C156.09876,154.35492 155.21316,153.48792 154.26336,152.69352 C154.43256,152.15892 154.60836,151.62432 154.77936,151.09272 C155.58756,151.82832 156.36816,152.59272 157.14156,153.36612 C157.58016,153.80412 158.25996,153.12612 157.82136,152.68872 C156.93336,151.79952 156.03996,150.92532 155.10276,150.09432 C155.28096,149.54832 155.45916,149.00412 155.63736,148.45812 C156.19716,148.97832 156.80916,149.44032 157.35516,149.97612 C157.79556,150.41052 158.47536,149.73312 158.03256,149.29752 C157.42536,148.70112 156.73416,148.19952 156.12696,147.60192 C156.07056,147.54912 156.01236,147.51372 155.95356,147.49272 C156.19956,146.74032 156.43836,145.98792 156.68256,145.23792 C157.40196,145.82532 158.12136,146.41692 158.83836,147.01212 C159.30996,147.40332 159.99156,146.72832 159.51576,146.33232 C158.68176,145.63632 157.83996,144.94932 156.99876,144.26052 C157.17456,143.71452 157.35516,143.16852 157.52856,142.62432 C157.53996,142.58952 157.54956,142.55412 157.55916,142.52172 C158.53836,143.08152 159.47856,143.70732 160.41816,144.33072 C160.93416,144.67452 161.41416,143.84592 160.90356,143.50332 C159.90276,142.83552 158.89716,142.17432 157.84956,141.58632 C158.07936,140.85492 158.29956,140.11932 158.52456,139.38792 C159.47856,139.91772 160.38336,140.52912 161.16816,141.29112 C161.61156,141.72252 162.29076,141.04272 161.84796,140.61132 C160.95276,139.74192 159.90756,139.04592 158.81316,138.45192 C158.93256,138.05892 159.04956,137.66532 159.16896,137.27172 C160.01316,137.95332 160.92936,138.53952 161.90196,139.03392 C162.45036,139.31532 162.93756,138.48792 162.38496,138.20652 C161.33496,137.67012 160.35996,137.03232 159.47136,136.26852 C159.63576,135.71772 159.79956,135.16932 159.96156,134.61852 C160.89396,135.12252 161.85996,135.55812 162.86316,135.90492 C163.45116,136.10652 163.69956,135.17832 163.11816,134.97912 C162.12456,134.63712 161.18016,134.19432 160.26336,133.69032 C160.26156,133.66692 160.26156,133.64592 160.25676,133.62252 C160.42296,133.05732 160.58736,132.49032 160.75116,131.92452 C161.24076,132.30192 161.75436,132.64752 162.32376,132.88872 C162.88656,133.12992 163.37616,132.30192 162.80916,132.06132 C162.15756,131.78232 161.58756,131.37252 161.04156,130.93152 C161.17056,130.49112 161.28996,130.04832 161.41656,129.60972 C162.15516,129.99432 162.91656,130.33392 163.70916,130.60812 C164.29716,130.80972 164.54796,129.88152 163.96416,129.68232 C163.17216,129.40812 162.41496,129.05892 161.68416,128.66532 C161.93016,127.80252 162.16896,126.93792 162.41076,126.07512 C163.11156,126.41292 163.83096,126.71532 164.55756,127.00572 C165.13416,127.23552 165.38016,126.30732 164.81316,126.07992 C164.08656,125.78952 163.36896,125.48712 162.67296,125.13792 C162.77136,124.78392 162.86496,124.42512 162.96336,124.06932 C163.75356,124.52832 164.55516,124.95972 165.40596,125.31132 C165.97776,125.54592 166.22376,124.61772 165.66156,124.38552 C164.81076,124.03392 164.01156,123.57912 163.22136,123.11292 C163.34556,122.65332 163.46976,122.19432 163.59396,121.73472 C164.36736,122.17512 165.16656,122.57172 166.04076,122.76852 C166.64316,122.90412 166.90116,121.97832 166.29636,121.84272 C165.41496,121.64352 164.62536,121.22832 163.85436,120.77592 C163.86336,120.73872 163.87296,120.70332 163.88496,120.66612 C163.97616,120.31452 164.06976,119.96292 164.16156,119.61132 C164.80116,119.97432 165.47616,120.27432 166.13736,120.60012 C166.68996,120.87432 167.17776,120.04512 166.62216,119.77092 C165.87936,119.40492 165.12216,119.07252 164.41416,118.64352 C164.55756,118.09932 164.70036,117.55572 164.84316,117.01212 C165.70836,117.48792 166.58256,117.94512 167.40996,118.48152 C167.93016,118.81932 168.41076,117.98952 167.89476,117.65172 C166.99236,117.06612 166.03416,116.57832 165.09636,116.05332 C165.20436,115.64592 165.30996,115.23792 165.41496,114.82992 C166.38576,115.21932 167.32056,115.68312 168.25836,116.14932 C168.80916,116.42592 169.29396,115.59912 168.74076,115.32252 C167.72856,114.81372 166.71156,114.31692 165.65916,113.89752 C165.83496,113.22912 166.00836,112.55652 166.18176,111.88632 C167.02536,112.32432 167.89236,112.71132 168.79476,113.02092 C169.38336,113.22252 169.63176,112.29672 169.05036,112.09512 C168.14076,111.78312 167.26896,111.38712 166.42536,110.93472 C166.58256,110.32092 166.73916,109.70652 166.89636,109.09032 C167.78256,109.44432 168.67056,109.79832 169.52856,110.21772 C170.08176,110.48952 170.56896,109.66212 170.01156,109.39032 C169.07376,108.92832 168.09876,108.54912 167.12856,108.15972 C167.25516,107.66292 167.37936,107.16372 167.50356,106.66212 L169.52856,107.67432 C170.07936,107.95092 170.56656,107.12412 170.01156,106.84752 L167.73756,105.70812 C167.86236,105.20412 167.98656,104.69832 168.10836,104.18952 C168.75516,104.46372 169.41336,104.70972 170.06496,104.97012 C170.64156,105.19752 170.88996,104.26932 170.32056,104.04432 C169.65756,103.77912 168.98916,103.52832 168.33576,103.24512 C168.45516,102.74112 168.57216,102.23712 168.69156,101.73312 C169.56336,102.06372 170.45196,102.34512 171.33756,102.63792 C171.92616,102.83232 172.17696,101.90652 171.59316,101.71212 C170.69316,101.41692 169.79076,101.13552 168.90756,100.79832 C169.04796,100.18872 169.18656,99.57912 169.32456,98.97012 C169.99236,99.13872 170.66076,99.31692 171.33576,99.45972 C171.93996,99.58632 172.19796,98.66292 171.59076,98.53392 C170.89956,98.38872 170.21736,98.20332 169.53096,98.03232 C169.66236,97.43952 169.78836,96.84672 169.91496,96.25332 C170.74236,96.54912 171.56496,96.84912 172.39476,97.12992 C172.98576,97.32672 173.23416,96.39912 172.65036,96.20412 C171.80196,95.91612 170.96076,95.60892 170.11416,95.30892 C170.29476,94.44432 170.46816,93.57912 170.63916,92.71692 C171.52056,92.97912 172.42536,93.10812 173.37216,93.12012 C173.99076,93.12912 173.98836,92.16852 173.37216,92.16132 C172.48836,92.14932 171.64236,92.03232 170.82216,91.77672 C170.94636,91.13472 171.06336,90.49512 171.18096,89.85252 C172.02216,89.88312 172.86156,89.84352 173.70996,89.71452 C174.32136,89.61852 174.06156,88.69512 173.45436,88.78872 C172.75596,88.89672 172.05276,88.93152 171.34956,88.91052 C171.44076,88.39932 171.52296,87.88392 171.60996,87.37092 C172.24236,87.34272 172.87056,87.28632 173.49876,87.17172 C174.10836,87.05892 173.84796,86.13312 173.24316,86.24592 C172.75596,86.33472 172.26576,86.38392 171.77376,86.40972 C171.86976,85.80252 171.96156,85.19832 172.05276,84.59112 C172.88736,84.45732 173.72136,84.32592 174.55836,84.20412 C175.16976,84.11532 174.90996,83.19192 174.30276,83.27832 C173.60196,83.37912 172.90116,83.48712 172.20276,83.59932 C172.26336,83.17512 172.31736,82.74912 172.37376,82.32432 C173.05356,82.20492 173.73576,82.11372 174.43176,82.10412 C175.05036,82.09272 175.05036,81.13392 174.43176,81.14352 C173.78496,81.15252 173.14476,81.22992 172.50996,81.33072 C172.54956,81.01692 172.58496,80.70492 172.62216,80.39112 C173.43096,80.14272 174.19476,79.78152 174.88656,79.28232 C175.38096,78.92412 174.90276,78.09192 174.40116,78.45492 C173.88576,78.82512 173.33256,79.10412 172.75116,79.32012 C172.83336,78.59832 172.91076,77.87412 172.98096,77.15172 C173.86656,76.90572 174.71976,76.56852 175.52136,76.10412 C176.05596,75.79512 175.57296,74.96532 175.03656,75.27432 C174.41076,75.63792 173.75196,75.90732 173.07216,76.12092 C173.13756,75.39672 173.19636,74.67012 173.24796,73.94592 C173.97936,73.71132 174.67536,73.38552 175.30836,72.92592 C175.80516,72.56772 175.32696,71.73312 174.82296,72.09672 C174.34956,72.44112 173.84556,72.70092 173.31576,72.90012 C173.37216,71.99592 173.41416,71.09112 173.44956,70.18632 C174.09636,69.97092 174.73416,69.72912 175.40436,69.58392 C176.01156,69.45492 175.75356,68.52912 175.14876,68.65812 C174.57936,68.77992 174.03336,68.97432 173.48736,69.16212 C173.50836,68.43072 173.51976,67.69752 173.52456,66.96612 C174.15516,66.77592 174.75996,66.53472 175.30836,66.14592 C175.80756,65.79192 175.32936,64.95732 174.82296,65.31852 C174.41976,65.60412 173.98416,65.80092 173.53176,65.95572 C173.52936,64.93152 173.50596,63.90972 173.47296,62.88792 C174.17136,62.51772 174.87936,62.16132 175.52136,61.69752 C176.01576,61.33632 175.53756,60.50412 175.03656,60.86772 C174.52776,61.23552 173.97936,61.53552 173.42616,61.82592 C173.38836,60.95892 173.33256,60.09192 173.26896,59.22672 C173.79876,58.86372 174.30516,58.47012 174.76896,58.02012 C175.21416,57.58872 174.53496,56.90892 174.09156,57.34032 C173.80356,57.61932 173.49636,57.86772 173.18016,58.10412 C173.08836,57.06612 172.97856,56.02992 172.85196,54.99432 C173.45436,54.45492 174.11736,53.98872 174.88416,53.64672 C175.44876,53.39352 174.95916,52.56612 174.39876,52.81692 C173.77776,53.09592 173.21976,53.45172 172.69956,53.86212 C172.62456,53.31372 172.53576,52.76292 172.44876,52.21452 C173.19156,51.84432 173.93256,51.47412 174.67296,51.10332 C175.22616,50.82672 174.74076,49.99752 174.18756,50.27412 L172.28736,51.22332 C172.23096,50.89272 172.16076,50.56452 172.09716,50.23392 C172.69716,49.86132 173.24796,49.42332 173.82456,48.98472 C174.31236,48.61452 173.83416,47.77992 173.33916,48.15492 C172.86336,48.51612 172.40196,48.90012 171.90756,49.23552 C171.86316,49.01772 171.82776,48.79752 171.78336,48.57672 C172.30356,48.12912 172.84716,47.70492 173.40036,47.28792 C173.88996,46.92252 173.41236,46.08792 172.91496,46.45812 C172.45596,46.80492 171.99876,47.15172 171.55356,47.51772 C171.37776,46.73712 171.19236,45.95652 170.99076,45.17832 C171.56736,44.75412 172.13736,44.32332 172.65036,43.82412 C173.09316,43.39032 172.41576,42.71292 171.97056,43.14432 C171.58176,43.52412 171.15996,43.85892 170.72616,44.18712 C170.63496,43.85172 170.53416,43.51212 170.43576,43.17432 C170.91156,42.84672 171.44316,42.61452 172.01496,42.46452 C172.61316,42.30492 172.35996,41.37912 171.75996,41.53872 C171.18756,41.68872 170.65116,41.92332 170.15436,42.22512 C170.03736,41.83632 169.91976,41.44752 169.79556,41.05812 C170.34636,40.59672 170.86656,40.09752 171.38016,39.58632 C171.81816,39.14832 171.13836,38.46852 170.70036,38.90652 C170.30196,39.30492 169.90116,39.70092 169.48176,40.07172 C169.37616,39.75492 169.26336,39.43872 169.15356,39.12252 C169.61736,38.71692 170.09076,38.32332 170.53176,37.89192 C170.97456,37.45572 170.29476,36.77832 169.85196,37.21212 C169.51896,37.54272 169.16316,37.84752 168.80676,38.15412 C168.67536,37.79112 168.54396,37.42992 168.40596,37.07172 C169.15116,36.47412 169.84956,35.82012 170.53176,35.13792 C170.96976,34.69932 170.28996,34.02012 169.85196,34.45812 C169.26336,35.04672 168.66816,35.61372 168.03756,36.13872 C167.89956,35.79192 167.74956,35.44932 167.60436,35.10492 C168.18096,34.72332 168.76236,34.34832 169.26156,33.86532 C169.70676,33.43632 169.02696,32.75652 168.58176,33.18792 C168.17136,33.58392 167.69796,33.90012 167.22216,34.21212 C167.00196,33.71532 166.77696,33.22092 166.54236,32.73072 C167.05116,32.36772 167.54076,31.97592 167.98836,31.53552 C168.43176,31.09932 167.75196,30.42252 167.31156,30.85572 C166.93656,31.22412 166.53576,31.55412 166.11336,31.86372 C165.77376,31.18632 165.41736,30.51852 165.04716,29.85972 C165.24156,29.73312 165.44076,29.61852 165.65916,29.54112 C166.23576,29.33232 165.98736,28.40412 165.40356,28.61532 C165.10356,28.72332 164.83416,28.87512 164.57616,29.04192 C164.22936,28.45332 163.87296,27.87252 163.50036,27.30492 C184.11156,26.93952 197.58996,50.24832 200.70756,68.29932 C205.74396,97.46052 192.54636,126.60732 178.95276,151.59912 C174.39636,159.97692 169.42536,167.70732 163.06656,174.82332 C157.43256,181.12992 151.72056,187.42992 148.71576,195.47172 C147.84636,197.79672 151.55916,198.79032 152.41896,196.49352 C152.52216,196.21452 152.63256,195.94032 152.74476,195.66612 C153.06576,196.24512 153.43176,196.80192 153.83256,197.34432 C154.19556,197.83632 155.03016,197.35812 154.66236,196.85892 C154.10916,196.11132 153.62376,195.33312 153.23736,194.51052 C153.45516,194.02452 153.68916,193.54752 153.92856,193.07412 C154.28016,193.87452 154.66416,194.66292 155.11236,195.42432 C155.42616,195.95652 156.25596,195.47412 155.94156,194.93952 C155.38176,193.98552 154.91976,192.99192 154.50756,191.97432 C154.77936,191.47992 155.06736,190.99512 155.35836,190.51452 C156.00516,191.57172 156.66576,192.61932 157.42776,193.60032 C157.80756,194.08872 158.48256,193.40412 158.10756,192.92412 C157.29396,191.87832 156.60756,190.74672 155.92296,189.61212 C156.17376,189.21852 156.43656,188.83392 156.69876,188.44752 C157.33656,189.60192 157.95996,190.76772 158.63256,191.90412 C158.94876,192.43632 159.77856,191.95332 159.46236,191.41932 C158.71236,190.15332 158.02776,188.85192 157.31076,187.56852 C157.58016,187.18632 157.86156,186.80892 158.13996,186.43392 C158.54796,187.33632 159.00756,188.21532 159.59316,189.02412 C159.95196,189.52092 160.78656,189.04272 160.42296,188.53872 C159.75276,187.61532 159.25116,186.60492 158.80356,185.56452 C159.18576,185.07012 159.57936,184.57992 159.97296,184.09512 C160.77216,185.38632 161.60436,186.64752 162.54876,187.84272 C162.93096,188.32692 163.60596,187.64352 163.22616,187.16292 C162.26316,185.94192 161.42616,184.63632 160.61736,183.31212 C160.88916,182.98392 161.16576,182.65812 161.44236,182.33232 C162.11736,183.40332 162.93576,184.37532 163.82856,185.28312 C164.26236,185.72412 164.94156,185.04432 164.50596,184.60332 C163.59156,183.67452 162.77376,182.67432 162.10596,181.56372 C162.43416,181.18392 162.76416,180.81132 163.09476,180.43632 C163.61316,181.17912 164.19876,181.87332 164.71236,182.62452 C165.05916,183.13152 165.89076,182.65332 165.54156,182.14032 C164.96736,181.30032 164.30436,180.53712 163.75116,179.69112 C164.14236,179.24952 164.53416,178.81212 164.92776,178.37412 C165.65436,179.55492 166.47456,180.66852 167.34876,181.76292 C167.73336,182.24592 168.40836,181.56132 168.02616,181.08312 C167.13996,179.97252 166.31496,178.84032 165.59316,177.63072 C165.76416,177.44112 165.93576,177.24912 166.10436,177.05892 C166.73256,177.77412 167.32056,178.52412 167.98836,179.20332 C168.42216,179.64432 169.09956,178.96692 168.66576,178.52412 C167.98656,177.83232 167.38836,177.06852 166.74876,176.33952 C167.16576,175.87092 167.58096,175.40112 167.99556,174.93312 C168.51156,175.78392 169.05516,176.61852 169.51236,177.50412 C169.79556,178.05492 170.62536,177.57012 170.34156,177.01932 C169.83576,176.03952 169.21896,175.12332 168.65676,174.17412 C168.86856,173.93052 169.07496,173.68332 169.28436,173.43852 C169.74216,174.11652 170.27976,174.74052 170.73036,175.42632 C171.07176,175.94352 171.84156,175.37172 171.50196,174.85452 C171.03036,174.13692 170.45976,173.48772 169.98756,172.76772 C169.96656,172.73652 169.94076,172.72092 169.91676,172.69752 C170.33556,172.19712 170.74896,171.69312 171.15756,171.18552 C171.79716,172.10892 172.44636,173.02452 173.03256,173.98392 C173.35356,174.51132 174.18576,174.03072 173.86236,173.49912 C173.21316,172.43952 172.48836,171.42912 171.78336,170.40732 C172.18416,169.89672 172.57536,169.37832 172.95996,168.85812 C173.46576,169.69752 174.02856,170.49912 174.70836,171.20112 C175.13916,171.64752 175.81656,170.96772 175.38576,170.52252 C174.66576,169.77912 174.08496,168.91212 173.56896,168.01212 C173.77296,167.72412 173.97456,167.43552 174.17376,167.14752 C174.84636,167.99832 175.54476,168.82692 176.30916,169.60032 C176.74236,170.04432 177.42216,169.36452 176.98656,168.92412 C176.17536,168.10032 175.44156,167.22252 174.73416,166.31772 C174.92616,166.02912 175.10916,165.73872 175.29876,165.44832 C175.87296,166.12092 176.37936,166.84272 176.87376,167.58312 C177.21336,168.09672 178.04556,167.61612 177.70116,167.09832 C177.12456,166.23552 176.52696,165.39432 175.83996,164.61852 C175.98756,164.38632 176.13996,164.15892 176.28756,163.92612 C176.84076,164.58312 177.35436,165.27252 177.83256,165.98472 C178.17696,166.49352 179.00916,166.01532 178.66236,165.49932 C178.09716,164.65812 177.48756,163.84032 176.82456,163.07172 C176.97696,162.82992 177.12696,162.58392 177.27696,162.34032 C177.90756,163.05972 178.51656,163.79832 179.18916,164.47992 C179.62296,164.92332 180.30036,164.24352 179.86656,163.80192 C179.14236,163.06452 178.48836,162.26292 177.80436,161.48712 C177.96816,161.21772 178.12536,160.94352 178.28916,160.67412 C178.96896,161.50572 179.70036,162.28872 180.56496,162.95652 C181.05516,163.33392 181.53336,162.49932 181.05036,162.12612 C180.18996,161.46372 179.47536,160.64952 178.80756,159.80112 C179.08656,159.33312 179.35356,158.85492 179.63016,158.38392 C180.27456,158.91612 180.83736,159.54432 181.35276,160.22412 C181.72296,160.71132 182.55756,160.23312 182.18256,159.73872 C181.56576,158.92452 180.89796,158.17332 180.11736,157.54752 C180.49476,156.89352 180.86076,156.23232 181.22856,155.57412 C181.68996,156.16932 182.17776,156.74592 182.63256,157.34592 C183.00276,157.83072 183.83736,157.35192 183.46236,156.86052 C182.90196,156.12012 182.28756,155.41692 181.74156,154.66692 C181.95996,154.27452 182.17056,153.87612 182.38656,153.48312 C182.91576,154.00572 183.48096,154.49592 184.08576,154.95732 C184.58016,155.32992 185.05596,154.49592 184.57056,154.12692 C183.96156,153.66372 183.38916,153.15732 182.85756,152.61612 C183.04956,152.25972 183.23736,151.90032 183.42696,151.54512 C184.13016,152.24592 184.87776,152.89932 185.58996,153.59952 C186.03096,154.03632 186.71076,153.35652 186.26736,152.92332 C185.49156,152.15652 184.64316,151.46292 183.88836,150.67452 C184.18416,150.11772 184.47216,149.55192 184.76316,148.99272 C185.37456,149.50812 185.98656,150.02412 186.64716,150.47532 C187.15836,150.82692 187.63836,149.99592 187.13016,149.64912 C186.45996,149.18712 185.83416,148.65732 185.21076,148.12992 C185.42616,147.71052 185.63736,147.28872 185.85036,146.86692 C186.63996,147.54912 187.41816,148.24272 188.24556,148.87452 C188.73756,149.25192 189.21576,148.41852 188.73096,148.04832 C187.88496,147.40332 187.09476,146.69112 186.28836,145.99752 C186.55596,145.46772 186.80916,144.93312 187.07136,144.40032 C187.75356,144.97092 188.47056,145.49952 189.20676,145.99512 C189.72216,146.34432 190.20276,145.50972 189.69156,145.16772 C188.93256,144.65652 188.19876,144.10812 187.50276,143.51532 C187.71816,143.07612 187.92216,142.63392 188.13336,142.19592 C188.93016,142.74432 189.69396,143.31852 190.38756,143.99952 C190.83096,144.43392 191.51076,143.75652 191.06736,143.32332 C190.29636,142.56612 189.43836,141.92832 188.55276,141.32172 C188.90196,140.59032 189.24396,139.85412 189.58836,139.12092 C190.20036,139.65192 190.77696,140.22912 191.34876,140.80032 C191.78736,141.23952 192.46656,140.55972 192.02856,140.12412 C191.37456,139.47012 190.71816,138.81612 190.00836,138.22452 C190.11816,137.98872 190.22376,137.74932 190.33176,137.51292 C190.91316,137.98392 191.45196,138.50412 191.91336,139.10412 C192.28656,139.58712 193.12056,139.10892 192.74316,138.61932 C192.15516,137.85492 191.47536,137.20572 190.73736,136.62252 C190.96896,136.11612 191.19156,135.60732 191.42376,135.09912 C192.28416,135.74352 193.14396,136.39032 194.00676,137.03472 C194.50116,137.40732 194.97936,136.57332 194.49156,136.20732 C193.60116,135.53952 192.71316,134.87412 191.82456,134.20812 C192.14316,133.49832 192.45756,132.78792 192.77376,132.07692 C193.84956,132.73152 194.91336,133.40652 195.92616,134.15652 C196.42536,134.52432 196.90356,133.69032 196.41156,133.32612 C195.36816,132.55572 194.27376,131.86452 193.16736,131.19192 C193.38096,130.70652 193.58736,130.21932 193.79796,129.73152 C194.75916,130.54932 195.80676,131.25972 196.88736,131.91612 C197.41656,132.23712 197.89956,131.40732 197.36976,131.08632 C196.25196,130.40892 195.17856,129.66612 194.20116,128.80032 C194.38176,128.38392 194.56656,127.96692 194.74236,127.54932 C194.74956,127.53552 194.75436,127.51932 194.76156,127.50492 C195.64476,128.27412 196.58916,128.97252 197.52696,129.67452 C198.02136,130.04832 198.49956,129.21372 198.01236,128.84592 C197.03496,128.11452 196.05996,127.37832 195.15276,126.56052 C195.25836,126.31212 195.35916,126.05652 195.46236,125.80572 C196.46976,126.56292 197.47776,127.31772 198.48756,128.07432 C198.98256,128.44752 199.46076,127.61292 198.97056,127.24752 C197.92536,126.46212 196.88016,125.67672 195.83496,124.89192 C196.00836,124.46052 196.17936,124.02432 196.35036,123.58872 C197.21076,124.22412 198.16656,124.71372 199.12776,125.19432 C199.67856,125.47092 200.16576,124.64352 199.61076,124.36692 C198.60756,123.86292 197.59716,123.35652 196.71816,122.65812 C196.94556,122.07432 197.16816,121.48632 197.38836,120.89832 C197.40516,120.91932 197.40996,120.94032 197.43096,120.95892 C198.40596,121.91772 199.51236,122.65812 200.72616,123.27432 C201.27636,123.55332 201.76416,122.72592 201.21156,122.44512 C200.06736,121.86612 199.02696,121.18392 198.10836,120.27912 C197.96736,120.14112 197.80596,120.12432 197.66076,120.16932 C197.81736,119.74272 197.96976,119.31612 198.12456,118.88712 C199.19556,119.61612 200.32056,120.26532 201.36816,121.03392 C201.86736,121.40172 202.34556,120.56772 201.85116,120.20652 C200.75676,119.40012 199.57536,118.72752 198.45996,117.95412 C198.58656,117.59832 198.70836,117.23952 198.83016,116.88312 C200.01816,117.46692 201.21336,118.02672 202.44156,118.52412 C203.01576,118.75572 203.26416,117.82512 202.69716,117.59832 C201.48756,117.10812 200.31336,116.54832 199.14636,115.96932 C199.41156,115.18632 199.66896,114.39912 199.91976,113.60892 C201.12216,113.99112 202.25916,114.52752 203.28756,115.27332 C203.78916,115.63872 204.26736,114.80412 203.77296,114.44592 C202.69236,113.66052 201.47856,113.09592 200.20836,112.69512 C200.32056,112.33872 200.42616,111.98232 200.53656,111.62592 C201.65676,112.32432 202.85436,112.89672 203.92776,113.67432 C204.42936,114.03792 204.90756,113.20572 204.41316,112.84512 C203.27616,112.02252 201.99876,111.43152 200.82216,110.67432 C201.04956,109.90812 201.26736,109.13952 201.48096,108.36852 C202.52376,108.82512 203.54796,109.32432 204.56736,109.83312 C205.11816,110.10972 205.60596,109.28232 205.05276,109.00572 C203.95836,108.45732 202.85676,107.92752 201.73656,107.44032 C201.88656,106.87752 202.03656,106.31292 202.17936,105.74592 C203.53836,106.29912 204.85596,106.93872 206.16816,107.59512 C206.71896,107.86932 207.20676,107.04192 206.65356,106.76532 C205.25916,106.06932 203.85516,105.39672 202.41156,104.81052 C202.66656,103.77432 202.90836,102.73632 203.13576,101.69592 C204.36336,102.46452 205.57776,103.24032 206.92296,103.80252 C207.49476,104.04192 207.74076,103.11132 207.17856,102.87672 C205.81656,102.30972 204.59316,101.47752 203.34876,100.69752 C203.48016,100.06932 203.60436,99.44112 203.72616,98.81292 C205.21896,99.40812 206.70996,100.00572 208.20276,100.60332 C208.77696,100.83312 209.02536,99.90252 208.45836,99.67512 C206.94156,99.07092 205.42296,98.46372 203.90676,97.85652 C203.99556,97.36932 204.08256,96.87912 204.16416,96.39192 C205.46976,97.13712 206.80596,97.79592 208.20276,98.36292 C208.77696,98.59512 209.02296,97.66692 208.45836,97.43712 C207.02616,96.85572 205.66236,96.15972 204.32856,95.37912 C204.47136,94.49112 204.60276,93.59832 204.71976,92.70492 C205.64556,93.05412 206.59476,93.31932 207.56316,93.56292 C208.16316,93.71292 208.41816,92.78712 207.81576,92.63712 C206.80596,92.38392 205.80756,92.11212 204.84396,91.72752 C204.92376,91.09032 204.98916,90.45012 205.05516,89.81292 C206.28996,90.10572 207.50676,90.31212 208.77696,90.04272 C209.38176,89.91372 209.12556,88.98792 208.52136,89.11692 C207.37536,89.36052 206.26416,89.12412 205.15116,88.84932 C205.19316,88.39752 205.22856,87.94512 205.26156,87.49272 C206.11896,87.89832 207.05916,88.12092 208.01076,88.13952 C208.62936,88.15092 208.62696,87.19032 208.01076,87.17832 C207.06816,87.15972 206.15196,86.90892 205.33416,86.44932 C205.35996,86.08152 205.38336,85.71132 205.40436,85.34352 C206.12376,85.52172 206.84316,85.70172 207.56316,85.87992 C208.16316,86.03232 208.41816,85.10652 207.81816,84.95652 C207.03096,84.75972 206.24316,84.56292 205.45836,84.36612 C205.47696,83.90652 205.49076,83.44752 205.50276,82.98792 C206.41416,83.25972 207.34956,83.33712 208.32936,83.33952 C208.94796,83.33952 208.94796,82.37832 208.32936,82.37832 C207.36156,82.37832 206.42376,82.31532 205.52136,81.99432 C205.52376,81.74352 205.53096,81.49512 205.53096,81.24672 C206.82696,81.37512 208.11336,81.32172 209.41656,81.07992 C210.02556,80.97012 209.76816,80.04432 209.16156,80.15412 C207.94956,80.37912 206.74716,80.41692 205.53996,80.28312 C205.53576,79.69272 205.52856,79.10172 205.51236,78.51132 C205.57056,78.50652 205.63176,78.49932 205.69236,78.47412 C206.70756,78.03552 207.85596,77.56452 208.66896,76.79832 C209.11896,76.37172 208.43916,75.69432 207.98916,76.11852 C207.31656,76.75332 206.34396,77.16132 205.47696,77.52912 C205.45836,77.01132 205.43256,76.49352 205.40196,75.97512 C206.23656,75.29592 207.15516,74.70972 207.78576,73.82172 C208.14396,73.31532 207.30996,72.83472 206.95596,73.33632 C206.52696,73.94112 205.92696,74.39352 205.32456,74.84592 C205.28496,74.28792 205.23576,73.73472 205.18176,73.17912 C205.97136,72.24912 206.92296,71.47332 207.93336,70.79352 C208.44396,70.45092 207.96336,69.61692 207.44796,69.96372 C206.58096,70.54752 205.77456,71.19192 205.04796,71.92332 C205.01076,71.59272 204.98016,71.25972 204.93756,70.92912 L207.06816,68.79912 C207.50676,68.36052 206.82936,67.68072 206.39076,68.11932 L204.77616,69.73392 C204.64956,68.83632 204.49956,67.94352 204.33756,67.05012 L206.42856,64.95732 C206.86656,64.51932 206.18916,63.84192 205.75116,64.27992 L204.11976,65.91132 C203.98656,65.23872 203.83836,64.56852 203.68416,63.89832 C204.11496,63.50172 204.56316,63.12672 205.05276,62.79432 C205.56336,62.44752 205.08336,61.61532 204.56736,61.96452 C204.16656,62.23632 203.78916,62.53392 203.42616,62.84592 C203.32776,62.44932 203.23416,62.05332 203.12856,61.65732 C203.72856,61.20732 204.28416,60.70332 204.83016,60.15732 C205.26816,59.71932 204.58836,59.04192 204.15036,59.47992 C203.72856,59.90172 203.30916,60.29832 202.86156,60.66132 C202.66896,59.98392 202.46496,59.30892 202.24956,58.63392 C202.48656,58.24932 202.73736,57.87252 202.98576,57.49932 C203.33016,56.98392 202.49796,56.50332 202.15596,57.01692 L201.86076,57.46692 C201.48336,56.34912 201.07056,55.23552 200.63016,54.12912 C201.01656,53.54352 201.44796,52.99032 201.94956,52.47672 C202.38576,52.03632 201.70596,51.35652 201.27216,51.79932 C200.87856,52.20012 200.52696,52.62912 200.20116,53.07432 C200.03496,52.68072 199.86816,52.28952 199.69476,51.90012 C198.96336,50.26692 198.14316,48.63312 197.24556,47.02092 C197.29956,47.04672 197.35356,47.06292 197.40516,47.09112 C198.61416,47.73792 199.77936,48.45972 200.92776,49.20972 C203.33256,50.77752 205.52376,52.63392 207.55116,54.66372 C211.21416,58.32672 214.07616,62.79672 216.03756,67.58232 C220.08576,77.48952 220.16496,88.59432 218.01336,98.94912 M150.07776,212.82612 C149.89236,212.40732 149.55996,212.06772 149.07936,211.91292 C149.81736,211.19352 150.57456,210.49512 151.35036,209.81772 C151.50276,209.88792 151.65276,209.93712 151.80036,209.96052 C151.21236,210.90972 150.63996,211.86612 150.07776,212.82612 M148.65036,208.21452 C149.27856,208.54512 149.88756,208.90812 150.48996,209.29512 C149.57136,210.10812 148.68336,210.95412 147.80916,211.81932 C147.00996,211.79352 146.21496,211.66212 145.42536,211.47432 C146.35116,210.28872 147.44556,209.11692 148.65036,208.21452 M144.56976,208.01052 C144.70836,207.54432 144.84156,207.07692 144.96576,206.60652 C145.27536,206.71452 145.58256,206.82912 145.88916,206.94912 C145.43736,207.28632 144.99876,207.64032 144.56976,208.01052 M146.92056,207.37452 C147.18576,207.49272 147.44796,207.61692 147.70836,207.74352 C146.47056,208.73712 145.35996,209.97012 144.41976,211.21452 C144.15276,211.13952 143.88576,211.06452 143.62056,210.98712 C143.75196,210.59112 143.88336,210.19272 144.01236,209.79432 C144.92616,208.92012 145.89636,208.10652 146.92056,207.37452 M144.21576,224.51292 C143.14716,223.98792 142.02936,223.56132 140.87856,223.21932 C141.02856,221.91612 141.17376,220.61292 141.36336,219.32412 C141.58836,217.78632 141.95916,216.29352 142.39236,214.81932 C144.38916,215.32692 146.38656,215.74512 148.40436,215.66532 C148.43016,215.66292 148.45356,215.65572 148.47936,215.65332 C146.90196,218.53872 145.46496,221.48712 144.21576,224.51292 M135.19956,205.99752 C135.20196,205.85892 135.20196,205.72092 135.20196,205.58472 C135.20196,205.27332 135.14076,205.00032 135.03576,204.76692 C135.50436,204.79272 135.97056,204.82452 136.43736,204.86532 C136.01736,205.23312 135.60276,205.60812 135.19956,205.99752 M137.53836,207.35652 C136.88736,208.03872 136.25196,208.74912 135.64956,209.48472 C135.49476,209.47092 135.34236,209.45412 135.18576,209.44032 C135.18996,208.74192 135.19236,208.04592 135.19476,207.34752 C136.00836,206.52432 136.85676,205.73712 137.74716,204.99672 C138.47856,205.08312 139.20036,205.19112 139.91976,205.31532 C139.02216,205.54032 138.11316,206.75652 137.53836,207.35652 M136.64076,226.21212 C136.41156,227.74512 136.11816,229.26372 135.68256,230.75412 C135.54636,229.19952 135.44076,227.64192 135.36576,226.08312 C135.79236,226.11132 136.21896,226.15812 136.64076,226.21212 M135.22776,222.25332 C135.15276,219.26532 135.14796,216.27252 135.16416,213.27912 C136.34796,213.36852 137.52696,213.59352 138.70116,213.87012 C138.27456,215.32092 137.90436,216.79272 137.66076,218.30412 C137.43996,219.67332 137.27856,221.05332 137.11896,222.43632 C136.49076,222.35652 135.86076,222.29112 135.22776,222.25332 M140.28096,208.91532 L139.90836,210.06132 C139.71336,210.02412 139.51896,209.99592 139.32456,209.96292 C139.64076,209.61132 139.95996,209.26212 140.28096,208.91532 M140.45676,205.41612 C140.72616,205.46772 141.00036,205.50972 141.26976,205.56852 C141.15516,206.00112 141.03576,206.43312 140.91156,206.85972 C139.98096,207.80652 139.08576,208.78632 138.20196,209.77992 C137.73996,209.71452 137.27616,209.65332 136.80996,209.60112 C137.14236,209.21532 137.48016,208.83312 137.82456,208.45812 C138.35916,207.87012 139.44156,206.33712 140.28996,206.20812 C140.72376,206.14032 140.71236,205.65732 140.45676,205.41612 M139.59156,241.07412 L139.59156,241.07832 C135.99876,240.79272 132.41076,241.16532 128.79876,241.13232 C127.76316,236.52432 126.44556,232.02252 124.91076,227.60892 C125.41236,227.42832 125.92776,227.26452 126.44796,227.11212 C126.83256,229.40112 127.26576,231.68952 128.26416,233.67252 C129.37776,235.88472 132.68916,233.93952 131.58096,231.73392 C130.80756,230.19432 130.67616,228.13152 130.36656,226.45572 C130.35516,226.39512 130.34076,226.33392 130.32936,226.27332 C130.72776,226.21932 131.12856,226.17612 131.52696,226.13952 C131.64396,228.49272 131.81976,230.84112 132.08256,233.18472 C132.28836,235.01772 134.52216,235.48152 135.48996,234.54672 C136.42056,235.26612 138.15756,235.15812 138.73416,233.69352 C139.58016,231.55572 140.05356,229.32252 140.39076,227.06052 C141.23736,227.34672 142.05996,227.69112 142.84236,228.10812 C141.36336,232.26852 140.23836,236.57532 139.59156,241.07412 M138.62856,244.80972 C139.02936,244.83792 139.42776,244.87092 139.82376,244.91772 C139.83996,245.34192 139.84956,245.78712 139.85676,246.24432 C139.45116,245.76132 139.04316,245.28312 138.62856,244.80972 M139.72056,249.85032 C138.11076,248.13072 136.43016,246.47412 134.80116,244.77012 C135.63336,244.74432 136.46316,244.73472 137.29236,244.75032 C138.16236,245.72412 139.01496,246.71292 139.84716,247.71852 C139.83096,248.42532 139.79556,249.14112 139.72056,249.85032 M139.22376,252.51852 C137.04396,249.91212 134.73576,247.41372 132.48996,244.86132 C132.83496,244.84752 133.17936,244.83072 133.52376,244.81692 C135.50436,246.92832 137.58756,248.94432 139.54956,251.07612 C139.46316,251.57172 139.35996,252.05652 139.22376,252.51852 M137.72616,255.37992 C134.52936,252.24432 131.94636,248.54112 129.25596,244.96212 C129.92136,244.95732 130.58916,244.93632 131.25756,244.91052 C133.77936,247.80192 136.40436,250.60572 138.84876,253.56132 C138.56076,254.24592 138.19476,254.86452 137.72616,255.37992 M136.18176,256.51932 C133.68096,253.01532 130.40196,250.09932 127.78416,246.67692 C127.93176,246.18792 128.09796,245.70732 128.27136,245.24352 C131.05596,248.93472 133.70916,252.78072 137.01156,256.02432 C136.75596,256.21212 136.48416,256.38312 136.18176,256.51932 M134.62056,256.94592 C133.90596,257.02992 133.18176,257.01852 132.48096,256.91292 C130.61736,254.63952 128.82696,252.31452 127.15596,249.89352 C127.20276,249.20412 127.31976,248.51292 127.47696,247.82832 C129.95436,250.91292 132.91416,253.63872 135.23256,256.83552 C135.03576,256.87992 134.83416,256.92012 134.62056,256.94592 M127.48836,253.00572 C127.34076,252.54912 127.24476,252.08232 127.18836,251.60892 C128.38656,253.27692 129.63576,254.90892 130.92216,256.50972 C129.34476,255.90492 128.04876,254.74272 127.48836,253.00572 M124.00356,206.19912 C123.89076,205.92432 123.78096,205.64952 123.66576,205.37832 C124.02936,205.32612 124.39476,205.28472 124.76076,205.23792 C124.50276,205.55112 124.24956,205.87092 124.00356,206.19912 M124.82616,208.23312 C124.69236,207.89592 124.56156,207.56052 124.42536,207.22452 C124.97376,206.47692 125.54796,205.75032 126.17856,205.07172 C126.58656,205.02612 126.99396,204.98712 127.40436,204.94932 C126.44076,205.94832 125.58996,207.06852 124.82616,208.23312 M125.66736,209.34192 C125.61576,209.41212 125.58996,209.48472 125.58336,209.55192 C125.50836,209.55972 125.43336,209.56692 125.36076,209.57532 C125.33016,209.49432 125.29476,209.41452 125.26416,209.33232 C126.29076,207.69432 127.47456,206.11932 128.91156,204.83232 C129.13416,204.81612 129.35436,204.80652 129.57696,204.79512 C128.18736,206.23392 126.84876,207.71772 125.66736,209.34192 M131.36316,205.58472 C131.36316,205.81212 131.36076,206.03952 131.36076,206.26932 C130.53096,207.21132 129.78096,208.25652 129.06816,209.28072 C128.31156,209.30892 127.55676,209.35332 126.80196,209.42172 C128.06736,207.74832 129.50436,206.22432 130.97616,204.73392 C131.17056,204.72612 131.36496,204.71772 131.56236,204.71532 C131.43756,204.95892 131.36316,205.24752 131.36316,205.58472 M130.24956,209.25492 C130.60356,208.74912 130.97136,208.24512 131.35356,207.75732 C131.35116,208.25652 131.35116,208.75572 131.34876,209.25492 C130.98096,209.24952 130.61496,209.24952 130.24956,209.25492 M131.32536,213.12432 C131.30916,216.18312 131.31156,219.24432 131.38836,222.29952 C130.76076,222.34932 130.13496,222.42012 129.51336,222.51132 C129.27216,221.52252 129.01656,220.53792 128.73996,219.55332 C128.14956,217.45032 127.47936,215.37612 126.75276,213.32172 C128.26416,213.17172 129.78996,213.11532 131.32536,213.12432 M119.77056,214.77612 C120.80196,214.43232 121.83996,214.15332 122.88576,213.92532 C123.85596,216.66372 124.73496,219.43392 125.49876,222.24672 C125.59236,222.59592 125.67696,222.95412 125.75676,223.31292 C125.02776,223.52172 124.31076,223.75032 123.61236,224.01372 C122.43336,220.89432 121.14396,217.81932 119.77056,214.77612 M117.99396,210.95412 C118.06236,210.91932 118.12536,210.86532 118.17696,210.78552 C118.94316,209.60112 119.56656,208.33152 120.24876,207.09672 C120.31236,207.24672 120.36816,207.39912 120.43176,207.54912 C119.92296,208.34952 119.42376,209.15652 118.94796,209.98152 C118.63836,210.51852 119.46816,211.00032 119.77776,210.46692 C120.13176,209.85192 120.49716,209.24592 120.87216,208.64592 C121.02696,209.02692 121.18176,209.41212 121.33416,209.79432 C121.31076,209.82432 121.28736,209.85492 121.26336,209.88552 C121.13736,210.03792 121.12536,210.21612 121.17696,210.36612 C120.15756,210.62172 119.14476,210.91692 118.15116,211.27692 C118.09956,211.17012 118.04556,211.06212 117.99396,210.95412 M116.92296,208.76772 C117.42696,207.94752 117.91416,207.12012 118.40676,206.29272 C118.86156,206.19912 119.31576,206.10732 119.77776,206.02332 C119.01156,207.33552 118.33836,208.70652 117.53256,210.00192 C117.32856,209.59032 117.12456,209.17992 116.92296,208.76772 M115.96236,206.80812 C116.34636,206.72172 116.73996,206.63952 117.13176,206.55492 C116.89716,206.95332 116.66316,207.35112 116.42376,207.74832 C116.26656,207.43632 116.11896,207.12012 115.96236,206.80812 M219.50136,66.00492 C217.27056,60.56292 213.96816,55.66452 209.81076,51.50652 C207.70596,49.39932 205.32456,47.55972 202.85676,45.89832 C201.52536,45.00252 200.13096,44.20812 198.71736,43.44912 C197.44476,42.76692 196.08756,42.80892 194.69076,42.84672 C187.02936,31.32672 175.12056,21.97332 160.76976,23.65092 C159.61236,22.29672 158.35596,21.04032 156.98016,19.90572 C151.19796,15.13872 138.61236,12.24672 133.90836,19.58712 C128.68656,13.35252 119.45916,13.11612 112.28016,16.87092 C111.00516,17.53632 109.84476,18.31932 108.77616,19.19832 C101.39796,13.92912 90.93996,20.00172 84.80676,24.74352 C80.39316,28.15332 76.95036,32.40972 74.34876,37.15572 C55.43256,50.88312 50.79636,74.84112 53.51496,96.91452 C55.05516,109.40172 59.84076,120.84912 66.19476,131.61852 C72.58176,142.43952 80.18916,152.48472 86.50356,163.35192 C101.21736,188.67612 118.77936,213.52092 125.19156,242.57412 C125.20356,242.62992 125.22696,242.67612 125.24316,242.73072 C125.12856,242.87532 125.03016,243.04032 124.95036,243.23232 C123.46896,246.86292 122.63256,251.15412 124.10436,254.92332 C125.69556,258.99912 129.87936,260.81772 134.04396,260.81772 C140.21496,260.81772 142.50756,256.08312 143.28336,250.90332 C143.32776,250.80972 143.34396,250.70412 143.32536,250.59912 C143.67456,248.07612 143.67696,245.46852 143.60196,243.26532 C143.58996,242.90112 143.47056,242.52432 143.26656,242.19912 C143.27616,242.16372 143.28756,242.13312 143.29476,242.09352 C147.00276,216.30972 166.55196,196.60812 181.26816,176.37612 C190.01736,164.34912 198.12696,151.83792 205.30836,138.80892 C211.70436,127.20012 218.08176,114.86772 221.27136,101.92992 C224.17536,90.15252 224.14476,77.33472 219.50136,66.00492" id="Fill-1" fill="#222222" mask="url(#mask-2)"></path>
                    </g>
                    <rect id="Rectangle-2" fill="#222222" x="0" y="89.4" width="276" height="4.8" rx="2.4"></rect>
                    <rect id="Rectangle-2-Copy" fill="#222222" x="0" y="168.6" width="276" height="4.8" rx="2.4"></rect>
                    <path d="M48.147,122.1888 C43.701,122.1888 40.3494,124.3776 39.0498,126.9768 L39.0498,107.688 C39.0498,106.4568 38.0922,105.4992 36.861,105.4992 C35.6298,105.4992 34.6722,106.4568 34.6722,107.688 L34.6722,152.5584 C34.6722,153.7896 35.6298,154.7472 36.861,154.7472 C38.0922,154.7472 39.0498,153.7896 39.0498,152.5584 L39.0498,135.6636 C39.0498,130.1916 41.3754,126.0876 48.147,126.0876 C54.7818,126.0876 56.355,129.7812 56.355,135.1848 L56.355,152.5584 C56.355,153.7896 57.3126,154.7472 58.5438,154.7472 C59.775,154.7472 60.7326,153.7896 60.7326,152.5584 L60.7326,134.2956 C60.7326,128.4816 58.6806,122.1888 48.147,122.1888 Z M79.1634,126.2928 C84.1566,126.2928 87.2346,129.1656 87.2346,133.8168 L87.2346,135.6636 L77.5902,135.6636 C70.203,135.6636 65.6202,139.2888 65.6202,145.308 C65.6202,151.6008 70.203,155.0892 77.4534,155.0892 C81.5574,155.0892 85.5246,153.3792 87.2346,150.1644 L87.2346,152.6268 C87.2346,153.7896 88.1922,154.7472 89.355,154.7472 C90.5178,154.7472 91.4754,153.7896 91.4754,152.6268 L91.4754,133.8168 C91.4754,126.84 87.0978,122.1888 79.1634,122.1888 C73.4178,122.1888 69.7242,124.5828 67.809,127.5924 C67.6038,127.9344 67.467,128.2764 67.467,128.7552 C67.467,129.8496 68.3562,130.7388 69.4506,130.7388 C70.0662,130.7388 70.545,130.5336 71.229,129.7812 C73.3494,127.3872 75.5382,126.2928 79.1634,126.2928 Z M77.8638,151.122 C72.5286,151.122 70.0662,148.8648 70.0662,145.308 C70.0662,141.3408 73.1442,139.494 77.5902,139.494 L87.2346,139.494 L87.2346,142.3668 C87.2346,148.1808 82.6518,151.122 77.8638,151.122 Z M96.1314,138.6048 C96.1314,149.8224 101.3982,155.0892 110.2218,155.0892 C115.7622,155.0892 119.0454,152.6268 120.5502,151.3956 C121.2342,150.78 121.4394,150.3012 121.4394,149.6856 C121.4394,148.5912 120.5502,147.702 119.4558,147.702 C118.977,147.702 118.635,147.8388 118.1562,148.1808 C116.583,149.3436 114.189,151.122 110.2218,151.122 C103.929,151.122 100.5774,147.1548 100.5774,138.6048 C100.5774,130.1916 103.929,126.156 110.2218,126.156 C114.7362,126.156 116.583,128.208 117.609,129.3708 C118.0878,129.918 118.5666,130.1916 119.2506,130.1916 C120.345,130.1916 121.2342,129.3708 121.2342,128.208 C121.2342,127.7292 121.0974,127.3872 120.7554,126.9084 C119.661,125.4036 116.3094,122.1888 110.2218,122.1888 C101.3982,122.1888 96.1314,127.3872 96.1314,138.6048 Z M148.7358,154.7472 C149.967,154.7472 150.9246,153.7896 150.9246,152.5584 C150.9246,152.148 150.8562,151.6692 150.4458,151.1904 L138.2706,135.5268 L149.4882,126.5664 C150.1722,126.0192 150.3774,125.3352 150.3774,124.788 C150.3774,123.5568 149.4198,122.5992 148.1886,122.5992 C147.7782,122.5992 147.231,122.6676 146.6838,123.1464 L130.5414,136.3476 L130.5414,107.688 C130.5414,106.4568 129.5838,105.4992 128.3526,105.4992 C127.1214,105.4992 126.1638,106.4568 126.1638,107.688 L126.1638,152.5584 C126.1638,153.7896 127.1214,154.7472 128.3526,154.7472 C129.5838,154.7472 130.5414,153.7896 130.5414,152.5584 L130.5414,141.546 L134.7138,138.1944 L146.8206,153.7212 C147.3678,154.4052 147.9834,154.7472 148.7358,154.7472 Z M182.373,136.3476 L166.1622,136.3476 L174.2334,115.4172 L182.373,136.3476 Z M183.8094,140.5884 L188.7342,153.174 C189.0762,154.0632 189.8286,154.7472 190.9914,154.7472 C192.4278,154.7472 193.3854,153.6528 193.3854,152.4216 C193.3854,152.2164 193.317,151.7376 193.1802,151.3956 L176.4906,109.1928 C176.1486,108.372 175.3962,107.6196 174.2334,107.6196 C173.0022,107.6196 172.3866,108.372 172.0446,109.1928 L155.355,151.3956 C155.2182,151.6692 155.1498,152.148 155.1498,152.4216 C155.1498,153.6528 156.1758,154.7472 157.4754,154.7472 C158.6382,154.7472 159.3906,153.9948 159.7326,153.1056 L164.7258,140.5884 L183.8094,140.5884 Z M204.7554,109.9452 C204.7554,108.714 203.7294,107.6196 202.4298,107.6196 C201.1302,107.6196 200.1042,108.714 200.1042,109.9452 L200.1042,152.4216 C200.1042,153.6528 201.1302,154.7472 202.4298,154.7472 C203.7294,154.7472 204.7554,153.6528 204.7554,152.4216 L204.7554,109.9452 Z M219.1506,112.4076 L230.3682,112.4076 C235.293,112.4076 238.7814,116.1696 238.7814,121.2312 C238.7814,126.156 235.3614,130.0548 230.5734,130.0548 L219.1506,130.0548 L219.1506,112.4076 Z M219.1506,134.2956 L226.059,134.2956 L239.9442,153.6528 C240.4914,154.4736 241.2438,154.7472 241.9278,154.7472 C243.2274,154.7472 244.2534,153.7212 244.2534,152.4216 C244.2534,151.9428 244.1166,151.3956 243.7746,150.9852 L231.2574,134.2956 C238.6446,133.9536 243.501,128.2764 243.501,121.2312 C243.501,113.9124 238.029,108.1668 230.4366,108.1668 L216.825,108.1668 C215.5254,108.1668 214.4994,109.1928 214.4994,110.4924 L214.4994,152.4216 C214.4994,153.7212 215.5254,154.7472 216.825,154.7472 C218.1246,154.7472 219.1506,153.7212 219.1506,152.4216 L219.1506,134.2956 Z" id="hackAIR" fill="#FF5958"></path>
                </g>
            </g>
        </g>
    </g>
</svg>