<?xml version="1.0" encoding="UTF-8"?>
<svg width="420px" height="180px" viewBox="0 0 420 180" version="1.1" xmlns="http://www.w3.org/2000/svg" xmlns:xlink="http://www.w3.org/1999/xlink">
    <!-- Generator: sketchtool 42 (36781) - http://www.bohemiancoding.com/sketch -->
    <title>30C70128-E2DE-4CEF-B0B5-2939469176CF</title>
    <desc>Created with sketchtool.</desc>
    <defs></defs>
    <g id="Symbols" stroke="none" stroke-width="1" fill="none" fill-rule="evenodd">
        <g id="Img/Logo_hackAIR_SmallRect_LightBG">
            <path d="M162.110526,81.56 C156.910526,81.56 152.990526,84.12 151.470526,87.16 L151.470526,64.6 C151.470526,63.16 150.350526,62.04 148.910526,62.04 C147.470526,62.04 146.350526,63.16 146.350526,64.6 L146.350526,117.08 C146.350526,118.52 147.470526,119.64 148.910526,119.64 C150.350526,119.64 151.470526,118.52 151.470526,117.08 L151.470526,97.32 C151.470526,90.92 154.190526,86.12 162.110526,86.12 C169.870526,86.12 171.710526,90.44 171.710526,96.76 L171.710526,117.08 C171.710526,118.52 172.830526,119.64 174.270526,119.64 C175.710526,119.64 176.830526,118.52 176.830526,117.08 L176.830526,95.72 C176.830526,88.92 174.430526,81.56 162.110526,81.56 Z M198.387017,86.36 C204.227017,86.36 207.827017,89.72 207.827017,95.16 L207.827017,97.32 L196.547017,97.32 C187.907017,97.32 182.547017,101.56 182.547017,108.6 C182.547017,115.96 187.907017,120.04 196.387017,120.04 C201.187017,120.04 205.827017,118.04 207.827017,114.28 L207.827017,117.16 C207.827017,118.52 208.947017,119.64 210.307017,119.64 C211.667017,119.64 212.787017,118.52 212.787017,117.16 L212.787017,95.16 C212.787017,87 207.667017,81.56 198.387017,81.56 C191.667017,81.56 187.347017,84.36 185.107017,87.88 C184.867017,88.28 184.707017,88.68 184.707017,89.24 C184.707017,90.52 185.747017,91.56 187.027017,91.56 C187.747017,91.56 188.307017,91.32 189.107017,90.44 C191.587017,87.64 194.147017,86.36 198.387017,86.36 Z M196.867017,115.4 C190.627017,115.4 187.747017,112.76 187.747017,108.6 C187.747017,103.96 191.347017,101.8 196.547017,101.8 L207.827017,101.8 L207.827017,105.16 C207.827017,111.96 202.467017,115.4 196.867017,115.4 Z M218.583509,100.76 C218.583509,113.88 224.743509,120.04 235.063509,120.04 C241.543509,120.04 245.383509,117.16 247.143509,115.72 C247.943509,115 248.183509,114.44 248.183509,113.72 C248.183509,112.44 247.143509,111.4 245.863509,111.4 C245.303509,111.4 244.903509,111.56 244.343509,111.96 C242.503509,113.32 239.703509,115.4 235.063509,115.4 C227.703509,115.4 223.783509,110.76 223.783509,100.76 C223.783509,90.92 227.703509,86.2 235.063509,86.2 C240.343509,86.2 242.503509,88.6 243.703509,89.96 C244.263509,90.6 244.823509,90.92 245.623509,90.92 C246.903509,90.92 247.943509,89.96 247.943509,88.6 C247.943509,88.04 247.783509,87.64 247.383509,87.08 C246.103509,85.32 242.183509,81.56 235.063509,81.56 C224.743509,81.56 218.583509,87.64 218.583509,100.76 Z M280.46,119.64 C281.9,119.64 283.02,118.52 283.02,117.08 C283.02,116.6 282.94,116.04 282.46,115.48 L268.22,97.16 L281.34,86.68 C282.14,86.04 282.38,85.24 282.38,84.6 C282.38,83.16 281.26,82.04 279.82,82.04 C279.34,82.04 278.7,82.12 278.06,82.68 L259.18,98.12 L259.18,64.6 C259.18,63.16 258.06,62.04 256.62,62.04 C255.18,62.04 254.06,63.16 254.06,64.6 L254.06,117.08 C254.06,118.52 255.18,119.64 256.62,119.64 C258.06,119.64 259.18,118.52 259.18,117.08 L259.18,104.2 L264.06,100.28 L278.22,118.44 C278.86,119.24 279.58,119.64 280.46,119.64 Z M318.1,98.12 L299.14,98.12 L308.58,73.64 L318.1,98.12 Z M319.78,103.08 L325.54,117.8 C325.94,118.84 326.82,119.64 328.18,119.64 C329.86,119.64 330.98,118.36 330.98,116.92 C330.98,116.68 330.9,116.12 330.74,115.72 L311.22,66.36 C310.82,65.4 309.94,64.52 308.58,64.52 C307.14,64.52 306.42,65.4 306.02,66.36 L286.5,115.72 C286.34,116.04 286.26,116.6 286.26,116.92 C286.26,118.36 287.46,119.64 288.98,119.64 C290.34,119.64 291.22,118.76 291.62,117.72 L297.46,103.08 L319.78,103.08 Z M343.576491,67.24 C343.576491,65.8 342.376491,64.52 340.856491,64.52 C339.336491,64.52 338.136491,65.8 338.136491,67.24 L338.136491,116.92 C338.136491,118.36 339.336491,119.64 340.856491,119.64 C342.376491,119.64 343.576491,118.36 343.576491,116.92 L343.576491,67.24 Z M360.412983,70.12 L373.532983,70.12 C379.292983,70.12 383.372983,74.52 383.372983,80.44 C383.372983,86.2 379.372983,90.76 373.772983,90.76 L360.412983,90.76 L360.412983,70.12 Z M360.412983,95.72 L368.492983,95.72 L384.732983,118.36 C385.372983,119.32 386.252983,119.64 387.052983,119.64 C388.572983,119.64 389.772983,118.44 389.772983,116.92 C389.772983,116.36 389.612983,115.72 389.212983,115.24 L374.572983,95.72 C383.212983,95.32 388.892983,88.68 388.892983,80.44 C388.892983,71.88 382.492983,65.16 373.612983,65.16 L357.692983,65.16 C356.172983,65.16 354.972983,66.36 354.972983,67.88 L354.972983,116.92 C354.972983,118.44 356.172983,119.64 357.692983,119.64 C359.212983,119.64 360.412983,118.44 360.412983,116.92 L360.412983,95.72 Z" id="hackAIR" fill="#FF5958"></path>
            <g id="Group" transform="translate(22.000000, 20.000000)">
                <polygon id="Path-2" fill="#FF5958" points="1.3592233 43.8349515 1.01941748 37.038835 2.7184466 28.2038835 6.7961165 19.368932 13.592233 13.592233 15.9708738 9.17475728 23.7864078 3.73786408 29.223301 3.05825243 31.9417476 3.73786408 39.0776699 1.3592233 46.2135922 4.0776699 50.2912621 1.69902913 57.0873786 3.05825243 60.8252427 6.45631068 66.6019417 6.7961165 73.7378641 10.5339806 80.5339806 18.0097087 83.592233 18.0097087 89.368932 23.1067961 92.7669903 29.223301 95.1456311 36.0194175 95.4854369 43.4951456 92.0873786 57.0873786 84.2718447 73.0582524 71.3592233 92.4271845 58.1067961 110.436893 56.7475728 110.097087 51.9902913 108.058252 45.5339806 107.038835 38.3980583 107.718447 34.3203883 108.737864 25.4854369 93.1067961 12.2330097 72.038835 6.45631068 62.5242718 2.7184466 52.3300971"></polygon>
                <polygon id="Path-3" fill="#FF5958" points="42.1359223 130.145631 40.776699 134.563107 42.4757282 138.300971 47.2330097 138.980583 49.2718447 136.601942 50.631068 131.84466 50.2912621 129.805825"></polygon>
                <path d="M94.165536,48.0065684 C93.2321992,52.4974639 91.5252336,56.7872338 89.5510642,60.9140579 C87.5185398,65.1622392 85.2659049,69.3033807 82.8945128,73.3712307 C80.5272157,77.4315811 77.9940679,81.3940959 75.3421628,85.2741151 C72.6725123,89.1800419 69.8632879,92.9888149 66.9609005,96.7249782 C64.0755759,100.438643 61.1551018,104.130831 58.5031967,108.017327 C58.1820742,108.488097 57.8647056,108.961936 57.5524558,109.438501 C57.3808037,109.092838 57.0258968,108.893416 56.7075044,108.70354 C56.2990203,108.458781 55.8901948,108.21743 55.4656716,108.000964 C54.581817,107.549966 53.6559878,107.181804 52.707977,106.890001 C50.7621318,106.291397 48.7306312,106.011185 46.6991306,105.937893 C44.6242904,105.863579 42.5456964,106.003003 40.4896254,106.279466 C39.4388963,106.420935 38.3926035,106.59854 37.3524534,106.802392 C36.8757179,106.895455 36.4006887,106.993973 35.926342,107.097945 C35.7471823,107.136806 35.2352974,107.340318 35.0841207,107.244528 C34.942158,107.154873 34.8216944,106.839549 34.7438879,106.69433 C34.6531136,106.524225 34.5708708,106.349689 34.4869216,106.176176 C34.2524784,105.690406 33.9907345,105.218614 33.7313795,104.745457 C33.2450888,103.857777 32.7516318,102.973848 32.2516909,102.093327 C31.2142708,100.265129 30.1505739,98.4512492 29.0769806,96.6441871 C26.8789468,92.9451809 24.6727228,89.251629 22.4525074,85.5662585 C20.3012257,81.9950864 18.0468845,78.4893653 15.7737743,74.9945527 C13.539226,71.5593961 11.2442753,68.1538969 9.20492582,64.5970422 C7.22973258,61.1523406 5.52583833,57.5385571 4.32768638,53.7478513 C3.10598772,49.8824905 2.46033022,45.8507749 2.33474779,41.801333 C2.09347937,34.0194776 3.74106627,25.8459387 8.60704425,19.5844563 C9.19195807,18.8314285 9.82021149,18.111808 10.4883919,17.43139 C9.3868156,20.740758 8.89779488,24.1701195 8.86674053,27.6512964 C8.83568617,31.1682669 9.09435868,34.7200082 9.47588357,38.2148208 C9.85433715,41.6803167 10.3505243,45.1372904 11.1040188,48.5431305 C11.8534184,51.9305624 12.8454513,55.284928 14.0453096,58.5404352 C15.2407315,61.7833295 16.7098412,64.8864585 18.2857642,67.9592482 C19.8756787,71.0603319 21.3297731,74.2272075 22.6924107,77.4346491 C25.4292887,83.8805534 27.9068117,90.4484966 31.056269,96.7116835 C31.82239,98.2347836 32.6332157,99.7394756 33.4911349,101.212806 C33.8873338,101.893565 34.2674936,102.659546 34.7701646,103.267695 C35.1946878,103.781077 35.9577376,103.75551 36.4153627,103.29224 C37.0456637,102.654092 36.4764477,101.905155 36.1061842,101.305187 C35.652313,100.569886 35.2052668,99.8342433 34.7807436,99.0815564 C33.9378398,97.5847048 33.1447594,96.0599002 32.390241,94.5166875 C29.3462321,88.2913396 26.9345716,81.7881657 24.2028125,75.4261205 C22.8227708,72.2125429 21.3089565,69.0712341 19.7449774,65.9442427 C18.1994262,62.8537266 16.7364592,59.7383255 15.591202,56.4746369 C13.3013701,49.949646 12.069775,43.0820597 11.4671159,36.2073148 C11.1596437,32.6981848 10.879472,29.1498524 11.0989,25.6274277 C11.3067253,22.2856751 12.0615849,18.9882383 13.3911206,15.9123805 C14.6237395,13.060488 16.3450378,10.4860807 18.6867407,8.42539573 C19.8418943,7.40885934 21.1028375,6.51333919 22.4327145,5.73917616 C23.7049191,4.99876133 25.0552715,4.31322991 26.4851367,3.93654557 C27.7996571,3.58985962 29.2557991,3.53258996 30.4611174,4.25118779 C28.8636953,6.12506456 27.8068235,8.36948964 27.0209096,10.6858427 C26.1725456,13.1876403 25.598552,15.7835238 25.2204397,18.396111 C24.4389621,23.7900262 24.6904682,29.2920039 25.4207573,34.677056 C26.1486577,40.0443817 27.2553529,45.3585286 28.4975269,50.6283596 C29.1186139,53.2631046 29.7946433,55.8838731 30.4846641,58.5015737 C31.1729787,61.1151835 31.9073629,63.7127714 32.4250492,66.3676291 C32.9410292,69.0115782 33.3222128,71.6800714 33.7289907,74.3427695 C34.1347448,76.9945591 34.5637044,79.6429398 34.9728711,82.2940476 C35.3813552,84.9431101 35.9686578,87.5287669 36.6552661,90.1185143 C37.3391444,92.6990578 38.0588546,95.3065315 38.3844134,97.9613892 C38.5458277,99.2751823 38.6075952,100.601588 38.5099958,101.92254 C38.4403794,102.864081 37.9926508,104.335706 39.2286822,104.714095 C40.4773401,105.096234 40.5520753,103.56393 40.6230567,102.738633 C40.7377189,101.404386 40.7155373,100.060595 40.59678,98.7277117 C40.1255046,93.4234507 38.2308479,88.3731534 37.3108201,83.1472973 C36.3720231,77.8154242 35.769364,72.424236 34.7404753,67.1087257 C33.7081741,61.7748072 32.3062919,56.5203163 30.9880176,51.2525306 C29.6810048,46.0321288 28.4340532,40.7841148 27.6686146,35.4525826 C26.9072711,30.1517305 26.6346071,24.7540654 27.3000575,19.4273057 C27.6242512,16.8327857 28.1552465,14.2440609 28.9592471,11.7538536 C29.6799811,9.5206779 30.6358408,7.28920667 32.2175652,5.52100605 C34.7988302,2.63536535 39.8275876,0.700469128 43.3329754,3.09284082 C45.0153705,4.24130195 45.9302795,6.16494878 46.4609335,8.07257374 C47.1192175,10.4400604 47.2935996,12.9217455 47.340693,15.3683188 C47.3922228,18.0593109 47.3137338,20.7513256 47.351272,23.4426585 C47.3901753,26.1939882 47.6181347,28.9299778 47.7904693,31.6744897 C48.1317259,37.0847678 47.8392689,42.4936822 47.2007778,47.8715756 C46.5598979,53.2665135 45.6286086,58.6236126 45.0737254,64.0291181 C44.5154296,69.4629176 44.522596,74.9229657 44.5219135,80.3789231 C44.5208897,85.8590837 44.381657,91.3389034 44.2414005,96.8173596 C44.2065924,98.186718 44.1690541,99.5564172 44.1335634,100.925776 C44.1161594,101.599376 44.0987553,102.272976 44.0827162,102.946576 C44.0711135,103.429959 43.9892119,103.986293 44.3202308,104.390931 C44.9310801,105.138163 46.1183119,104.630918 46.2360454,103.760283 C46.3230658,103.11634 46.2974716,102.447512 46.303273,101.799479 C46.3097568,101.142923 46.3305735,100.486026 46.3469538,99.8294708 C46.484139,94.3718089 46.6042613,88.9134653 46.692988,83.4544399 C46.7810322,78.015868 46.6933293,72.5609333 47.014793,67.1298609 C47.3352329,61.7264007 48.2327378,56.3795284 48.964392,51.0220884 C49.3315841,48.3314373 49.6404213,45.6329457 49.8813485,42.928318 C50.1205694,40.2485753 50.332831,37.5494019 50.2376204,34.8573872 C50.1424098,32.1592365 49.8489291,29.475744 49.638715,26.7854338 C49.4247471,24.037513 49.4527302,21.29641 49.4998236,18.5430349 C49.5458932,15.8588607 49.5871853,13.1487788 49.2056604,10.4843762 C49.0220644,9.20364945 48.7251711,7.94576236 48.3108856,6.72025991 C48.2112387,6.42538936 48.1054491,6.13290505 47.9907869,5.84348875 C47.9030839,5.62225062 47.6795609,5.29908613 47.6867272,5.05841722 C47.6921873,4.85797342 47.8682758,4.5842381 47.9621213,4.41242914 C48.0935051,4.17176023 48.2515069,3.94472695 48.4371505,3.7425787 C49.9182042,2.13118785 52.7704269,2.41549078 54.6661074,2.95750717 C56.9378526,3.60690416 58.750949,5.13204963 60.2016308,6.95172477 C63.3428979,10.8917407 65.0287056,15.9041992 65.9753514,20.7932551 C66.9861535,26.0122934 66.925751,31.2971236 66.2555231,36.5546825 C65.5730098,41.9063273 64.4458393,47.2153608 63.2016177,52.4620112 C61.9526185,57.7280924 60.5121743,62.9478125 58.9324975,68.1242394 C57.3773911,73.2202161 55.5438194,78.2439239 54.2583057,83.4183055 C53.626981,85.957942 53.1993865,88.5228045 52.8625662,91.1159608 C52.5329123,93.6532111 52.2339715,96.2003472 51.6715807,98.6994178 C51.3886789,99.9562822 51.0388909,101.19917 50.5897972,102.406946 C50.2502469,103.321556 49.2752768,104.682392 50.3963047,105.422466 C50.8078602,105.694497 51.3467044,105.695861 51.6777233,105.299405 C52.0025996,104.910448 52.1585538,104.308776 52.3452212,103.846528 C52.826393,102.655115 53.197339,101.424158 53.5109538,100.178884 C54.8142128,95.0068885 55.0090703,89.6351312 56.2253088,84.4443868 C56.8354757,81.8403219 57.6565391,79.2948903 58.4854514,76.7542311 C59.332109,74.1597112 60.1640926,71.5624641 60.9469353,68.9474907 C62.5068192,63.7369747 63.9080189,58.4773704 65.234142,53.2027669 C66.5455912,47.9844104 67.7188314,42.7142386 68.3621001,37.3670253 C69.0033213,32.0392429 69.0831753,26.637828 68.2300338,21.3284537 C67.827351,18.8235881 67.1922725,16.3589475 66.3544875,13.9645305 C65.5405905,11.6379507 64.5168206,9.36557258 63.1606669,7.30181963 C68.3716553,7.20943822 73.0216178,9.9580408 76.4082484,13.7521555 C79.9194377,17.6853536 82.3515735,22.6371335 83.6841806,27.7157248 C85.1150695,33.1686141 85.2403107,38.9105789 84.507974,44.4803938 C83.7694947,50.0969108 82.1618348,55.5699127 80.1091763,60.8394028 C78.0582241,66.1041205 75.560567,71.1830526 72.8980829,76.1627855 C70.2745021,81.0688861 67.4096529,85.8277217 63.8022293,90.0834026 C61.9802603,92.2323782 60.0286137,94.2664737 58.3363222,96.5245344 C57.5336867,97.5952724 56.7870172,98.7096445 56.1345346,99.8785591 C55.8134121,100.453983 55.5154951,101.042019 55.2459024,101.643351 C55.0322757,102.119916 54.7118358,102.628184 54.686924,103.162701 C54.6623536,103.696877 55.0728853,104.078334 55.5827226,104.15333 C56.1120116,104.231394 56.5692955,103.977771 56.8242142,103.519273 C57.0880055,103.045094 57.2299683,102.496941 57.4616815,102.004695 C57.7674474,101.357002 58.1066565,100.724991 58.4779437,100.11241 C59.9187291,97.7333332 61.7533246,95.6061746 63.603618,93.5403763 C65.4740454,91.4534427 67.3690434,89.3886671 68.9859172,87.0941311 C70.6116637,84.787323 72.0333387,82.3407497 73.4109916,79.8808816 C76.2355726,74.8370612 78.68716,69.5648439 80.9346761,64.241834 C81.1998324,63.6132313 81.458505,62.9819016 81.7096698,62.3478446 C81.8413949,62.0161579 81.9710724,61.6841302 82.0993849,61.3510799 C82.1556922,61.2058604 82.2116583,61.0599592 82.2676244,60.9143988 C82.2997025,60.8312214 82.3310981,60.7477032 82.3631762,60.6645258 C82.3839929,60.6106651 82.392183,60.4166982 82.4587281,60.5114659 C83.3644231,57.8095653 84.3035613,55.1192551 85.0324854,52.362812 C85.7590207,49.6145503 86.3077614,46.8277679 86.6507243,44.0055329 C87.3363088,38.3579949 87.2025362,32.6385289 85.7750598,27.1109845 C85.0004073,24.1091 83.8636815,21.2125508 82.353621,18.5034916 C84.3049263,19.4358279 86.0432875,20.7785968 87.6096553,22.2577221 C89.1961573,23.7559372 90.5652788,25.4695952 91.6559349,27.3598348 C93.8720553,31.1986062 94.8893413,35.6329138 94.9586164,40.0419955 C95.0009322,42.7156021 94.7098403,45.3902314 94.165536,48.0065684 M55.526074,112.70628 C54.2794637,114.818781 53.1454679,117.039002 52.1923382,119.34547 C51.7350544,119.121504 51.262414,118.929242 50.7805597,118.765273 C50.6781827,118.730843 50.3877733,118.696073 50.3144031,118.592442 C50.2502469,118.501424 50.3301009,118.237915 50.3454575,118.133944 C50.4942454,117.109908 50.5976461,116.088258 50.8269706,115.076835 C51.2815244,113.06967 52.0937151,111.161022 52.618909,109.172265 C53.3338416,109.421456 54.0412665,109.725872 54.708082,110.08483 C55.3097174,110.409017 55.846514,110.868879 56.506163,111.077845 C56.1720728,111.616452 55.846514,112.159491 55.526074,112.70628 M47.8839736,120.311213 C47.7536135,121.180826 47.5860565,122.047029 47.3386455,122.891757 C47.2615215,122.008509 47.2014603,121.123556 47.1588033,120.237922 C47.4010955,120.253944 47.6427051,120.280533 47.8839736,120.311213 M47.079973,118.062016 C46.9967064,114.750261 47.0775842,111.439189 46.9707709,108.127094 C48.1614152,108.192545 49.3510357,108.32856 50.5167683,108.582524 C50.0953164,110.173121 49.5353143,111.722469 49.0599438,113.296703 C48.5797958,114.8873 48.346035,116.519144 48.1559551,118.165987 C47.7983182,118.120649 47.4396575,118.083492 47.079973,118.062016 M49.5622736,128.755079 C48.1395748,128.682469 46.718241,128.712808 45.2955422,128.758147 C44.9392703,128.769737 44.5829984,128.779623 44.2263852,128.785077 C44.0264089,128.788145 43.7670538,128.843028 43.569125,128.812689 C43.364371,128.780986 43.3909891,128.695082 43.3517446,128.496002 C43.2974847,128.222607 43.2302572,127.952281 43.1643947,127.681613 C42.8289394,126.305437 42.4491208,124.940851 42.0300577,123.588197 C41.8392953,122.97357 41.6601355,122.350081 41.410677,121.756931 C41.361536,121.638983 41.306935,121.51933 41.2786107,121.393882 C41.2670079,121.341044 41.1932965,121.145032 41.2120656,121.105148 C41.2417549,121.041401 41.5198791,120.998449 41.5830116,120.977996 C41.749886,120.923112 41.9177843,120.871979 42.0867063,120.822549 C42.253922,121.816587 42.432058,122.817783 42.7821873,123.766823 C43.0220907,124.418266 43.4459314,125.331853 44.3021442,125.046527 C45.1897526,124.750634 45.18361,123.917156 44.8904706,123.189013 C44.5256673,122.283267 44.4737963,121.296388 44.293954,120.345984 C44.5205484,120.315304 44.7474841,120.291101 44.9751022,120.269965 C45.0085454,120.938111 45.0512025,121.605916 45.102391,122.273381 C45.1481193,122.877098 45.1508494,123.489338 45.2494725,124.087942 C45.3269378,124.55769 45.4917647,124.954146 45.9357396,125.179816 C46.303273,125.366965 46.743494,125.370033 47.0936233,125.146408 C47.2731242,125.031528 47.246165,125.069026 47.4321498,125.165157 C47.6751245,125.290946 47.969629,125.32299 48.2371742,125.266743 C48.7865973,125.151863 49.0302545,124.707 49.2264771,124.224981 C49.6704519,123.133107 49.8438103,121.95158 50.0168274,120.793233 C50.3778769,120.915272 50.7262999,121.061855 51.0733578,121.218324 C51.1603783,121.257526 51.3487519,121.313432 51.391409,121.412972 C51.4204158,121.48115 51.3112137,121.67239 51.2924446,121.72591 C51.0313833,122.479961 50.7907974,123.241511 50.5744407,124.009878 C50.1349022,125.567409 49.792963,127.153233 49.5622736,128.755079 M46.0391403,137.865726 C44.4813039,137.865726 43.0568988,137.146447 42.5286336,135.613802 C42.2528983,134.814413 42.2163838,133.934573 42.3972498,133.110981 C42.4856353,132.709412 42.6159953,132.31841 42.7572755,131.932522 C42.8279157,131.739578 42.9036746,131.548338 42.9753385,131.356075 C43.0224319,131.229605 43.0538275,130.975641 43.1664422,130.887691 C43.4012268,130.704974 44.0878351,130.835876 44.381657,130.835876 C44.8812567,130.835876 45.3805151,130.834512 45.8801148,130.834172 C46.8462122,130.832808 47.8123097,130.812695 48.7784071,130.812014 C49.0288895,130.812014 49.6127795,130.704292 49.7305131,130.960983 C49.7840904,131.077908 49.7581549,131.243922 49.7642975,131.368688 C49.7759002,131.611062 49.8025182,131.852412 49.8127559,132.094786 C49.8513179,133.002919 49.8011532,133.930483 49.5878678,134.816117 C49.3827726,135.667321 49.0009064,136.518526 48.3170282,137.091904 C47.6833147,137.623694 46.8584975,137.865726 46.0391403,137.865726 M41.9331408,108.300266 C42.9504268,108.188113 43.9721491,108.110049 44.9952364,108.097777 C44.9116285,111.072731 44.8273381,114.043595 44.8747728,117.019572 C44.8788679,117.300125 44.9539443,117.666582 44.9068509,117.939636 C44.8645351,118.185077 44.53727,118.119626 44.3369524,118.142466 C44.239353,118.153715 43.930857,118.241665 43.8448603,118.19394 C43.6790096,118.101218 43.6346463,117.490683 43.5981318,117.32126 C43.3032861,115.938948 42.8159717,114.571635 42.3371887,113.243865 C41.7597825,111.642019 41.1216326,110.061308 40.5042994,108.474462 C40.9793286,108.407306 41.4570879,108.358218 41.9331408,108.300266 M38.2888615,113.814175 C37.5855316,112.296189 36.8589963,110.78911 36.1225646,109.286804 C36.7279538,109.150789 37.3367556,109.000456 37.9445336,108.882849 C38.1598665,108.84126 38.2926153,108.831374 38.4045475,109.03625 C38.5523116,109.306917 38.6417208,109.641672 38.7580893,109.926997 C39.3157026,111.292947 39.8419203,112.679009 40.3200208,114.075298 C40.7957326,115.464087 41.2533577,116.870943 41.6072408,118.296549 C41.6857298,118.611532 41.7560287,118.670506 41.4294461,118.757092 C41.1874951,118.821179 40.9523693,118.890039 40.7189498,118.980375 C40.5295524,119.054349 40.4776814,119.110596 40.3848596,118.923447 C40.3009105,118.753342 40.2688324,118.556648 40.2087712,118.378021 C39.6811885,116.824241 38.9635258,115.3083 38.2888615,113.814175 M95.0118524,29.2892768 C93.5294337,25.6768569 91.1740806,22.4438484 88.2198221,19.8912581 C87.4472172,19.2237939 86.6333202,18.6071224 85.7897338,18.0320396 C84.8973478,17.4235495 83.9339804,16.7455177 82.9211308,16.354175 C82.4327926,16.1656624 81.9079399,16.1196422 81.3885474,16.1216875 C81.2121177,16.1227102 81.0036099,16.1745256 80.8595996,16.0596454 C80.6811224,15.9178348 80.5541749,15.620578 80.4221086,15.4324063 C79.7866888,14.5276821 79.1072469,13.6532972 78.3817354,12.8181147 C75.7079899,9.74157514 72.3442235,7.13410135 68.4211375,5.88541832 C66.3602888,5.2298853 64.1332482,4.95274107 61.9775302,5.18693305 C61.7714112,5.20909096 61.6564078,5.23022619 61.4850969,5.09523343 C61.2742004,4.92819693 61.0950406,4.70525434 60.9169047,4.50549233 C60.5650691,4.11142255 60.2012896,3.74053335 59.7986068,3.3975972 C59.0304382,2.74376863 58.183098,2.1850486 57.2780855,1.73779986 C54.3617065,0.29617263 50.0369615,-0.526056 47.3270428,1.77597963 C46.9400578,2.10459837 46.6035788,2.48980498 46.3295497,2.91694116 C43.7121115,-0.204936858 39.205818,-0.607188012 35.5557373,0.703878036 C34.4845328,1.08874376 33.4669056,1.62291965 32.5492666,2.29651989 C32.4322156,2.38276527 32.2022086,2.64797831 32.053762,2.66877265 C31.8735785,2.69468036 31.588288,2.43560334 31.4511029,2.34492639 C30.9518444,2.01494408 30.3467965,1.82131811 29.7652952,1.69518851 C27.2847009,1.15794459 24.7112848,2.04255624 22.5289488,3.17840441 C20.3588981,4.30811655 18.3164773,5.7378126 16.5624183,7.44533466 C15.6522869,8.33130987 14.8226921,9.29978065 14.0777289,10.3282482 C13.7030292,10.8460614 13.3494873,11.3788737 13.0174447,11.9249808 C12.8659267,12.1741719 12.7270353,12.4281356 12.5871201,12.6834628 C12.4383322,12.9561755 12.2110553,13.0751464 11.9691044,13.2585456 C8.21186909,16.1090745 5.27023713,19.941369 3.35237499,24.2382976 C1.2304414,28.9923609 0.32338134,34.2015133 0.203259014,39.3833945 C0.0804066349,44.698564 0.804894414,50.015097 2.47398048,55.0681214 C4.10279828,59.999107 6.53971171,64.5967013 9.28955746,68.987034 C12.1414389,73.5392899 15.29465,77.8975789 18.0946605,82.4825602 C19.5235019,84.8231165 20.8915996,87.2008299 22.3047432,89.5505902 C23.7175456,91.8996688 25.1429745,94.2402251 26.5516817,96.5910081 C29.3445258,101.250985 32.0742374,105.955619 34.4855566,110.825926 C36.8579726,115.618169 38.9201862,120.576426 40.3882722,125.722855 C40.5790346,126.390319 40.7588768,127.061192 40.9288226,127.734451 C41.0110655,128.061366 41.0912608,128.388962 41.168726,128.71724 C41.2369773,129.006656 41.3990742,129.380954 41.3666549,129.680256 C41.3403781,129.92297 41.1482506,130.192615 41.0625952,130.422716 C40.9489568,130.727814 40.8452148,131.036661 40.7540992,131.349258 C40.6131603,131.8323 40.5032756,132.324546 40.429223,132.822247 C40.1336947,134.807936 40.4363893,137.002591 41.9846706,138.422401 C43.4960961,139.809145 45.8528142,140.318436 47.8242537,139.80335 C49.9178629,139.25622 51.0245581,137.294052 51.4794532,135.317227 C51.7780527,134.019455 51.8599543,132.67805 51.8650732,131.349598 C51.867462,130.759857 51.9418559,130.097507 51.7084364,129.549354 C51.5272291,129.123922 51.8019407,128.46464 51.8817947,128.027618 C52.3523876,125.451506 53.1113423,122.931641 54.089725,120.503135 C56.0208961,115.710892 58.7738132,111.298401 61.77107,107.107149 C64.9314474,102.687499 68.3924719,98.4952242 71.6548851,94.1526162 C74.8988704,89.8345523 77.9855365,85.3975175 80.8817813,80.8391256 C83.7688122,76.2953921 86.4674695,71.6330285 88.9859432,66.8758973 C91.4375307,62.2445547 93.7082522,57.479583 95.2497083,52.4603068 C96.8194887,47.3486491 97.5654756,41.9318942 96.901049,36.6013846 C96.5887992,34.0968598 95.9707835,31.6264241 95.0118524,29.2892768" id="Fill-1" fill="#222221"></path>
            </g>
        </g>
    </g>
</svg>