<svg width="65" height="118" viewBox="0 0 65 118" xmlns="http://www.w3.org/2000/svg"><title>Img/Smartphone</title><g fill-rule="nonzero" fill="none"><path d="M58.084 118H6.916C3.098 118 0 114.897 0 111.073V6.927C0 3.103 3.098 0 6.916 0h51.166C61.902 0 65 3.103 65 6.927v104.144c0 3.826-3.098 6.929-6.916 6.929z" fill="#40596B"/><path fill="#FFF" d="M4.727 12.207h55.545v81.379H4.727z"/><ellipse fill="#61888A" cx="32.5" cy="105.793" rx="6.094" ry="6.103"/><path d="M32.5 8.138h-8.125a2.031 2.031 0 0 1-2.031-2.035c0-1.125.908-2.034 2.031-2.034H32.5c1.123 0 2.031.91 2.031 2.034A2.031 2.031 0 0 1 32.5 8.138zM40.625 8.138h-2.031a2.031 2.031 0 0 1-2.032-2.035c0-1.125.908-2.034 2.032-2.034h2.031c1.123 0 2.031.91 2.031 2.034a2.031 2.031 0 0 1-2.031 2.035z" fill="#61888A"/><path d="M36.485 34.625h-7.97a2.11 2.11 0 0 1-2.109-2.112V24.53a2.11 2.11 0 0 1 2.109-2.112h7.97a2.11 2.11 0 0 1 2.109 2.112v7.983a2.11 2.11 0 0 1-2.109 2.112z" fill="#3083C9"/><path d="M18.204 34.625h-7.97a2.11 2.11 0 0 1-2.109-2.112V24.53a2.11 2.11 0 0 1 2.108-2.112h7.971a2.11 2.11 0 0 1 2.108 2.112v7.983a2.11 2.11 0 0 1-2.108 2.112z" fill="#88C057"/><path d="M54.767 34.625h-7.971a2.11 2.11 0 0 1-2.108-2.112V24.53a2.11 2.11 0 0 1 2.108-2.112h7.97a2.11 2.11 0 0 1 2.109 2.112v7.983a2.11 2.11 0 0 1-2.108 2.112z" fill="#DC691D"/><path d="M36.485 52.897h-7.97a2.11 2.11 0 0 1-2.109-2.112V42.8a2.11 2.11 0 0 1 2.109-2.111h7.97a2.11 2.11 0 0 1 2.109 2.111v7.984a2.11 2.11 0 0 1-2.109 2.112z" fill="#EBBA16"/><path d="M18.204 52.897h-7.97a2.11 2.11 0 0 1-2.109-2.112V42.8a2.11 2.11 0 0 1 2.108-2.111h7.971a2.11 2.11 0 0 1 2.108 2.111v7.984a2.11 2.11 0 0 1-2.108 2.112z" fill="#7383BF"/><path d="M54.767 52.897h-7.971a2.11 2.11 0 0 1-2.108-2.112V42.8a2.11 2.11 0 0 1 2.108-2.111h7.97a2.11 2.11 0 0 1 2.109 2.111v7.984a2.11 2.11 0 0 1-2.108 2.112z" fill="#DD352E"/><path d="M36.485 71.207h-7.97a2.11 2.11 0 0 1-2.109-2.112v-7.983A2.11 2.11 0 0 1 28.515 59h7.97a2.11 2.11 0 0 1 2.109 2.112v7.983a2.11 2.11 0 0 1-2.109 2.112z" fill="#A485BE"/><path d="M18.204 71.207h-7.97a2.11 2.11 0 0 1-2.109-2.112v-7.983A2.11 2.11 0 0 1 10.233 59h7.971a2.11 2.11 0 0 1 2.108 2.112v7.983a2.11 2.11 0 0 1-2.108 2.112z" fill="#EA6248"/><path d="M54.767 71.207h-7.971a2.11 2.11 0 0 1-2.108-2.112v-7.983A2.11 2.11 0 0 1 46.795 59h7.97a2.11 2.11 0 0 1 2.109 2.112v7.983a2.11 2.11 0 0 1-2.108 2.112z" fill="#25AE88"/></g></svg>