<svg width="82" height="82" viewBox="0 0 82 82" xmlns="http://www.w3.org/2000/svg" xmlns:xlink="http://www.w3.org/1999/xlink"><title>8CEEB446-85A0-464D-ACFE-9892AA07EEAB</title><defs><circle id="c" cx="40" cy="40" r="40"/><path d="M11.309 10.016H5.481c-.798 0-1.445.631-1.445 1.41L4 30.59c0 .778.647 1.41 1.445 1.41h29.11c.798 0 1.445-.631 1.445-1.41l.036-19.164c0-.778-.647-1.41-1.445-1.41H20.036V8.618c0-.8-.645-1.425-1.44-1.425H12.75a1.44 1.44 0 0 0-1.441 1.425v1.398z" id="a"/><mask id="e" x="0" y="0" width="32.036" height="24.807" fill="#fff"><use xlink:href="#a"/></mask><ellipse id="b" cx="19" cy="21" rx="7" ry="7"/><mask id="f" x="0" y="0" width="14" height="14" fill="#fff"><use xlink:href="#b"/></mask></defs><g transform="translate(1 1)" fill="none" fill-rule="evenodd"><mask id="d" fill="#fff"><use xlink:href="#c"/></mask><use stroke="#00A3AC" fill="#E0F4F5" xlink:href="#c"/><g mask="url(#d)" stroke="#00A3AC" stroke-width="2"><g transform="translate(20 20)"><use mask="url(#e)" xlink:href="#a"/><use mask="url(#f)" xlink:href="#b"/></g></g></g></svg>