<svg xmlns="http://www.w3.org/2000/svg" 
    xmlns:xlink="http://www.w3.org/1999/xlink" width="24" height="36" viewBox="0 0 24 36">
    <defs>
        <path id="a" d="M12 0C8.825 0 5.925 1.103 3.837 3.106 1.327 5.513 0 7.484 0 12c0 9.837 10.52 23.051 10.967 23.537.273.297.645.463 1.033.463.388 0 .76-.166 1.033-.463C13.48 35.051 24 21.837 24 12c0-4.516-1.327-6.487-3.837-8.894C18.075 1.103 15.175 0 12 0z"/>
    </defs>
    <g fill="none" fill-rule="evenodd">
        <g>
            <use fill="#022B3A" xlink:href="#a"/>
            <path stroke="#022B3A" stroke-width="3" d="M12 34.439c-.26-.312-.99-1.265-1.717-2.276a72.473 72.473 0 0 1-3.672-5.645C3.408 21.04 1.5 15.988 1.5 12c0-3.673.787-5.33 3.375-7.811C6.677 2.46 9.202 1.5 12 1.5s5.323.961 7.125 2.689C21.713 6.67 22.5 8.327 22.5 12c0 3.989-1.908 9.04-5.11 14.518a72.473 72.473 0 0 1-3.673 5.645A53.493 53.493 0 0 1 12 34.439z"/>
        </g>
        <path fill="#072633" d="M15 19a.995.995 0 0 0-.99-1H9.99c-.536 0-.985.447-.99 1H7.002C6.45 19 6 18.55 6 17.993V17a2 2 0 1 0 0-4V6.007A1.01 1.01 0 0 1 7.002 5h9.996C17.55 5 18 5.45 18 6.007V13a2 2 0 1 0 0 4v.993A1.01 1.01 0 0 1 16.998 19H15zm-3-8a2 2 0 1 0 0-4 2 2 0 0 0 0 4z"/>
    </g>
</svg>
