<?xml version="1.0" encoding="UTF-8" standalone="no"?>
<svg
   xmlns:dc="http://purl.org/dc/elements/1.1/"
   xmlns:cc="http://creativecommons.org/ns#"
   xmlns:rdf="http://www.w3.org/1999/02/22-rdf-syntax-ns#"
   xmlns:svg="http://www.w3.org/2000/svg"
   xmlns="http://www.w3.org/2000/svg"
   xmlns:xlink="http://www.w3.org/1999/xlink"
   xmlns:sodipodi="http://sodipodi.sourceforge.net/DTD/sodipodi-0.dtd"
   xmlns:inkscape="http://www.inkscape.org/namespaces/inkscape"
   width="24"
   height="36"
   viewBox="0 0 24 36"
   version="1.1"
   id="svg146"
   sodipodi:docname="u_i_pin_sensor_.svg"
   inkscape:version="0.92.1 r15371">
  <metadata
     id="metadata150">
    <rdf:RDF>
      <cc:Work
         rdf:about="">
        <dc:format>image/svg+xml</dc:format>
        <dc:type
           rdf:resource="http://purl.org/dc/dcmitype/StillImage" />
        <dc:title></dc:title>
      </cc:Work>
    </rdf:RDF>
  </metadata>
  <sodipodi:namedview
     pagecolor="#ffffff"
     bordercolor="#666666"
     borderopacity="1"
     objecttolerance="10"
     gridtolerance="10"
     guidetolerance="10"
     inkscape:pageopacity="0"
     inkscape:pageshadow="2"
     inkscape:window-width="958"
     inkscape:window-height="1008"
     id="namedview148"
     showgrid="false"
     inkscape:zoom="22.722222"
     inkscape:cx="12"
     inkscape:cy="18"
     inkscape:window-x="2033"
     inkscape:window-y="387"
     inkscape:window-maximized="0"
     inkscape:current-layer="g144" />
  <defs
     id="defs134">
    <path
       id="a"
       d="M12 0C8.825 0 5.925 1.103 3.837 3.106 1.327 5.513 0 7.484 0 12c0 9.837 10.52 23.051 10.967 23.537.273.297.645.463 1.033.463.388 0 .76-.166 1.033-.463C13.48 35.051 24 21.837 24 12c0-4.516-1.327-6.487-3.837-8.894C18.075 1.103 15.175 0 12 0z" />
  </defs>
  <g
     fill="none"
     fill-rule="evenodd"
     id="g144">
    <g
       id="g140">
      <use
         fill="#022B3A"
         xlink:href="#a"
         id="use136" />
      <path
         stroke="#022B3A"
         stroke-width="3"
         d="M12 34.439c-.26-.312-.99-1.265-1.717-2.276a72.473 72.473 0 0 1-3.672-5.645C3.408 21.04 1.5 15.988 1.5 12c0-3.673.787-5.33 3.375-7.811C6.677 2.46 9.202 1.5 12 1.5s5.323.961 7.125 2.689C21.713 6.67 22.5 8.327 22.5 12c0 3.989-1.908 9.04-5.11 14.518a72.473 72.473 0 0 1-3.673 5.645A53.493 53.493 0 0 1 12 34.439z"
         id="path138" />
    </g>
    <path
       inkscape:connector-curvature="0"
       style="fill:#00a3ac"
       d="m 15.102689,19.146699 a 0.995,0.995 0 0 0 -0.99,-1 h -4.02 c -0.5359995,0 -0.9849995,0.447 -0.9899995,1 h -1.998 c -0.552,0 -1.002,-0.45 -1.002,-1.007 v -0.993 a 2,2 0 1 0 0,-4 V 6.1536993 a 1.01,1.01 0 0 1 1.002,-1.007 h 9.9959995 c 0.552,0 1.002,0.45 1.002,1.007 v 6.9929997 a 2,2 0 1 0 0,4 v 0.993 a 1.01,1.01 0 0 1 -1.002,1.007 z m -3,-8 a 2,2 0 1 0 0,-3.9999997 2,2 0 0 0 0,3.9999997 z"
       id="path4976" />
  </g>
</svg>
