<?xml version="1.0" encoding="UTF-8" standalone="no"?>
<!-- Created with Inkscape (http://www.inkscape.org/) -->

<svg
   xmlns:dc="http://purl.org/dc/elements/1.1/"
   xmlns:cc="http://creativecommons.org/ns#"
   xmlns:rdf="http://www.w3.org/1999/02/22-rdf-syntax-ns#"
   xmlns:svg="http://www.w3.org/2000/svg"
   xmlns="http://www.w3.org/2000/svg"
   xmlns:sodipodi="http://sodipodi.sourceforge.net/DTD/sodipodi-0.dtd"
   xmlns:inkscape="http://www.inkscape.org/namespaces/inkscape"
   width="140"
   height="140"
   viewBox="0 0 37.041667 37.041668"
   version="1.1"
   id="svg3720"
   inkscape:version="0.92.1 r15371"
   sodipodi:docname="fusion_inactive.svg">
  <defs
     id="defs3714" />
  <sodipodi:namedview
     id="base"
     pagecolor="#ffffff"
     bordercolor="#666666"
     borderopacity="1.0"
     inkscape:pageopacity="0.0"
     inkscape:pageshadow="2"
     inkscape:zoom="4"
     inkscape:cx="82.105621"
     inkscape:cy="88.442344"
     inkscape:document-units="mm"
     inkscape:current-layer="layer1"
     showgrid="false"
     units="px"
     inkscape:window-width="1920"
     inkscape:window-height="1017"
     inkscape:window-x="-8"
     inkscape:window-y="-8"
     inkscape:window-maximized="1" />
  <metadata
     id="metadata3717">
    <rdf:RDF>
      <cc:Work
         rdf:about="">
        <dc:format>image/svg+xml</dc:format>
        <dc:type
           rdf:resource="http://purl.org/dc/dcmitype/StillImage" />
        <dc:title></dc:title>
      </cc:Work>
    </rdf:RDF>
  </metadata>
  <g
     inkscape:label="Layer 1"
     inkscape:groupmode="layer"
     id="layer1"
     transform="translate(-76.984091,-93.987404)">
    <polygon
       transform="matrix(0.26458333,0,0,0.26458333,82.820806,93.98745)"
       style="fill:#ff5958"
       points="42.475728,138.30097 47.23301,138.98058 49.271845,136.60194 50.631068,131.84466 50.291262,129.80582 42.135922,130.14563 40.776699,134.56311 "
       id="Path-3" />
    <path
       style="fill:#222221;stroke-width:0.26458332"
       inkscape:connector-curvature="0"
       id="Fill-1"
       d="m 107.73544,106.68918 c -0.24695,1.18822 -0.69858,2.32322 -1.22091,3.41511 -0.53778,1.124 -1.13379,2.21968 -1.76122,3.29596 -0.62634,1.0743 -1.29657,2.12272 -1.99822,3.14931 -0.70635,1.03344 -1.44962,2.04118 -2.21755,3.0297 -0.763405,0.98258 -1.536113,1.95947 -2.237763,2.98777 -0.08496,0.12456 -0.168934,0.24993 -0.251551,0.37602 -0.04542,-0.0915 -0.139318,-0.14422 -0.22356,-0.19446 -0.108078,-0.0648 -0.216246,-0.12862 -0.328568,-0.18589 -0.233853,-0.11932 -0.478812,-0.21674 -0.72964,-0.29394 -0.514838,-0.15838 -1.052339,-0.23252 -1.58984,-0.25191 -0.548969,-0.0197 -1.09893,0.0172 -1.642932,0.0904 -0.278006,0.0374 -0.554837,0.0844 -0.830044,0.13835 -0.126136,0.0246 -0.251821,0.0507 -0.377325,0.0782 -0.0474,0.0103 -0.182839,0.0641 -0.222838,0.0388 -0.03756,-0.0237 -0.06943,-0.10715 -0.09002,-0.14557 -0.02402,-0.045 -0.04578,-0.0912 -0.06799,-0.13709 -0.06203,-0.12854 -0.131282,-0.25337 -0.199903,-0.37856 -0.128665,-0.23487 -0.259225,-0.46874 -0.391502,-0.70171 -0.274484,-0.48371 -0.55592,-0.96363 -0.839975,-1.44175 -0.581563,-0.9787 -1.165293,-1.95595 -1.752725,-2.93104 -0.569193,-0.94487 -1.165655,-1.87243 -1.767082,-2.79709 -0.591224,-0.90889 -1.19843,-1.80993 -1.738007,-2.75101 -0.522604,-0.91141 -0.973426,-1.86756 -1.290437,-2.87052 -0.323241,-1.02271 -0.494071,-2.08943 -0.527298,-3.16085 -0.06384,-2.05895 0.372088,-4.22153 1.659545,-5.87821 0.154759,-0.19924 0.320984,-0.38964 0.497773,-0.56967 -0.291458,0.87561 -0.420845,1.78296 -0.429062,2.70402 -0.0082,0.93053 0.06022,1.87026 0.161169,2.79493 0.100133,0.91691 0.231416,1.83157 0.430778,2.7327 0.198278,0.89626 0.460754,1.78377 0.778217,2.64512 0.316288,0.85802 0.70499,1.67905 1.121953,2.49206 0.420665,0.8205 0.805394,1.6584 1.165925,2.50703 0.724133,1.70548 1.379644,3.44325 2.212938,5.10039 0.202703,0.40298 0.417234,0.8011 0.644225,1.19092 0.104827,0.18011 0.205411,0.38278 0.33841,0.54369 0.112321,0.13583 0.314212,0.12907 0.435292,0.007 0.166767,-0.16885 0.01616,-0.367 -0.0818,-0.52574 -0.120087,-0.19457 -0.238368,-0.38921 -0.350689,-0.58836 -0.223019,-0.39603 -0.432855,-0.79946 -0.632487,-1.20777 -0.805395,-1.64713 -1.44348,-3.36776 -2.166258,-5.05105 -0.365136,-0.85026 -0.765666,-1.6814 -1.179469,-2.50875 -0.408927,-0.81769 -0.796003,-1.64198 -1.099019,-2.5055 -0.605852,-1.7264 -0.931711,-3.54345 -1.091165,-5.36239 -0.08135,-0.92846 -0.15548,-1.86729 -0.09742,-2.79926 0.05499,-0.88417 0.25471,-1.75662 0.606483,-2.57044 0.32613,-0.75457 0.781557,-1.43571 1.401133,-1.98093 0.305634,-0.26896 0.639259,-0.5059 0.991122,-0.71073 0.336604,-0.1959 0.693885,-0.37728 1.072203,-0.47695 0.3478,-0.0917 0.733071,-0.10688 1.051978,0.0833 -0.422651,0.4958 -0.702281,1.08963 -0.910221,1.7025 -0.224463,0.66194 -0.376332,1.34876 -0.476374,2.04001 -0.206766,1.42714 -0.140222,2.88287 0.053,4.30767 0.19259,1.4201 0.485403,2.82614 0.814062,4.22045 0.164329,0.69711 0.343195,1.39052 0.525763,2.08312 0.182117,0.69152 0.376422,1.37879 0.513394,2.08123 0.136519,0.69954 0.237374,1.40558 0.345001,2.11008 0.107356,0.70162 0.220851,1.40234 0.32911,2.10378 0.108078,0.7009 0.263468,1.38502 0.445133,2.07022 0.180943,0.68277 0.371367,1.37267 0.457504,2.0751 0.04271,0.34761 0.05905,0.69855 0.03323,1.04805 -0.01842,0.24912 -0.136881,0.63849 0.190152,0.7386 0.330374,0.10111 0.350148,-0.30431 0.368929,-0.52267 0.03034,-0.35302 0.02447,-0.70857 -0.007,-1.06123 -0.124647,-1.40342 -0.625942,-2.73964 -0.869366,-4.12231 -0.24839,-1.41073 -0.407844,-2.83715 -0.680071,-4.24354 -0.273129,-1.41127 -0.644044,-2.80152 -0.992837,-4.19529 -0.345814,-1.38123 -0.675737,-2.76977 -0.878259,-4.1804 -0.201439,-1.40252 -0.273581,-2.83065 -0.09751,-4.24002 0.08578,-0.68647 0.226268,-1.3714 0.438994,-2.03027 0.190694,-0.59086 0.443599,-1.18127 0.862096,-1.64911 0.68296,-0.76349 2.013486,-1.27543 2.940953,-0.64245 0.445134,0.30386 0.687203,0.81283 0.827606,1.31756 0.17417,0.62639 0.220309,1.28301 0.232769,1.93033 0.01363,0.71199 -0.0071,1.42425 0.0028,2.13633 0.01029,0.72796 0.07061,1.45186 0.116205,2.17801 0.09029,1.43147 0.01291,2.86258 -0.156023,4.28548 -0.169566,1.42741 -0.415969,2.84481 -0.562782,4.27501 -0.147716,1.4377 -0.14582,2.88233 -0.146001,4.32589 -2.64e-4,1.44996 -0.03711,2.89983 -0.07422,4.34934 -0.0092,0.36231 -0.01914,0.72471 -0.02853,1.08702 -0.0046,0.17822 -0.0092,0.35644 -0.01345,0.53467 -0.0031,0.12789 -0.02474,0.27509 0.06284,0.38215 0.16162,0.1977 0.475742,0.0635 0.506892,-0.16686 0.02302,-0.17038 0.01625,-0.34734 0.01779,-0.5188 0.0017,-0.17371 0.0072,-0.34751 0.01156,-0.52123 0.0363,-1.44401 0.06808,-2.88819 0.09155,-4.33256 0.02329,-1.43896 9e-5,-2.88224 0.08514,-4.31921 0.08478,-1.42967 0.322248,-2.84436 0.515832,-4.26185 0.09715,-0.7119 0.178866,-1.42588 0.242611,-2.14148 0.06329,-0.70901 0.119455,-1.42317 0.09426,-2.13543 -0.02519,-0.71389 -0.102842,-1.42389 -0.158461,-2.1357 -0.05661,-0.72706 -0.04921,-1.45231 -0.03675,-2.18081 0.01219,-0.71018 0.02311,-1.42723 -0.07783,-2.13218 -0.04858,-0.33886 -0.127129,-0.67168 -0.236742,-0.99592 -0.02637,-0.078 -0.05436,-0.15541 -0.08469,-0.23198 -0.0232,-0.0585 -0.08235,-0.14404 -0.08045,-0.20772 0.0015,-0.053 0.04804,-0.12546 0.07287,-0.17092 0.03476,-0.0637 0.07657,-0.12374 0.125685,-0.17723 0.391862,-0.42635 1.146512,-0.35112 1.648078,-0.20772 0.601066,0.17182 1.080781,0.57535 1.464607,1.05681 0.831127,1.04246 1.277166,2.36867 1.527626,3.66224 0.26745,1.38087 0.25146,2.77914 0.0741,4.17021 -0.18058,1.41595 -0.478808,2.82063 -0.808008,4.20881 -0.330465,1.39332 -0.711582,2.77437 -1.129539,4.14396 -0.411455,1.34832 -0.896587,2.6775 -1.236713,4.04656 -0.167038,0.67195 -0.280172,1.35057 -0.369289,2.03667 -0.08722,0.67132 -0.166316,1.34524 -0.315115,2.00646 -0.07485,0.33254 -0.167399,0.66139 -0.286222,0.98095 -0.08984,0.24199 -0.3478,0.60204 -0.05119,0.79786 0.108891,0.072 0.25146,0.0723 0.339042,-0.0326 0.08596,-0.10291 0.12722,-0.26211 0.176609,-0.38441 0.12731,-0.31523 0.225456,-0.64092 0.308433,-0.9704 0.344821,-1.36842 0.396377,-2.7897 0.718174,-4.16308 0.16144,-0.689 0.378679,-1.36247 0.597995,-2.03469 0.224012,-0.68647 0.444141,-1.37366 0.651268,-2.06553 0.412719,-1.37862 0.783454,-2.77022 1.134325,-4.1658 0.34698,-1.38069 0.6574,-2.77509 0.8276,-4.18987 0.16965,-1.40964 0.19078,-2.83877 -0.0349,-4.24354 -0.10655,-0.66275 -0.27458,-1.31485 -0.49624,-1.94837 -0.21534,-0.61558 -0.486218,-1.21681 -0.845033,-1.76284 1.378743,-0.0245 2.609043,0.70279 3.505093,1.70665 0.929,1.04066 1.5725,2.35082 1.92509,3.69453 0.37859,1.44274 0.41172,2.96197 0.21796,4.43565 -0.19539,1.48603 -0.62075,2.9341 -1.16385,4.32832 -0.54265,1.39295 -1.20349,2.73676 -1.90793,4.05431 -0.69416,1.29807 -1.45215,2.55718 -2.406617,3.68316 -0.482062,0.56859 -0.998435,1.10677 -1.446188,1.70422 -0.212363,0.2833 -0.40992,0.57814 -0.582556,0.88742 -0.08496,0.15225 -0.163787,0.30783 -0.235117,0.46693 -0.05652,0.1261 -0.141305,0.26057 -0.147897,0.402 -0.0065,0.14133 0.102119,0.24226 0.237014,0.2621 0.140041,0.0207 0.261031,-0.0464 0.328478,-0.16776 0.06979,-0.12546 0.107356,-0.27049 0.168663,-0.40073 0.0809,-0.17137 0.17065,-0.33859 0.268886,-0.50067 0.381208,-0.62946 0.866611,-1.19227 1.356168,-1.73885 0.494886,-0.55217 0.996266,-1.09847 1.424066,-1.70557 0.43015,-0.61034 0.8063,-1.25766 1.1708,-1.9085 0.74734,-1.33451 1.39599,-2.72946 1.99064,-4.13783 0.0702,-0.16632 0.1386,-0.33336 0.20505,-0.50112 0.0349,-0.0878 0.0692,-0.17561 0.10312,-0.26373 0.0149,-0.0384 0.0297,-0.077 0.0445,-0.11554 0.009,-0.022 0.0168,-0.0441 0.0253,-0.0661 0.005,-0.0143 0.008,-0.0656 0.0253,-0.0405 0.23963,-0.71488 0.48811,-1.42669 0.68097,-2.156 0.19223,-0.72714 0.33742,-1.46448 0.42816,-2.21119 0.18139,-1.49425 0.146,-3.00752 -0.23169,-4.47002 -0.20496,-0.79425 -0.50572,-1.56063 -0.90525,-2.2774 0.51628,0.24668 0.97622,0.60196 1.39066,0.99331 0.41976,0.3964 0.782,0.84981 1.07057,1.34993 0.58635,1.01568 0.85551,2.18892 0.87384,3.35549 0.0112,0.70739 -0.0658,1.41506 -0.20984,2.10729 M 97.512091,123.8082 c -0.329833,0.55893 -0.629869,1.14637 -0.882051,1.75662 -0.12099,-0.0593 -0.246043,-0.11013 -0.373533,-0.15351 -0.02709,-0.009 -0.103925,-0.0183 -0.123338,-0.0457 -0.01698,-0.0241 0.0042,-0.0938 0.0082,-0.12131 0.03937,-0.27095 0.06672,-0.54126 0.127401,-0.80886 0.120267,-0.53107 0.335159,-1.03606 0.474116,-1.56226 0.18916,0.0659 0.376332,0.14648 0.552761,0.24146 0.159182,0.0858 0.30121,0.20744 0.475742,0.26273 -0.0884,0.14251 -0.174532,0.28619 -0.259315,0.43086 m -2.021972,2.01214 c -0.03449,0.23008 -0.07883,0.45926 -0.144285,0.68277 -0.02041,-0.2337 -0.0363,-0.46784 -0.04758,-0.70217 0.06411,0.004 0.128033,0.0113 0.191869,0.0194 m -0.212726,-0.59509 c -0.02203,-0.87624 -6.35e-4,-1.75229 -0.02889,-2.62862 0.315025,0.0173 0.629779,0.0533 0.938212,0.1205 -0.111509,0.42084 -0.259676,0.83078 -0.385451,1.24729 -0.127039,0.42085 -0.188889,0.85261 -0.239181,1.28833 -0.09463,-0.012 -0.18952,-0.0218 -0.284687,-0.0275 m 0.656776,2.82921 c -0.376423,-0.0192 -0.752484,-0.0112 -1.128906,7.9e-4 -0.09426,0.003 -0.188528,0.006 -0.282881,0.007 -0.05291,8e-4 -0.121532,0.0154 -0.173901,0.007 -0.05417,-0.008 -0.04713,-0.0311 -0.05752,-0.0838 -0.01436,-0.0723 -0.03214,-0.14386 -0.04957,-0.21547 -0.08876,-0.36411 -0.18925,-0.72516 -0.300127,-1.08305 -0.05047,-0.16262 -0.09788,-0.32758 -0.163878,-0.48452 -0.013,-0.0312 -0.02745,-0.0629 -0.03494,-0.0961 -0.0031,-0.014 -0.02257,-0.0658 -0.01761,-0.0764 0.0079,-0.0169 0.08144,-0.0282 0.09815,-0.0336 0.04415,-0.0145 0.08858,-0.028 0.133269,-0.0411 0.04424,0.263 0.09138,0.5279 0.184013,0.779 0.06348,0.17237 0.175616,0.41408 0.402155,0.33859 0.234847,-0.0783 0.233222,-0.29881 0.155662,-0.49147 -0.09652,-0.23964 -0.110245,-0.50075 -0.157829,-0.75221 0.05995,-0.008 0.119997,-0.0145 0.180221,-0.0201 0.0088,0.17677 0.02013,0.35347 0.03368,0.53006 0.0121,0.15974 0.01282,0.32173 0.03892,0.48011 0.0205,0.12428 0.06411,0.22918 0.181575,0.28889 0.09724,0.0495 0.213718,0.0503 0.306356,-0.009 0.04749,-0.0304 0.04036,-0.0205 0.08957,0.005 0.06429,0.0333 0.142208,0.0418 0.212996,0.0269 0.145368,-0.0304 0.209836,-0.1481 0.261753,-0.27563 0.117468,-0.28889 0.163336,-0.60151 0.209113,-0.90799 0.09553,0.0323 0.187715,0.0711 0.279541,0.11248 0.02302,0.0104 0.07286,0.0252 0.08415,0.0515 0.0077,0.018 -0.02122,0.0686 -0.02618,0.0828 -0.06907,0.1995 -0.132728,0.401 -0.189972,0.6043 -0.116295,0.41209 -0.206766,0.83167 -0.267803,1.2555 m -0.932162,2.41052 c -0.412178,0 -0.789052,-0.19031 -0.928822,-0.59582 -0.07295,-0.21151 -0.08262,-0.4443 -0.03476,-0.66221 0.02339,-0.10624 0.05788,-0.2097 0.09526,-0.3118 0.01869,-0.051 0.03873,-0.10164 0.0577,-0.15252 0.01246,-0.0335 0.02077,-0.10065 0.05056,-0.12392 0.06212,-0.0483 0.243785,-0.0137 0.321525,-0.0137 0.132186,0 0.264281,-2.7e-4 0.396467,-5.3e-4 0.255613,-2.6e-4 0.511227,-0.006 0.76684,-0.006 0.06627,0 0.220761,-0.0285 0.251911,0.0394 0.01418,0.0309 0.0073,0.0749 0.0089,0.10787 0.0031,0.0641 0.01011,0.12799 0.01282,0.19212 0.0102,0.24027 -0.0031,0.48569 -0.0595,0.72001 -0.05427,0.22522 -0.1553,0.45043 -0.336243,0.60214 -0.16767,0.1407 -0.385903,0.20474 -0.602691,0.20474 m -1.086379,-7.82253 c 0.269157,-0.0297 0.539488,-0.0503 0.810179,-0.0536 -0.02212,0.78712 -0.04442,1.57316 -0.03187,2.36056 0.0011,0.0742 0.02095,0.17119 0.0085,0.24343 -0.0112,0.0649 -0.09779,0.0476 -0.150786,0.0537 -0.02582,0.003 -0.107446,0.0262 -0.1302,0.0136 -0.04388,-0.0245 -0.05562,-0.18607 -0.06528,-0.23089 -0.07801,-0.36574 -0.206946,-0.72751 -0.333624,-1.07881 -0.152772,-0.42382 -0.321616,-0.84205 -0.484952,-1.26191 0.125685,-0.0178 0.252092,-0.0308 0.378047,-0.0461 m -0.964215,1.45889 c -0.186066,-0.40156 -0.378295,-0.80031 -0.573142,-1.1978 0.160176,-0.036 0.321254,-0.0758 0.482062,-0.10688 0.05697,-0.011 0.0921,-0.0136 0.121712,0.0406 0.0391,0.0716 0.06275,0.16019 0.09354,0.23568 0.147535,0.36141 0.286763,0.72814 0.413261,1.09757 0.125865,0.36745 0.246945,0.73968 0.340577,1.11687 0.02077,0.0833 0.03937,0.0989 -0.04704,0.12186 -0.06402,0.017 -0.126226,0.0352 -0.187985,0.0591 -0.05011,0.0196 -0.06384,0.0345 -0.0884,-0.0151 -0.02221,-0.045 -0.0307,-0.0971 -0.04659,-0.14432 -0.13959,-0.4111 -0.329471,-0.81219 -0.507976,-1.20751 m 15.00796,-22.36389 c -0.39222,-0.95579 -1.01541,-1.81119 -1.79705,-2.48656 -0.20442,-0.1766 -0.41977,-0.33976 -0.64297,-0.49192 -0.23611,-0.161 -0.491,-0.34039 -0.75898,-0.44394 -0.12921,-0.0499 -0.26807,-0.062 -0.4055,-0.0615 -0.0467,2.7e-4 -0.10184,0.014 -0.13995,-0.0164 -0.0472,-0.0375 -0.0808,-0.11617 -0.11575,-0.16596 -0.16812,-0.23938 -0.34789,-0.47072 -0.53985,-0.6917 -0.70743,-0.81389 -1.59743,-1.50379 -2.63541,-1.83417 -0.54527,-0.17344 -1.134505,-0.24677 -1.704872,-0.18481 -0.05454,0.006 -0.08496,0.0115 -0.130289,-0.0243 -0.0558,-0.0442 -0.103203,-0.10318 -0.150334,-0.15603 -0.09309,-0.10427 -0.18934,-0.2024 -0.295883,-0.29314 -0.203245,-0.17299 -0.427437,-0.32082 -0.666888,-0.43915 -0.771626,-0.38143 -1.915881,-0.59898 -2.63288,0.0101 -0.10239,0.087 -0.191417,0.18887 -0.26392,0.30188 -0.692531,-0.826 -1.884821,-0.93242 -2.850572,-0.58554 -0.283423,0.10183 -0.55267,0.24316 -0.795462,0.42139 -0.03097,0.0228 -0.09183,0.093 -0.131102,0.0985 -0.04767,0.007 -0.123157,-0.0617 -0.159454,-0.0857 -0.132095,-0.0873 -0.292181,-0.13854 -0.446036,-0.17191 -0.656324,-0.14215 -1.337207,0.0919 -1.914617,0.39243 -0.574159,0.2989 -1.11455,0.67718 -1.578645,1.12896 -0.240805,0.23441 -0.460302,0.49065 -0.657407,0.76277 -0.09914,0.137 -0.192681,0.27798 -0.280533,0.42247 -0.04009,0.0659 -0.07684,0.13312 -0.113857,0.20068 -0.03937,0.0722 -0.0995,0.10363 -0.163517,0.15216 -0.994102,0.7542 -1.772408,1.76816 -2.279843,2.90506 -0.561428,1.25784 -0.801421,2.6361 -0.833203,4.00714 -0.03251,1.4063 0.159182,2.81297 0.600795,4.14991 0.430958,1.30466 1.075724,2.52111 1.803288,3.68272 0.75456,1.20445 1.588847,2.35758 2.329683,3.57069 0.378048,0.61927 0.740024,1.24837 1.113918,1.87008 0.373804,0.62153 0.750948,1.2408 1.123669,1.86278 0.73894,1.23295 1.461176,2.47772 2.099171,3.76632 0.627702,1.26795 1.173329,2.57982 1.56176,3.94148 0.05047,0.1766 0.09806,0.3541 0.143021,0.53223 0.02176,0.0865 0.04298,0.17318 0.06348,0.26003 0.01806,0.0766 0.06095,0.17561 0.05237,0.2548 -0.007,0.0642 -0.05779,0.13556 -0.08045,0.19644 -0.03007,0.0807 -0.05751,0.16244 -0.08162,0.24515 -0.03729,0.12781 -0.06636,0.25805 -0.08596,0.38973 -0.07819,0.52538 0.0019,1.10605 0.411546,1.48171 0.399898,0.3669 1.023446,0.50166 1.545056,0.36537 0.553934,-0.14476 0.846747,-0.66392 0.967105,-1.18695 0.079,-0.34337 0.100674,-0.69828 0.102029,-1.04977 6.35e-4,-0.15603 0.02031,-0.33128 -0.04144,-0.47631 -0.04794,-0.11257 0.02474,-0.287 0.04587,-0.40263 0.124511,-0.68159 0.325318,-1.34831 0.584182,-1.99085 0.510955,-1.26795 1.239331,-2.43542 2.032355,-3.54436 0.836186,-1.16936 1.751916,-2.27857 2.615096,-3.42755 0.8583,-1.14249 1.67498,-2.31645 2.44128,-3.52253 0.76386,-1.20219 1.47788,-2.43578 2.14423,-3.69444 0.64865,-1.22537 1.24944,-2.4861 1.65728,-3.81412 0.41534,-1.35246 0.61272,-2.78564 0.43692,-4.19601 -0.0826,-0.66265 -0.24613,-1.31629 -0.49985,-1.93466" />
  </g>
</svg>
