<?xml version="1.0" encoding="UTF-8"?>
<svg width="20px" height="20px" viewBox="0 0 20 20" version="1.1" 
    xmlns="http://www.w3.org/2000/svg" 
    xmlns:xlink="http://www.w3.org/1999/xlink">
    <!-- Generator: Sketch 42 (36781) - http://www.bohemiancoding.com/sketch -->
    <title>Icons/Icon_Small_MySensor_Inactive</title>
    <desc>Created with Sketch.</desc>
    <defs>
        <path d="M12.9999594,17 L14.9975267,17 C15.544239,17 16,16.5492199 16,15.9931545 L16,15 C14.8954305,15 14,14.1045695 14,13 C14,11.8954305 14.8954305,11 16,11 L16,4.00684547 C16,3.44994876 15.5511774,3 14.9975267,3 L5.00247329,3 C4.45576096,3 4,3.45078007 4,4.00684547 L4,11 C5.1045695,11 6,11.8954305 6,13 C6,14.1045695 5.1045695,15 4,15 L4,15.9931545 C4,16.5500512 4.44882258,17 5.00247329,17 L7.00004249,17 C7.00506105,16.4468553 7.45400247,16 7.99077797,16 L12.009222,16 C12.5533909,16 12.995096,16.4384685 12.9999594,17 Z" id="path-1"></path>
        <mask id="mask-2" maskContentUnits="userSpaceOnUse" maskUnits="objectBoundingBox" x="-1" y="-1" width="14" height="16">
            <rect x="3" y="2" width="14" height="16" fill="white"></rect>
            <use xlink:href="#path-1" fill="black"></use>
        </mask>
        <circle id="path-3" cx="10" cy="7" r="2"></circle>
        <mask id="mask-4" maskContentUnits="userSpaceOnUse" maskUnits="objectBoundingBox" x="-1" y="-1" width="6" height="6">
            <rect x="7" y="4" width="6" height="6" fill="white"></rect>
            <use xlink:href="#path-3" fill="black"></use>
        </mask>
    </defs>
    <g id="Symbols" stroke="none" stroke-width="1" fill="none" fill-rule="evenodd">
        <g id="Icons/Icon_Small_MySensor_Inactive" stroke="#00A3AC" stroke-width="2">
            <use id="Combined-Shape" mask="url(#mask-2)" xlink:href="#path-1"></use>
            <use id="Oval-2" mask="url(#mask-4)" xlink:href="#path-3"></use>
        </g>
    </g>
</svg>