<svg width="20" height="20" viewBox="0 0 20 20" xmlns="http://www.w3.org/2000/svg"><title>353E3BA6-97F4-447F-8820-28CDD59F1DAF</title><path d="M11 9V6.997C11 6.453 10.552 6 10 6c-.556 0-1 .446-1 .997V9H6.997C6.453 9 6 9.448 6 10c0 .556.446 1 .997 1H9v2.003c0 .544.448.997 1 .997.556 0 1-.446 1-.997V11h2.003c.544 0 .997-.448.997-1 0-.556-.446-1-.997-1H11zM2 5.006C2 3.898 2.895 3 3.994 3h12.012A2 2 0 0 1 18 5.006v9.988A2.001 2.001 0 0 1 16.006 17H3.994A2 2 0 0 1 2 14.994V5.006z" fill="#00A3AC" fill-rule="evenodd"/></svg>