<?xml version="1.0" encoding="UTF-8"?>
<svg width="20px" height="20px" viewBox="0 0 20 20" version="1.1" xmlns="http://www.w3.org/2000/svg" xmlns:xlink="http://www.w3.org/1999/xlink">
    <!-- Generator: Sketch 42 (36781) - http://www.bohemiancoding.com/sketch -->
    <title>Icons/Icon_Small_MyPhotos_Active</title>
    <desc>Created with Sketch.</desc>
    <defs></defs>
    <g id="Symbols" stroke="none" stroke-width="1" fill="none" fill-rule="evenodd">
        <g id="Icons/Icon_Small_MyPhotos_Active" fill="#FF6666">
            <path d="M5.65449318,5.00805664 L5.65449318,4.30878763 C5.65449318,3.91528712 5.98247513,3.59629193 6.37505898,3.59629193 L9.29756375,3.59629193 C9.69552125,3.59629193 10.0181295,3.90924712 10.0181295,4.30878763 L10.0181295,5.00805664 L17.2956585,5.00805664 C17.6946682,5.00805664 18.0181295,5.32393153 18.0181295,5.71288181 L18,15.2951748 C18,15.684439 17.6764027,16 17.277529,16 L2.72247104,16 C2.3234613,16 2,15.6841251 2,15.2951748 L2.01812954,5.71288181 C2.01812954,5.32361762 2.34172684,5.00805664 2.74060059,5.00805664 L5.65449318,5.00805664 Z M9.50981001,14.5041504 C11.6490554,14.5041504 13.3832564,12.8209553 13.3832564,10.7446289 C13.3832564,8.66830252 11.6490554,6.98510742 9.50981001,6.98510742 C7.37056465,6.98510742 5.63636364,8.66830252 5.63636364,10.7446289 C5.63636364,12.8209553 7.37056465,14.5041504 9.50981001,14.5041504 Z M9.50981001,13.0003418 C8.2262628,13.0003418 7.18574219,11.9904247 7.18574219,10.7446289 C7.18574219,9.49883308 8.2262628,8.48891602 9.50981001,8.48891602 C10.7933572,8.48891602 11.8338778,9.49883308 11.8338778,10.7446289 C11.8338778,11.9904247 10.7933572,13.0003418 9.50981001,13.0003418 Z" id="Combined-Shape"></path>
        </g>
    </g>
</svg>