<svg width="24" height="24" viewBox="0 0 24 24" xmlns="http://www.w3.org/2000/svg" xmlns:xlink="http://www.w3.org/1999/xlink"><title>37DE703F-9A97-4B37-8CB0-5F1C57986017</title><defs><circle id="a" cx="9" cy="7" r="3"/><mask id="c" x="-2" y="-2" width="10" height="10"><path fill="#fff" d="M4 2h10v10H4z"/><use xlink:href="#a"/></mask><path d="M.996 0H14v13H1.499h2.499A4.007 4.007 0 0 0 8 8.997V5.006A5 5 0 0 0 2.991 0H.996z" id="d"/><path d="M0 14h15V0H0a7 7 0 1 1 0 14z" id="f"/><circle id="b" cx="7" cy="7" r="3"/><mask id="h" x="-2" y="-2" width="10" height="10"><path fill="#fff" d="M2 2h10v10H2z"/><use xlink:href="#b"/></mask></defs><g fill="none" fill-rule="evenodd"><use stroke="#FFF" mask="url(#c)" stroke-width="4" xlink:href="#a"/><path d="M3 16.006C3 14.898 3.902 14 5.009 14h7.982A2 2 0 0 1 15 16.006v3.991c0 .554-.456 1.003-1.002 1.003H4.002A.996.996 0 0 1 3 19.997v-3.991z" stroke="#FFF" stroke-width="2"/><g transform="translate(10 11)"><mask id="e" fill="#fff"><use xlink:href="#d"/></mask><path d="M0 5.006C0 3.898.902 3 2.009 3H9.99A2 2 0 0 1 12 5.006v3.991C12 9.551 11.544 10 10.998 10H1.002A.996.996 0 0 1 0 8.997V5.006z" stroke="#FFF" stroke-width="2" mask="url(#e)"/></g><g transform="translate(9)"><mask id="g" fill="#fff"><use xlink:href="#f"/></mask><g mask="url(#g)" stroke-width="4" stroke="#FFF"><use mask="url(#h)" xlink:href="#b"/></g></g></g></svg>