<svg width="20" height="20" viewBox="0 0 20 20" xmlns="http://www.w3.org/2000/svg"><title>36B0C6D6-256F-4DB2-9470-BFD5DBEF7C9B</title><path d="M5.654 5.008v-.7a.72.72 0 0 1 .721-.712h2.923c.398 0 .72.313.72.713v.7h7.278c.399 0 .722.315.722.704L18 15.295c0 .39-.324.705-.722.705H2.722A.714.714 0 0 1 2 15.295l.018-9.582c0-.39.324-.705.723-.705h2.913zm3.856 9.496c2.14 0 3.873-1.683 3.873-3.76 0-2.076-1.734-3.759-3.873-3.759-2.14 0-3.874 1.683-3.874 3.76 0 2.076 1.735 3.76 3.874 3.76zm0-1.504c-1.284 0-2.324-1.01-2.324-2.255 0-1.246 1.04-2.256 2.324-2.256 1.283 0 2.324 1.01 2.324 2.256 0 1.245-1.04 2.255-2.324 2.255z" fill="#F66" fill-rule="evenodd"/></svg>