<svg width="20" height="20" viewBox="0 0 20 20" xmlns="http://www.w3.org/2000/svg" xmlns:xlink="http://www.w3.org/1999/xlink"><title>94733694-3BA4-4C96-BE45-DEE4A0E51C4B</title><defs><path d="M13 17h1.998A1.01 1.01 0 0 0 16 15.993V15a2 2 0 1 1 0-4V4.007C16 3.45 15.551 3 14.998 3H5.002A1.01 1.01 0 0 0 4 4.007V11a2 2 0 1 1 0 4v.993C4 16.55 4.449 17 5.002 17H7c.005-.553.454-1 .99-1h4.02c.543 0 .985.438.99 1z" id="a"/><mask id="c" x="-1" y="-1" width="14" height="16"><path fill="#fff" d="M3 2h14v16H3z"/><use xlink:href="#a"/></mask><circle id="b" cx="10" cy="7" r="2"/><mask id="d" x="-1" y="-1" width="6" height="6"><path fill="#fff" d="M7 4h6v6H7z"/><use xlink:href="#b"/></mask></defs><g stroke="#F66" stroke-width="2" fill="none" fill-rule="evenodd"><use mask="url(#c)" xlink:href="#a"/><use mask="url(#d)" xlink:href="#b"/></g></svg>