<svg width="24" height="24" viewBox="0 0 24 24" xmlns="http://www.w3.org/2000/svg" xmlns:xlink="http://www.w3.org/1999/xlink"><title>5C419887-5694-4026-A1A4-26D1ADCD6473</title><defs><circle id="a" cx="11.5" cy="13.5" r="3.5"/><mask id="b" x="-2" y="-2" width="11" height="11"><path fill="#fff" d="M6 8h11v11H6z"/><use xlink:href="#a"/></mask></defs><g stroke="#FFF" fill="none" fill-rule="evenodd"><path d="M6 6H2.002A.999.999 0 0 0 1 7.007v12.986C1 20.55 1.449 21 2.002 21h19.996A.999.999 0 0 0 23 19.993V7.007C23 6.45 22.551 6 21.998 6H12v-.99A.995.995 0 0 0 11.01 4H6.99C6.452 4 6 4.452 6 5.01V6z" stroke-width="2"/><use mask="url(#b)" stroke-width="4" xlink:href="#a"/></g></svg>