<?xml version="1.0" encoding="UTF-8"?>
<svg width="24px" height="36px" viewBox="0 0 24 36" version="1.1" xmlns="http://www.w3.org/2000/svg" xmlns:xlink="http://www.w3.org/1999/xlink">
    <!-- Generator: sketchtool 43.1 (39012) - http://www.bohemiancoding.com/sketch -->
    <title>38F6E032-55D0-4BE5-B6E7-5F5E1484845E</title>
    <desc>Created with sketchtool.</desc>
    <defs>
        <path d="M12,0 C8.82472727,0 5.92545455,1.10347826 3.83672727,3.10617391 C1.32654545,5.51347826 0,7.48395652 0,12 C0,21.8366087 10.5196364,35.0514783 10.9672727,35.537087 C11.2403636,35.8336957 11.6123636,36 12,36 C12.3876364,36 12.7596364,35.8336957 13.0327273,35.537087 C13.4803636,35.0514783 24,21.8366087 24,12 C24,7.48395652 22.6734545,5.51347826 20.1632727,3.10617391 C18.0745455,1.10347826 15.1752727,0 12,0 Z" id="path-1"></path>
    </defs>
    <g id="Pages" stroke="none" stroke-width="1" fill="none" fill-rule="evenodd">
        <g id="Page05_Dashboard" transform="translate(-807.000000, -502.000000)">
            <g id="Map_Stuff" transform="translate(42.000000, 160.000000)">
                <g id="Pins" transform="translate(393.000000, 60.000000)">
                    <g id="UI/UI_Pin_Sensor" transform="translate(372.000000, 282.000000)">
                        <g id="Path">
                            <use fill="#022B3A" fill-rule="evenodd" xlink:href="#path-1"></use>
                            <path stroke="#022B3A" stroke-width="3" d="M12.0000212,34.4388601 C11.7408097,34.1268022 11.0096159,33.1743862 10.2831458,32.1628334 C9.02922251,30.4168435 7.77129332,28.5032121 6.61070027,26.5180934 C3.40750036,21.0392289 1.5,15.9886787 1.5,12 C1.5,8.32691833 2.28722685,6.67047434 4.87497046,4.18878699 C6.67696309,2.46101582 9.20241667,1.5 12,1.5 C14.7975833,1.5 17.3230369,2.46101582 19.1251449,4.18889758 C21.7127731,6.67047434 22.5,8.32691833 22.5,12 C22.5,15.9886787 20.5924996,21.0392289 17.3892997,26.5180934 C16.2287067,28.5032121 14.9707775,30.4168435 13.7168542,32.1628334 C12.9900196,33.1748937 12.2584566,34.1277578 12.0000212,34.4388601 Z"></path>
                        </g>
                        <g id="Icons/Icon_Small_Photos_Active" transform="translate(2.000000, 2.000000)" fill-rule="evenodd" fill="#00A3AC">
                            <path d="M5.65449318,5.00805664 L5.65449318,4.30878763 C5.65449318,3.91528712 5.98247513,3.59629193 6.37505898,3.59629193 L9.29756375,3.59629193 C9.69552125,3.59629193 10.0181295,3.90924712 10.0181295,4.30878763 L10.0181295,5.00805664 L17.2956585,5.00805664 C17.6946682,5.00805664 18.0181295,5.32393153 18.0181295,5.71288181 L18,15.2951748 C18,15.684439 17.6764027,16 17.277529,16 L2.72247104,16 C2.3234613,16 2,15.6841251 2,15.2951748 L2.01812954,5.71288181 C2.01812954,5.32361762 2.34172684,5.00805664 2.74060059,5.00805664 L5.65449318,5.00805664 Z M9.50981001,14.5041504 C11.6490554,14.5041504 13.3832564,12.8209553 13.3832564,10.7446289 C13.3832564,8.66830252 11.6490554,6.98510742 9.50981001,6.98510742 C7.37056465,6.98510742 5.63636364,8.66830252 5.63636364,10.7446289 C5.63636364,12.8209553 7.37056465,14.5041504 9.50981001,14.5041504 Z M9.50981001,13.0003418 C8.2262628,13.0003418 7.18574219,11.9904247 7.18574219,10.7446289 C7.18574219,9.49883308 8.2262628,8.48891602 9.50981001,8.48891602 C10.7933572,8.48891602 11.8338778,9.49883308 11.8338778,10.7446289 C11.8338778,11.9904247 10.7933572,13.0003418 9.50981001,13.0003418 Z" id="Combined-Shape"></path>
                        </g>
                    </g>
                </g>
            </g>
        </g>
    </g>
</svg>