<svg xmlns="http://www.w3.org/2000/svg" xmlns:xlink="http://www.w3.org/1999/xlink" width="24" height="36" viewBox="0 0 24 36">
    <defs>
        <path id="a" d="M12 0C8.825 0 5.925 1.103 3.837 3.106 1.327 5.513 0 7.484 0 12c0 9.837 10.52 23.051 10.967 23.537.273.297.645.463 1.033.463.388 0 .76-.166 1.033-.463C13.48 35.051 24 21.837 24 12c0-4.516-1.327-6.487-3.837-8.894C18.075 1.103 15.175 0 12 0z"/>
        <mask id="c" width="24" height="36" x="0" y="0" fill="#fff">
            <use xlink:href="#a"/>
        </mask>
        <path id="b" d="M6.179 9.24A3 3 0 1 0 5 15h11a2 2 0 1 0-1.073-3.688A4.5 4.5 0 0 0 6.179 9.24z"/>
        <mask id="d" width="18" height="11" x="-1" y="-1">
            <path fill="#fff" d="M1 5h18v11H1z"/>
            <use xlink:href="#b"/>
        </mask>
    </defs>
    <g fill="none" fill-rule="evenodd">
        <use fill="#022B3A" stroke="#022B3A" stroke-width="6" mask="url(#c)" xlink:href="#a"/>
        <g transform="translate(2 2)">
            <use fill="#00A3AC" xlink:href="#b"/>
            <use stroke="#00A3AC" stroke-width="2" mask="url(#d)" xlink:href="#b"/>
        </g>
    </g>
</svg>
