<svg xmlns="http://www.w3.org/2000/svg" xmlns:xlink="http://www.w3.org/1999/xlink" width="24" height="36" viewBox="0 0 24 36">
    <defs>
        <path id="a" d="M12 0C8.825 0 5.925 1.103 3.837 3.106 1.327 5.513 0 7.484 0 12c0 9.837 10.52 23.051 10.967 23.537.273.297.645.463 1.033.463.388 0 .76-.166 1.033-.463C13.48 35.051 24 21.837 24 12c0-4.516-1.327-6.487-3.837-8.894C18.075 1.103 15.175 0 12 0z"/>
    </defs>
    <g fill="none" fill-rule="evenodd">
        <g>
            <use fill="#022B3A" xlink:href="#a"/>
            <path stroke="#022B3A" stroke-width="3" d="M12 34.439c-.26-.312-.99-1.265-1.717-2.276a72.473 72.473 0 0 1-3.672-5.645C3.408 21.04 1.5 15.988 1.5 12c0-3.673.787-5.33 3.375-7.811C6.677 2.46 9.202 1.5 12 1.5s5.323.961 7.125 2.689C21.713 6.67 22.5 8.327 22.5 12c0 3.989-1.908 9.04-5.11 14.518a72.473 72.473 0 0 1-3.673 5.645A53.493 53.493 0 0 1 12 34.439z"/>
        </g>
        <path fill="#F66" fill-rule="nonzero" d="M11.867 7.298c-1.557-1.725-4.122-1.731-5.692-.013C4.608 9 4.614 11.695 6.16 13.367l5.337 5.772c.277.3.75.3 1.027 0l5.31-5.761C19.383 11.7 19.39 9 17.85 7.315c-1.6-1.75-4.162-1.74-5.724-.005l-.124.138-.135-.15z"/>
    </g>
</svg>
