<svg width="24" height="36" viewBox="0 0 24 36" 
    xmlns="http://www.w3.org/2000/svg" 
    xmlns:xlink="http://www.w3.org/1999/xlink">
    <title>A30F56FC-233C-4773-AA57-6CF95F44E1D7</title>
    <defs>
        <path d="M12 0C8.825 0 5.925 1.103 3.837 3.106 1.327 5.513 0 7.484 0 12c0 9.837 10.52 23.051 10.967 23.537.273.297.645.463 1.033.463.388 0 .76-.166 1.033-.463C13.48 35.051 24 21.837 24 12c0-4.516-1.327-6.487-3.837-8.894C18.075 1.103 15.175 0 12 0z" id="a"/>
        <mask id="b" x="0" y="0" width="24" height="36" fill="#fff">
            <use xlink:href="#a"/>
        </mask>
    </defs>
    <g fill="none" fill-rule="evenodd">
        <use stroke="#072633" mask="url(#b)" stroke-width="6" fill="#072633" xlink:href="#a"/>
        <path d="M15 19a.995.995 0 0 0-.99-1H9.99c-.536 0-.985.447-.99 1H7.002C6.45 19 6 18.55 6 17.993V17a2 2 0 1 0 0-4V6.007A1.01 1.01 0 0 1 7.002 5h9.996C17.55 5 18 5.45 18 6.007V13a2 2 0 1 0 0 4v.993A1.01 1.01 0 0 1 16.998 19H15zm-3-8a2 2 0 1 0 0-4 2 2 0 0 0 0 4z" fill="#FF5C5A"/>
    </g>
</svg>