<?xml version="1.0" encoding="UTF-8"?>
<svg width="20px" height="20px" viewBox="0 0 20 20" version="1.1" xmlns="http://www.w3.org/2000/svg" xmlns:xlink="http://www.w3.org/1999/xlink">
    <!-- Generator: sketchtool 43.1 (39012) - http://www.bohemiancoding.com/sketch -->
    <title>2F9C9BAC-C920-41CB-8F39-37B7BFCBBFC5</title>
    <desc>Created with sketchtool.</desc>
    <defs></defs>
    <g id="Symbols" stroke="none" stroke-width="1" fill="none" fill-rule="evenodd">
        <g id="Icons/Icon_Like_Inactive" stroke="#00A3AC">
            <g id="Group-2" transform="translate(2.000000, 3.000000)">
                <path d="M4.80640635,13.492198 C6.35636891,14.1430929 10.7561723,14.7504502 11.7008865,14.3746099 L11.8514407,14.2808609 C12.3461069,13.8334867 13.401233,11.512406 14.256649,9.15454735 C14.2737454,9.10732614 14.3055634,9.06677354 14.3475604,9.03873607 C15.1021508,8.5345408 15.526852,7.90760086 15.4340186,7.26788889 C15.3552072,6.72533801 14.9120473,6.3072513 14.2955145,6.11445846 C13.5774412,5.88946493 11.9496005,5.50519972 11.0213276,5.30469278 C10.9390019,5.28656303 10.8716509,5.22498872 10.846239,5.14402503 C10.8212061,5.06414161 10.8411065,4.97687396 10.8989756,4.91487974 C12.4749232,3.22604039 13.1212922,1.1544666 12.6259924,0.02445754 C12.6087794,-0.0137794558 12.6087794,-0.0137794558 12.590428,-0.0504448308 C12.4265385,-0.369135784 12.1872827,-0.5 11.9115957,-0.5 C11.2326238,-0.5 10.9739315,-0.114951182 10.5264591,1.19600308 C10.1312827,2.35284617 8.69513082,3.80580791 6.96942672,4.75317147 C6.21723563,5.16590019 5.4258419,5.69797858 4.70140383,6.23735012 L4.5,6.38730289 L4.5,6.63839916 L4.5,13.0311974 L4.5,13.363525 L4.80640635,13.492198 Z" id="Path"></path>
                <rect id="Rectangle-4" stroke-linecap="round" stroke-linejoin="round" x="-0.5" y="6.5" width="3" height="7"></rect>
            </g>
        </g>
    </g>
</svg>