<?xml version="1.0" encoding="UTF-8" standalone="no"?>
<svg
   xmlns:dc="http://purl.org/dc/elements/1.1/"
   xmlns:cc="http://creativecommons.org/ns#"
   xmlns:rdf="http://www.w3.org/1999/02/22-rdf-syntax-ns#"
   xmlns:svg="http://www.w3.org/2000/svg"
   xmlns="http://www.w3.org/2000/svg"
   xmlns:sodipodi="http://sodipodi.sourceforge.net/DTD/sodipodi-0.dtd"
   xmlns:inkscape="http://www.inkscape.org/namespaces/inkscape"
   width="122"
   height="122"
   viewBox="0 0 122 122"
   version="1.1"
   id="svg4712"
   sodipodi:docname="mission_profile.svg"
   inkscape:version="0.92.1 r15371">
  <metadata
     id="metadata4718">
    <rdf:RDF>
      <cc:Work
         rdf:about="">
        <dc:format>image/svg+xml</dc:format>
        <dc:type
           rdf:resource="http://purl.org/dc/dcmitype/StillImage" />
        <dc:title></dc:title>
      </cc:Work>
    </rdf:RDF>
  </metadata>
  <defs
     id="defs4716" />
  <sodipodi:namedview
     pagecolor="#ffffff"
     bordercolor="#666666"
     borderopacity="1"
     objecttolerance="10"
     gridtolerance="10"
     guidetolerance="10"
     inkscape:pageopacity="0"
     inkscape:pageshadow="2"
     inkscape:window-width="1920"
     inkscape:window-height="1017"
     id="namedview4714"
     showgrid="false"
     inkscape:zoom="4.741093"
     inkscape:cx="52.660028"
     inkscape:cy="62.729772"
     inkscape:window-x="1072"
     inkscape:window-y="379"
     inkscape:window-maximized="1"
     inkscape:current-layer="layer1" />
  <g
     id="g4710"
     style="fill:none;fill-rule:evenodd;stroke:#00a3ac">
    <path
       d="M 1,1 H 121 V 118.992 A 2.006,2.006 0 0 1 118.992,121 H 1 Z"
       id="path4702"
       inkscape:connector-curvature="0"
       style="fill:#e0f4f5" />
    <g
       transform="translate(31,31)"
       id="g4708" />
  </g>
  <g
     inkscape:groupmode="layer"
     id="layer1"
     inkscape:label="Layer 1">
    <polygon
       transform="matrix(0.81290883,0,0,0.79510445,21.347547,5.4691477)"
       style="fill:#ff5958"
       points="34.320388,108.73786 25.485437,93.106796 12.23301,72.038835 6.4563107,62.524272 2.7184466,52.330097 1.3592233,43.834952 1.0194175,37.038835 2.7184466,28.203883 6.7961165,19.368932 13.592233,13.592233 15.970874,9.1747573 23.786408,3.7378641 29.223301,3.0582524 31.941748,3.7378641 39.07767,1.3592233 46.213592,4.0776699 50.291262,1.6990291 57.087379,3.0582524 60.825243,6.4563107 66.601942,6.7961165 73.737864,10.533981 80.533981,18.009709 83.592233,18.009709 89.368932,23.106796 92.76699,29.223301 95.145631,36.019418 95.485437,43.495146 92.087379,57.087379 84.271845,73.058252 71.359223,92.427184 58.106796,110.43689 56.747573,110.09709 51.990291,108.05825 45.533981,107.03884 38.398058,107.71845 "
       id="Path-2" />
    <polygon
       transform="matrix(0.81290883,0,0,0.79510445,20.972662,6.0191563)"
       style="fill:#ff5958"
       points="42.135922,130.14563 40.776699,134.56311 42.475728,138.30097 47.23301,138.98058 49.271845,136.60194 50.631068,131.84466 50.291262,129.80582 "
       id="Path-3" />
    <path
       style="fill:#222221;stroke-width:0.80395734"
       inkscape:connector-curvature="0"
       id="Fill-1"
       d="m 97.520674,44.189375 c -0.758733,3.570743 -2.146332,6.981553 -3.751139,10.262813 -1.652282,3.377754 -3.483468,6.670402 -5.411199,9.904752 -1.924366,3.228401 -3.983594,6.379027 -6.139345,9.464053 -2.1702,3.105609 -4.453833,6.133988 -6.813234,9.104609 -2.345488,2.952767 -4.719566,5.888444 -6.875317,8.978603 -0.261034,0.374318 -0.519034,0.751071 -0.772873,1.129985 -0.139549,-0.274971 -0.428044,-0.433395 -0.686866,-0.584377 -0.332057,-0.19473 -0.6644,-0.386516 -1.009503,-0.558617 -0.718488,-0.358577 -1.471098,-0.651334 -2.241747,-0.88333 -1.581795,-0.475948 -3.233222,-0.698746 -4.884645,-0.757018 -1.686659,-0.05915 -3.376366,0.05169 -5.047763,0.271663 -0.854149,0.112396 -1.704688,0.25363 -2.550237,0.41576 -0.387541,0.07394 -0.773698,0.152359 -1.159297,0.235001 -0.145632,0.03093 -0.561758,0.19263 -0.68465,0.116594 -0.1154,-0.07124 -0.213318,-0.321993 -0.276578,-0.437451 -0.0738,-0.135231 -0.140656,-0.274064 -0.208893,-0.411974 -0.190582,-0.386279 -0.403353,-0.761409 -0.614184,-1.137613 -0.395313,-0.705813 -0.796447,-1.408621 -1.202857,-2.108727 -0.843327,-1.453602 -1.708015,-2.895821 -2.580748,-4.332629 -1.786801,-2.941109 -3.58026,-5.877862 -5.385093,-8.808124 -1.748794,-2.839447 -3.58137,-5.626875 -5.429202,-8.405589 -1.816484,-2.731322 -3.682069,-5.439055 -5.339873,-8.267114 -1.605654,-2.738894 -2.990765,-5.612239 -3.964752,-8.626254 -0.99313,-3.073366 -1.51799,-6.278985 -1.620078,-9.498731 -0.196143,-6.187389 1.143209,-12.686201 5.098805,-17.664721 0.475484,-0.598739 0.986194,-1.170916 1.529365,-1.711926 -0.895479,2.631312 -1.29301,5.358007 -1.318256,8.125902 -0.02519,2.796353 0.185021,5.620354 0.495177,8.399098 0.307651,2.755424 0.711007,5.504086 1.323528,8.21209 0.609192,2.693367 1.415626,5.36044 2.391003,7.9489 0.971767,2.578452 2.166019,5.045746 3.447101,7.488938 1.292456,2.4657 2.474501,4.98369 3.582201,7.533924 2.224834,5.12517 4.238834,10.347376 6.799056,15.327279 0.622786,1.211003 1.281913,2.407402 1.979324,3.578859 0.322072,0.541251 0.631107,1.150293 1.039735,1.633852 0.345096,0.408183 0.965388,0.387869 1.337396,0.02099 0.512376,-0.507411 0.04965,-1.102873 -0.251323,-1.579904 C 49.954756,85.984274 49.591347,85.39936 49.246251,84.800891 48.561045,83.610768 47.916343,82.398413 47.302992,81.171392 44.828487,76.22157 42.868027,71.050873 40.647355,65.992386 39.525508,63.437253 38.294914,60.939578 37.023541,58.453292 35.76715,55.996037 34.577894,53.518946 33.646903,50.923967 31.785476,45.735928 30.784304,40.275476 30.294396,34.809346 c -0.249941,-2.790134 -0.477698,-5.61143 -0.299314,-8.412111 0.168951,-2.657037 0.782573,-5.278852 1.863364,-7.724478 1.002006,-2.267573 2.401266,-4.31448 4.304857,-5.952932 0.939034,-0.808256 1.964067,-1.520289 3.045135,-2.135828 1.034186,-0.5887027 2.1319,-1.1337709 3.294248,-1.4332906 1.068586,-0.2755702 2.252296,-0.3211877 3.23211,0.2503255 -1.298557,1.4899381 -2.157697,3.2744681 -2.796573,5.1162151 -0.689644,1.989208 -1.156248,4.053185 -1.463618,6.130473 -0.635269,4.288727 -0.430819,8.663368 0.162838,12.945063 0.591716,4.26757 1.491358,8.492887 2.501134,12.682956 0.504886,2.094898 1.054435,4.178677 1.61536,6.260022 0.559538,2.078101 1.156523,4.143429 1.577357,6.254345 0.419442,2.102201 0.729312,4.223936 1.059986,6.341043 0.329842,2.108451 0.678543,4.214198 1.01116,6.32211 0.332061,2.106287 0.809484,4.16215 1.367632,6.221257 0.555932,2.051804 1.140992,4.125036 1.405641,6.235923 0.131222,1.04461 0.181426,2.099225 0.102095,3.14951 -0.0566,0.748639 -0.420554,1.918747 0.584227,2.219583 1.015043,0.303847 1.075797,-0.914482 1.1335,-1.570682 0.09321,-1.060868 0.07519,-2.129337 -0.02151,-3.189124 -0.38297,-4.217443 -1.923154,-8.232944 -2.671053,-12.388033 -0.763156,-4.239411 -1.253064,-8.525973 -2.089458,-12.752344 -0.839165,-4.241034 -1.978768,-8.418901 -3.050403,-12.607345 -1.062484,-4.150761 -2.076143,-8.32349 -2.698372,-12.5626 -0.618905,-4.21474 -0.840555,-8.506441 -0.299593,-12.741767 0.263552,-2.062924 0.695188,-4.12122 1.34877,-6.101202 0.585892,-1.775606 1.36292,-3.549858 2.648715,-4.955773 2.098334,-2.294379 6.186257,-3.8328193 9.035817,-1.9306384 1.367635,0.9131349 2.111369,2.4426504 2.542745,3.9594244 0.535123,1.882377 0.67688,3.855598 0.715163,5.800872 0.04189,2.139615 -0.02182,4.280041 0.0085,6.419926 0.03161,2.187607 0.216943,4.363012 0.357029,6.545179 0.277409,4.301739 0.03967,8.602395 -0.479366,12.878379 -0.520978,4.289538 -1.278028,8.548994 -1.729098,12.846915 -0.453845,4.320459 -0.448019,8.661745 -0.448574,12.999815 -8.12e-4,4.357302 -0.114016,8.714336 -0.228036,13.070285 -0.02827,1.088784 -0.05881,2.17784 -0.08765,3.266626 -0.01414,0.535574 -0.02827,1.071142 -0.04132,1.606746 -0.0096,0.384323 -0.07602,0.826678 0.19307,1.148401 0.496563,0.594119 1.461675,0.190826 1.557381,-0.501432 0.07073,-0.512006 0.04992,-1.043797 0.05466,-1.559057 0.0052,-0.522017 0.02212,-1.044305 0.03551,-1.566354 0.11153,-4.339422 0.209169,-8.679356 0.281279,-13.01986 0.07156,-4.324246 2.76e-4,-8.661474 0.261584,-12.97974 0.26048,-4.296328 0.99008,-8.547642 1.584841,-12.807368 0.298484,-2.139344 0.549551,-4.284939 0.745413,-6.435402 0.194447,-2.130661 0.367009,-4.276796 0.2896,-6.417222 -0.07743,-2.145325 -0.315978,-4.278959 -0.486853,-6.418033 -0.173932,-2.184903 -0.151192,-4.364365 -0.112899,-6.553593 0.03752,-2.134177 0.07093,-4.288997 -0.239116,-6.407457 -0.149246,-1.018314 -0.390585,-2.018478 -0.727352,-2.992859 -0.08098,-0.234397 -0.166972,-0.467023 -0.260159,-0.697125 -0.07129,-0.175799 -0.253013,-0.432858 -0.247175,-0.624224 0.0047,-0.1592707 0.147598,-0.3770217 0.223886,-0.5136348 0.106797,-0.1914264 0.235255,-0.371853 0.386157,-0.5325966 1.203954,-1.2812333 3.522553,-1.0551573 5.063567,-0.6242238 1.846729,0.5163404 3.320609,1.7289952 4.499882,3.1758402 2.553551,3.132717 3.923975,7.118135 4.693485,11.005468 0.821728,4.149678 0.772589,8.351646 0.227666,12.531978 -0.554808,4.255098 -1.471086,8.476329 -2.482528,12.647976 -1.015331,4.187092 -2.186279,8.337312 -3.47041,12.453094 -1.264151,4.051862 -2.754681,8.046206 -3.799685,12.160395 -0.513208,2.01929 -0.860809,4.058623 -1.134615,6.120436 -0.26798,2.017396 -0.510984,4.042607 -0.968154,6.029651 -0.22997,0.999319 -0.514324,1.987555 -0.879396,2.947874 -0.276031,0.727202 -1.068587,1.809196 -0.157282,2.397661 0.334566,0.216372 0.772588,0.21727 1.041685,-0.09796 0.264102,-0.309256 0.390867,-0.787669 0.542618,-1.1552 0.391141,-0.947302 0.692682,-1.926037 0.947626,-2.916163 1.05943,-4.112268 1.217841,-8.383384 2.206533,-12.510555 0.495999,-2.070526 1.163444,-4.094384 1.837286,-6.114486 0.688246,-2.062924 1.364575,-4.128011 2.000954,-6.207163 1.268041,-4.142918 2.407104,-8.324842 3.485111,-12.518726 1.066066,-4.149139 2.019805,-8.339476 2.542728,-12.591059 0.521237,-4.236136 0.586159,-8.530842 -0.107196,-12.752344 -0.327359,-1.991642 -0.843611,-3.951281 -1.52465,-5.855083 -0.661606,-1.849892 -1.493859,-3.65666 -2.596281,-5.297546 4.236065,-0.07362 8.016055,2.11197 10.769083,5.128687 2.854271,3.127308 4.83137,7.064495 5.914667,11.102504 1.163182,4.335605 1.264973,8.901074 0.669669,13.329657 -0.600322,4.465697 -1.907204,8.81732 -3.575827,13.007117 -1.667255,4.185982 -3.697621,8.224291 -5.861948,12.183685 -2.132748,3.900856 -4.461599,7.684631 -7.394111,11.068335 -1.481099,1.708681 -3.067615,3.325976 -4.443285,5.121384 -0.652471,0.85135 -1.259454,1.737381 -1.789858,2.666804 -0.261034,0.457529 -0.503229,0.925066 -0.722377,1.403178 -0.173658,0.378948 -0.434145,0.783043 -0.454398,1.208058 -0.01996,0.424715 0.313754,0.728022 0.728205,0.787639 0.430267,0.06218 0.801987,-0.139437 1.009217,-0.504136 0.214427,-0.377023 0.329845,-0.81285 0.518204,-1.204241 0.248558,-0.51499 0.524315,-1.017503 0.826129,-1.504576 1.171233,-1.891598 2.662584,-3.582909 4.166707,-5.225448 1.520487,-1.659336 3.060932,-3.301034 4.375317,-5.12544 1.321593,-1.834145 2.477282,-3.779419 3.597176,-5.735271 2.296143,-4.010362 4.289058,-8.202353 6.116059,-12.434672 0.215681,-0.499811 0.425843,-1.001786 0.630006,-1.505925 0.107196,-0.263849 0.212613,-0.52773 0.316821,-0.79254 0.04573,-0.115397 0.09123,-0.231395 0.136733,-0.347212 0.02759,-0.06612 0.05166,-0.132526 0.07766,-0.198639 0.0154,-0.04298 0.02452,-0.197135 0.07777,-0.121707 0.736244,-2.148299 1.499675,-4.287374 2.092219,-6.479037 0.590606,-2.185141 1.03669,-4.400937 1.315481,-6.644889 0.557306,-4.490399 0.448581,-9.037957 -0.71184,-13.432943 -0.629733,-2.386816 -1.553787,-4.689879 -2.78131,-6.843859 1.58622,0.741303 2.999352,1.808962 4.272683,2.985015 1.289673,1.191229 2.402633,2.55378 3.289237,4.056701 1.801501,3.05224 2.628475,6.577966 2.684788,10.083647 0.03444,2.125792 -0.202158,4.252424 -0.644718,6.332659 m -31.41045,51.443042 c -1.01338,1.679647 -1.935222,3.444977 -2.710023,5.278854 -0.371732,-0.1782 -0.75594,-0.33096 -1.147639,-0.46131 -0.08325,-0.0271 -0.319307,-0.055 -0.37895,-0.13735 -0.05223,-0.0724 0.01288,-0.28188 0.0252,-0.364539 0.120961,-0.814239 0.204985,-1.626554 0.391427,-2.430725 0.369508,-1.595924 1.029745,-3.113488 1.456682,-4.694776 0.581164,0.198037 1.156238,0.440185 1.698297,0.725611 0.489077,0.257838 0.925446,0.623387 1.461678,0.78954 -0.271605,0.428259 -0.536232,0.860032 -0.796719,1.294784 m -6.212327,6.046715 c -0.105965,0.69142 -0.242199,1.38014 -0.443303,2.05181 -0.06271,-0.7023 -0.11153,-1.40591 -0.146185,-2.1101 0.196971,0.012 0.393369,0.0339 0.589499,0.0583 m -0.653581,-1.788311 c -0.06769,-2.633211 -0.002,-5.265847 -0.08876,-7.899319 0.967887,0.052 1.934937,0.160173 2.882576,0.362114 -0.342606,1.264678 -0.797837,2.496597 -1.184268,3.748259 -0.390314,1.264698 -0.580344,2.562195 -0.734861,3.871584 -0.290743,-0.03603 -0.582284,-0.06555 -0.874676,-0.08267 m 2.017886,8.502113 c -1.156526,-0.0577 -2.31194,-0.0337 -3.468464,0.002 -0.289605,0.009 -0.579235,0.018 -0.869127,0.021 -0.162561,0.002 -0.373395,0.0464 -0.534295,0.021 -0.166432,-0.024 -0.144803,-0.0934 -0.176724,-0.25182 -0.04412,-0.21729 -0.09875,-0.43231 -0.152301,-0.64751 -0.272706,-1.0942 -0.581453,-2.17919 -0.922112,-3.2547 -0.155066,-0.48869 -0.300728,-0.98442 -0.503501,-1.45604 -0.03994,-0.0937 -0.08433,-0.18903 -0.107344,-0.28879 -0.0096,-0.0421 -0.06935,-0.19774 -0.05411,-0.2296 0.02428,-0.0508 0.250215,-0.0847 0.301556,-0.1009 0.135648,-0.0435 0.272155,-0.0841 0.409458,-0.12352 0.135923,0.79034 0.280757,1.58641 0.565363,2.341 0.195038,0.51799 0.539565,1.24435 1.235586,1.0175 0.721546,-0.2353 0.716553,-0.89797 0.478257,-1.47694 -0.296549,-0.72014 -0.338717,-1.5048 -0.484915,-2.26047 0.184191,-0.0241 0.36868,-0.0435 0.553713,-0.0604 0.02704,0.5312 0.06185,1.06222 0.103477,1.59288 0.03717,0.48005 0.03938,0.96684 0.119578,1.44279 0.06298,0.37349 0.196972,0.68871 0.557873,0.86815 0.298762,0.14876 0.65663,0.15116 0.941253,-0.027 0.145907,-0.0913 0.124001,-0.0616 0.275195,0.015 0.197525,0.1 0.436922,0.12562 0.654411,0.0809 0.446631,-0.0914 0.644705,-0.44507 0.804222,-0.8283 0.360897,-0.86815 0.501826,-1.80761 0.642482,-2.72862 0.293501,0.0971 0.576727,0.21367 0.858858,0.33803 0.07071,0.0312 0.223858,0.0758 0.258548,0.15474 0.0236,0.0541 -0.06523,0.20615 -0.08051,0.24884 -0.212226,0.59951 -0.407803,1.20505 -0.583685,1.81599 -0.357304,1.23838 -0.635274,2.49927 -0.822799,3.77292 m -2.863984,7.24389 c -1.26638,0 -2.424293,-0.57191 -2.853723,-1.79052 -0.224133,-0.6356 -0.253843,-1.33515 -0.106798,-1.99001 0.07187,-0.31926 0.177831,-0.63017 0.292678,-0.93698 0.05742,-0.15327 0.118995,-0.30545 0.177279,-0.45835 0.03828,-0.10072 0.06381,-0.30246 0.155341,-0.37239 0.190859,-0.14515 0.749008,-0.0412 0.987856,-0.0412 0.406131,0 0.811981,-8e-4 1.21811,-0.001 0.785349,-7.8e-4 1.570701,-0.018 2.356051,-0.018 0.203604,0 0.678267,-0.0857 0.773968,0.11841 0.04356,0.0928 0.02246,0.22506 0.02725,0.32415 0.0091,0.19263 0.03102,0.38464 0.03946,0.57736 0.03137,0.72202 -0.0091,1.45955 -0.182814,2.16369 -0.166736,0.67681 -0.477138,1.3536 -1.033074,1.80951 -0.515151,0.42282 -1.185652,0.61527 -1.851715,0.61527 M 55.060359,92.128717 c 0.82696,-0.08925 1.657528,-0.151158 2.489202,-0.161072 -0.06796,2.365388 -0.136476,4.727532 -0.09792,7.093763 0.0034,0.222981 0.06436,0.514449 0.02612,0.731533 -0.03441,0.195036 -0.300452,0.143049 -0.463277,0.161374 -0.07933,0.0089 -0.33012,0.07876 -0.400028,0.04084 -0.134818,-0.07361 -0.170888,-0.559162 -0.200568,-0.693854 -0.239678,-1.099096 -0.635824,-2.186255 -1.02503,-3.241955 -0.469379,-1.273625 -0.988137,-2.530463 -1.48997,-3.79219 0.386154,-0.05351 0.774528,-0.09256 1.161515,-0.138531 m -2.962465,4.384177 c -0.571672,-1.206737 -1.162279,-2.405022 -1.760928,-3.599531 0.492125,-0.108179 0.987023,-0.227789 1.481092,-0.321183 0.175035,-0.03308 0.28297,-0.04087 0.37395,0.12201 0.120132,0.215163 0.192793,0.481388 0.287392,0.708247 0.453289,1.086072 0.881055,2.188142 1.26971,3.298324 0.386708,1.10423 0.758715,2.222824 1.046391,3.356331 0.06381,0.25032 0.120961,0.29721 -0.144526,0.36621 -0.196695,0.0511 -0.387819,0.10572 -0.577567,0.17759 -0.153959,0.0589 -0.196143,0.1037 -0.271601,-0.0454 -0.06824,-0.13521 -0.09432,-0.29179 -0.143144,-0.4337 -0.428878,-1.235396 -1.01227,-2.440724 -1.560712,-3.6287 M 98.20862,29.306818 c -1.205057,-2.872263 -3.119752,-5.442842 -5.521279,-7.47241 -0.628056,-0.530703 -1.289697,-1.021019 -1.975456,-1.478277 -0.725433,-0.483825 -1.508559,-1.022913 -2.331906,-1.334095 -0.396991,-0.149955 -0.823621,-0.186315 -1.245859,-0.184814 -0.143484,7.97e-4 -0.3129,0.04206 -0.429983,-0.04928 -0.145023,-0.112692 -0.248262,-0.349105 -0.355629,-0.498729 -0.516548,-0.71937 -1.06887,-1.414574 -1.658644,-2.078646 -2.173529,-2.445821 -4.907968,-4.519053 -8.097068,-5.511885 -1.675295,-0.521208 -3.485668,-0.7415727 -5.238065,-0.555375 -0.16758,0.01803 -0.261034,0.03456 -0.400309,-0.07303 C 70.783044,9.9374534 70.637394,9.7602115 70.492599,9.6013908 70.206579,9.288045 69.910866,8.9931526 69.583518,8.7204683 68.959066,8.2006122 68.270261,7.7563661 67.534564,7.4007697 65.163817,6.2545276 61.64819,5.6007635 59.445274,7.4311201 59.13069,7.6925662 58.857163,7.998698 58.634403,8.3383059 56.506663,5.856078 52.843458,5.5362724 49.876274,6.5786883 c -0.870792,0.306011 -1.69803,0.7307244 -2.443986,1.2663274 -0.09515,0.068521 -0.282139,0.2794763 -0.4028,0.2960041 C 46.883026,8.1620518 46.651099,7.9556044 46.539579,7.8834814 46.13373,7.6211346 45.64188,7.4671514 45.169173,7.3668717 43.152677,6.9396938 41.060724,7.6430411 39.286683,8.5461705 37.52263,9.4444004 35.862327,10.581176 34.436437,11.938829 c -0.739852,0.704431 -1.414237,1.474462 -2.019825,2.292215 -0.3046,0.411701 -0.591996,0.835363 -0.861913,1.269573 -0.123173,0.198038 -0.236084,0.400042 -0.349815,0.603068 -0.120962,0.216969 -0.305706,0.31142 -0.502392,0.457258 -3.054291,2.266461 -5.445566,5.313532 -7.004616,8.730052 -1.724937,3.779959 -2.462294,7.921795 -2.559943,12.041933 -0.09988,4.226099 0.489073,8.453311 1.845891,12.470974 1.324079,3.92066 3.305066,7.576236 5.540441,11.067013 2.31832,3.619516 4.881593,7.084809 7.157745,10.73035 1.161519,1.860979 2.273658,3.7515 3.422415,5.619812 1.148479,1.867772 2.307222,3.728753 3.452372,5.597877 2.270328,3.705165 4.489335,7.445845 6.449518,11.318241 1.928558,3.81034 3.604949,7.752675 4.798369,11.844615 0.155064,0.53071 0.30128,1.06412 0.439419,1.59942 0.06685,0.25995 0.132052,0.52044 0.195037,0.78143 0.05549,0.23018 0.187263,0.52773 0.160901,0.7657 -0.02151,0.19293 -0.177554,0.40735 -0.247174,0.59032 -0.09238,0.24252 -0.176696,0.48815 -0.25077,0.73671 -0.114571,0.38408 -0.203886,0.77547 -0.264104,1.17118 -0.240233,1.57882 0.0058,3.3238 1.264438,4.4527 1.228651,1.10259 3.144447,1.50755 4.747047,1.09799 1.701905,-0.43502 2.601555,-1.99517 2.971348,-3.56693 0.24272,-1.03187 0.309307,-2.0984 0.313469,-3.15467 0.0011,-0.4689 0.06238,-0.99554 -0.127324,-1.43137 -0.147291,-0.33828 0.07594,-0.86247 0.140941,-1.20994 0.382542,-2.04826 0.999514,-4.05184 1.794841,-5.98275 1.569867,-3.810342 3.807737,-7.318733 6.244227,-10.65123 2.569107,-3.514068 5.382608,-6.847377 8.034656,-10.300199 2.637049,-3.433319 5.146229,-6.961208 7.500624,-10.585622 2.34689,-3.612725 4.540639,-7.319811 6.58795,-11.102234 1.992915,-3.682382 3.838801,-7.471027 5.091845,-11.461884 1.276103,-4.064305 1.882525,-8.371181 1.342393,-12.609511 -0.253781,-1.991342 -0.756212,-3.955609 -1.535746,-5.813884" />
  </g>
</svg>
