<svg xmlns="http://www.w3.org/2000/svg" width="122" height="122" viewBox="0 0 122 122">
    <g fill="none" fill-rule="evenodd" stroke="#00A3AC">
        <path fill="#E0F4F5" d="M1 1h120v117.992a2.006 2.006 0 0 1-2.008 2.008H1V1z"/>
        <g transform="translate(31 31)">
            <path d="M16.963 15.524h.5v-2.598c0-.897.753-1.637 1.662-1.637h8.768c.926 0 1.661.723 1.661 1.637v2.598h22.333c.923 0 1.667.726 1.667 1.615L53.5 45.885c0 .89-.744 1.615-1.667 1.615H8.167c-.923 0-1.667-.726-1.667-1.614l.054-28.746c0-.89.744-1.616 1.668-1.616h8.741z"/>
            <ellipse cx="28.5" cy="31.5" rx="10" ry="10"/>
        </g>
    </g>
</svg>
