<?xml version="1.0" encoding="UTF-8"?>
<svg width="122px" height="122px" viewBox="0 0 122 122" version="1.1" xmlns="http://www.w3.org/2000/svg" xmlns:xlink="http://www.w3.org/1999/xlink">
    <!-- Generator: sketchtool 43.1 (39012) - http://www.bohemiancoding.com/sketch -->
    <title>4B0FF7AF-903E-4201-A52C-6039CE33E99C</title>
    <desc>Created with sketchtool.</desc>
    <defs></defs>
    <g id="Pages" stroke="none" stroke-width="1" fill="none" fill-rule="evenodd">
        <g id="Page17_Social_Community-Copy" transform="translate(-328.000000, -208.000000)" stroke="#00A3AC">
            <g id="Group" transform="translate(309.000000, 149.000000)">
                <g id="Group-4" transform="translate(20.000000, 60.000000)">
                    <g id="Group-2">
                        <g id="UI/UI_Avatar_Empty">
                            <rect id="Rectangle-2" fill="#E0F4F5" x="0" y="0" width="120" height="120" rx="20"></rect>
                            <g id="Icons/Icon_Small_Photos_Inactive" transform="translate(30.000000, 30.000000)">
                                <path d="M16.9634795,15.5241699 L17.4634795,15.5241699 L17.4634795,15.0241699 L17.4634795,12.9263629 C17.4634795,12.0293331 18.2161811,11.2888758 19.1251769,11.2888758 L27.8926912,11.2888758 C28.8186873,11.2888758 29.5543886,12.0120778 29.5543886,12.9263629 L29.5543886,15.0241699 L29.5543886,15.5241699 L30.0543886,15.5241699 L51.8869755,15.5241699 C52.8102249,15.5241699 53.5543886,16.2503813 53.5543886,17.1386454 L53.5000009,45.8845785 C53.5,46.7742173 52.7559501,47.5 51.8325869,47.5 L8.16741313,47.5 C7.24416377,47.5 6.5,46.7737886 6.5,45.8855245 L6.55438774,17.1395914 C6.55438863,16.2499526 7.29843858,15.5241699 8.22180176,15.5241699 L16.9634795,15.5241699 Z" id="Combined-Shape"></path>
                                <ellipse id="Path" cx="28.5" cy="31.5" rx="10" ry="10"></ellipse>
                            </g>
                        </g>
                    </g>
                </g>
            </g>
        </g>
    </g>
</svg>