<svg width="30" height="30" viewBox="0 0 30 30" xmlns="http://www.w3.org/2000/svg" xmlns:xlink="http://www.w3.org/1999/xlink"><title>Icons/Icon_Recommendation_Walking</title><defs><circle id="a" cx="15" cy="15" r="15"/><mask id="b" x="0" y="0" width="30" height="30" fill="#fff"><use xlink:href="#a"/></mask></defs><g fill="none" fill-rule="evenodd"><use stroke="#00A3AC" mask="url(#b)" stroke-width="4" fill="#00A3AC" xlink:href="#a"/><g fill-rule="nonzero" fill="#FFF"><path d="M14.98 8.228c.46-.014.846-.184 1.158-.51.312-.325.46-.707.445-1.146a1.577 1.577 0 0 0-.512-1.125A1.574 1.574 0 0 0 14.891 5c-.46.014-.846.184-1.158.51a1.604 1.604 0 0 0-.468 1.146c0 .439.171.814.512 1.125.342.312.743.46 1.203.446zM20.613 13.6l-2.449-1.274-2.004-3.058c-.386-.453-.86-.679-1.425-.679-.386 0-.757.156-1.113.467l-3.029 2.93a.914.914 0 0 0-.178.382l-.4 3.27v.085a.68.68 0 0 0 .222.51.747.747 0 0 0 .534.212c.208 0 .379-.071.513-.213a.9.9 0 0 0 .244-.467l.312-2.802 1.069-1.02-.98 7.814-1.737 3.694c-.059.17-.089.325-.089.467 0 .311.112.574.334.786.223.212.498.304.824.276.446 0 .772-.199.98-.595l1.87-3.991c0-.029.015-.078.045-.149.03-.07.06-.134.09-.19a.363.363 0 0 0 .044-.17l.222-1.912 1.915 6.285c.208.51.58.75 1.114.722.297 0 .556-.106.779-.319.223-.212.334-.474.334-.785a.333.333 0 0 0-.022-.106.336.336 0 0 1-.023-.107l-2.672-8.705.312-2.845.757 1.147c.06.085.134.156.223.212l2.627 1.402c.179.056.297.084.357.084a.712.712 0 0 0 .534-.233.749.749 0 0 0 .223-.53c0-.256-.119-.454-.357-.595z"/></g></g></svg>