<svg width="30" height="30" viewBox="0 0 30 30" xmlns="http://www.w3.org/2000/svg" xmlns:xlink="http://www.w3.org/1999/xlink"><title>Icons/Icon_Recommendation_Running</title><defs><circle id="a" cx="15" cy="15" r="15"/><mask id="b" x="0" y="0" width="30" height="30" fill="#fff"><use xlink:href="#a"/></mask></defs><g fill="none" fill-rule="evenodd"><use stroke="#00A3AC" mask="url(#b)" stroke-width="4" fill="#00A3AC" xlink:href="#a"/><path d="M22.993 12.959h-2.53L18.08 9.41l-.025-.024c-.024-.024-.024-.048-.049-.072-.024-.024-.049-.072-.098-.096-.025-.024-.05-.024-.074-.048-.024-.024-.073-.048-.098-.072-.025-.024-.05-.024-.074-.048-.049-.024-.073-.024-.123-.048-.024 0-4.618-1.222-4.618-1.222a1.025 1.025 0 0 0-.835.144l-3.562 2.42c-.467.313-.565.912-.27 1.367.32.456.933.552 1.4.264l3.194-2.134 2.554.648c-.22.311-6.092 8.246-6.092 8.246l-4.397.36a.976.976 0 0 0-.909 1.055c.05.503.491.887 1.007.887h.099l4.814-.408a.972.972 0 0 0 .688-.36l2.457-2.9 3.488 2.325-1.867 5.01a.947.947 0 0 0 .614 1.247c.123.048.221.048.344.048.418 0 .786-.24.933-.647l2.187-5.898a.956.956 0 0 0-.295-1.078l-2.506-2.038 2.064-3.428 1.056 1.558a.972.972 0 0 0 .835.432h3.07c.566 0 1.008-.432 1.008-.983 0-.552-.442-.96-1.007-.96zm-3.169-4.171c1.08 0 1.94-.84 1.94-1.894 0-1.055-.86-1.894-1.94-1.894s-1.94.839-1.94 1.894.884 1.894 1.94 1.894z" fill="#FFF" fill-rule="nonzero"/></g></svg>