<svg width="30" height="30" viewBox="0 0 30 30" xmlns="http://www.w3.org/2000/svg" xmlns:xlink="http://www.w3.org/1999/xlink"><title>Icons/Icon_Recommendation_WalkingWithStroller</title><defs><circle id="a" cx="15" cy="15" r="15"/><mask id="b" x="0" y="0" width="30" height="30" fill="#fff"><use xlink:href="#a"/></mask></defs><g fill="none" fill-rule="evenodd"><use stroke="#00A3AC" mask="url(#b)" stroke-width="4" fill="#00A3AC" xlink:href="#a"/><g transform="translate(4 4)" fill-rule="nonzero" fill="#FFF"><circle cx="15.242" cy="2.169" r="2.169"/><path d="M19.558 17.225a5.887 5.887 0 0 0 1.11-.774l-2.842-5.607-.3-4.492c-.059-.82-.66-1.408-1.591-1.378-.17.005-.505.034-.674.048-.398.033-.717.2-.895.341-1.174.933-4.67 3.52-4.67 3.52a.968.968 0 0 0 1.166 1.546l3.124-2.357.197 2.758c-.337.805-2.036 6.187-2.036 6.187s.417.206 1.092.429l-.727 2.016a.968.968 0 0 0 1.823.646l.798-2.218c.8.112 1.695.136 2.6-.03l.918 2.279a.967.967 0 0 0 1.804-.699l-.897-2.215z"/><ellipse cx="4.835" cy="20.131" rx=".624" ry=".624"/><ellipse cx="2.997" cy="20.132" rx=".624" ry=".624"/><path d="M2.63 17.233c.083.002 1.448.118 1.531.127.557.06.728-.283.838-.464l1.538-2.545c.18-.298.55-1.041-.187-1.35-.288-.12-.746-.03-1.087.06l-2.748.703a.656.656 0 1 0 .325 1.272l1.29-.33-.755 1.254c-1.486-.13-2.511-.002-3.246 2.014a.655.655 0 0 0 .617.88c.268 0 .52-.164.617-.43.44-1.246.902-1.2 1.266-1.191z"/><ellipse cx="6.704" cy="11.383" rx="1.34" ry="1.34"/><path d="M9.451 11.402a.657.657 0 0 0-.898.24L5.25 17.345a.82.82 0 0 1-.777.407L2.6 17.601h-.004a.657.657 0 0 0-.004 1.315l2.032.148a1.772 1.772 0 0 0 1.664-.88l3.404-5.885a.658.658 0 0 0-.24-.897z"/></g></g></svg>