<svg width="30" height="30" viewBox="0 0 30 30" xmlns="http://www.w3.org/2000/svg" xmlns:xlink="http://www.w3.org/1999/xlink"><title>Icons/Icon_Recommendation_Cycling</title><defs><circle id="a" cx="15" cy="15" r="15"/><mask id="b" x="0" y="0" width="30" height="30" fill="#fff"><use xlink:href="#a"/></mask></defs><g fill="none" fill-rule="evenodd"><use stroke="#00A3AC" mask="url(#b)" stroke-width="4" fill="#00A3AC" xlink:href="#a"/><path d="M21.562 13.208l-.728-1.935v-2.51c0-.971-.808-1.763-1.8-1.763h-1.252a.659.659 0 0 0-.666.653c0 .36.298.653.666.653h1.252c.26 0 .468.208.468.458v1.944H12.6v-.564h.95a.659.659 0 0 0 .666-.653.659.659 0 0 0-.667-.653h-3.236a.659.659 0 0 0-.666.653c0 .36.298.653.666.653h.955v1.018l-1.682 2.444C6.709 12.171 3.07 14.06 3 17.56 3 20.01 5.031 22 7.53 22c2.207 0 4.045-1.55 4.451-3.597h1.663c.175 0 .345-.07.472-.19l5.783-5.667.411 1.107c-1.413.754-2.376 2.222-2.376 3.907 0 2.45 2.031 4.44 4.535 4.44 2.5 0 4.564-1.99 4.53-4.44-.037-3.037-2.858-4.88-5.437-4.352zM7.53 20.694c-1.763 0-3.199-1.407-3.199-3.134 0-2.041 2.084-3.815 4.498-2.86l-1.852 2.689a.648.648 0 0 0-.038.671c.113.213.34.347.59.347h3.08c-.377 1.32-1.61 2.287-3.08 2.287zm1.256-3.597l1.125-1.63a3.1 3.1 0 0 1 .784 1.63H8.787zm4.583 0h-1.328a4.4 4.4 0 0 0-1.37-2.736l1.62-2.352h6.27l-5.192 5.088zm9.094 3.597c-1.762 0-3.198-1.407-3.198-3.134 0-1.12.605-2.102 1.507-2.657l1.068 2.88a.67.67 0 0 0 .855.388.65.65 0 0 0 .397-.838l-1.068-2.88c1.942-.272 3.642 1.232 3.642 3.103 0 1.736-1.436 3.138-3.203 3.138z" fill="#FFF" fill-rule="nonzero"/></g></svg>