<svg width="30" height="30" viewBox="0 0 30 30" xmlns="http://www.w3.org/2000/svg" xmlns:xlink="http://www.w3.org/1999/xlink"><title>Icons/Icon_Recommendation_Outdoors</title><defs><circle id="a" cx="15" cy="15" r="15"/><mask id="b" x="0" y="0" width="30" height="30" fill="#fff"><use xlink:href="#a"/></mask></defs><g fill="none" fill-rule="evenodd"><use stroke="#00A3AC" mask="url(#b)" stroke-width="4" fill="#00A3AC" xlink:href="#a"/><g fill-rule="nonzero" fill="#FFF"><path d="M7.708 22h2.125l1.09-3.53H8.798zM20.077 18.47l1.09 3.53h2.125l-1.09-3.53zM9.833 12.118h11.334a.706.706 0 0 0 .708-.706v-.706a.706.706 0 0 0-.708-.706H9.833a.706.706 0 0 0-.708.706v.706c0 .39.317.706.708.706zM23.292 15.647H21.33l-.872-2.823h-2.125l.872 2.823h-7.41l.872-2.823h-2.125l-.872 2.823H7.708a.706.706 0 0 0-.708.706v.706c0 .39.317.706.708.706h15.584a.706.706 0 0 0 .708-.706v-.706a.706.706 0 0 0-.708-.706z"/></g></g></svg>