<svg width="30" height="30" viewBox="0 0 30 30" xmlns="http://www.w3.org/2000/svg" xmlns:xlink="http://www.w3.org/1999/xlink"><title>Icons/Icon_Recommendation_Playground</title><defs><circle id="a" cx="15" cy="15" r="15"/><mask id="b" x="0" y="0" width="30" height="30" fill="#fff"><use xlink:href="#a"/></mask></defs><g fill="none" fill-rule="evenodd"><use stroke="#00A3AC" mask="url(#b)" stroke-width="4" fill="#00A3AC" xlink:href="#a"/><path d="M24.977 22.226L20.314 5.441a.575.575 0 0 0-.685-.42.582.582 0 0 0-.685.42l-.574 2.234h-3.426l.509-1.946a.571.571 0 0 0-.42-.708.571.571 0 0 0-.707.42l-3.647 14.11c0 .043-.022.066-.022.11 0 .022-.044.508-.64 1.017-.597.509-1.835 1.128-4.42 1.128a.594.594 0 0 0-.597.597c0 .332.265.597.597.597h4.64c5.57 0 6.166-2.676 6.232-3.184l.928-3.65 1.768 6.392c.067.265.31.42.575.42.044 0 .11 0 .155-.022.309-.089.486-.42.42-.73l-.664-2.366H23.1l.751 2.698c.067.265.31.42.575.42.044 0 .11 0 .154-.022a.582.582 0 0 0 .398-.73zm-4.176-10.66h-2.21l1.06-4.112 1.15 4.113zm-5.48 7.984c0 .044-.023.089-.023.133 0 .022-.199 2.056-4.795 2.123 1.105-.774 1.281-1.725 1.326-1.99l2.806-10.947h3.425L15.32 19.55zm2.96-6.811h2.63a.645.645 0 0 0 .199-.044l.663 2.388h-3.447l-.31-1.15c0-.022-.022-.044-.022-.066l.287-1.128zm1.061 5.97l-.663-2.432h3.315c.044 0 .088 0 .11-.022l.685 2.433h-3.447v.022z" fill="#FFF" fill-rule="nonzero"/></g></svg>