<svg width="30" height="30" viewBox="0 0 30 30" xmlns="http://www.w3.org/2000/svg" xmlns:xlink="http://www.w3.org/1999/xlink"><title>Icons/Icon_Recommendation_Gardening</title><defs><circle id="a" cx="15" cy="15" r="15"/><mask id="b" x="0" y="0" width="30" height="30" fill="#fff"><use xlink:href="#a"/></mask></defs><g fill="none" fill-rule="evenodd"><use stroke="#00A3AC" mask="url(#b)" stroke-width="4" fill="#00A3AC" xlink:href="#a"/><g fill-rule="nonzero" fill="#FFF"><path d="M19.518 6.036a1.57 1.57 0 0 0-1.864 1.226c-.18.86.36 1.707 1.209 1.89a1.57 1.57 0 0 0 1.864-1.226 1.594 1.594 0 0 0-1.209-1.89zM25.67 21.279l-2.446-2.284.142-4.145a3.411 3.411 0 0 0-.057-.74 4.165 4.165 0 0 0-.158-.687l-1.028-3.168a1.655 1.655 0 0 0-1.397-1.064c-.379-.034-.87.188-1.118.44-.26.24-.513.763-.375 1.323l.55 1.983-2.922.895a.787.787 0 0 0-.543.635l-1.662 1.158.12-1.423.48-.102a.327.327 0 0 0 .04-.01.301.301 0 0 0 .188-.344.293.293 0 0 0-.348-.232L4.234 15.85a.3.3 0 0 0 .12.587l.7-.15 4.691 2.762-.225.156a1.949 1.949 0 0 0-.994-.28c-1.103 0-1.997.912-1.997 2.039 0 .105.015.205.03.306l-.705.49a.303.303 0 0 0-.077.417.291.291 0 0 0 .408.078l.558-.39c.327.671 1 1.136 1.783 1.136 1.103 0 1.998-.912 1.998-2.037 0-.529-.202-1.005-.524-1.367l.31-.217 2.725 1.605c.085.06.412.27.736.152a.73.73 0 0 0 .476-.621l.344-4.12 1.885-1.312c.146.19.37.307.609.307.074 0 .15-.011.224-.034l2.9-.887.156.564S18.3 16.523 18 16.736c-.402.286-.684.624-.701 1.237l.009 4.111c0 1.152 1.702 1.178 1.702.009l.011-3.854 2.253-1.306.002 2.491c0 .307.278.54.37.605l2.798 2.587c1.043.864 2.113-.55 1.224-1.337zm-17.143.455a.765.765 0 0 1-.757-.772c0-.426.339-.771.757-.771s.757.345.757.771a.765.765 0 0 1-.757.772zm5.134-1.268v-.006.01a.127.127 0 0 1-.09.1c-.028.01-.129-.026-.198-.077l-.015-.012-2.507-1.478 3.12-2.175-.31 3.638z"/></g></g></svg>