<svg width="30" height="30" viewBox="0 0 30 30" xmlns="http://www.w3.org/2000/svg" xmlns:xlink="http://www.w3.org/1999/xlink"><title>Icons/Icon_Recommendation_Dogwalking</title><defs><circle id="a" cx="15" cy="15" r="15"/><mask id="b" x="0" y="0" width="30" height="30" fill="#fff"><use xlink:href="#a"/></mask></defs><g fill="none" fill-rule="evenodd"><use stroke="#00A3AC" mask="url(#b)" stroke-width="4" fill="#00A3AC" xlink:href="#a"/><g fill-rule="nonzero" fill="#FFF"><path d="M24.296 15c-.842 0-3.798-3.67-2.275-4.286.432-.175.053-.825-.764-.714-.972.134-1.35.711-1.527 1.429-1.646 0-2.117 1.266-2.925 2.324l2.811 3.423c.254-.418.513-.747.877-.747.764.714 2.076 1.629 3.055.714.763-.714 1.512-2.143.748-2.143zm-3.518-.714a.708.708 0 0 1-.704-.715c0-.395.315-.714.704-.714.388 0 .703.32.703.714a.709.709 0 0 1-.703.715zM15.148 15H8.811c-.641-.4-1.171-.91-1.325-1.566-.333-1.41 1.098-2.903 1.124-2.93a.72.72 0 0 0-.001-1.009.696.696 0 0 0-.995 0c-.083.084-2.009 2.07-1.5 4.262.23.985.906 1.814 1.997 2.484v7.688c0 .591.473 1.071 1.056 1.071.582 0 1.055-.48 1.055-1.071v-3.215h6.334v3.215c0 .591.472 1.071 1.055 1.071s1.056-.48 1.056-1.071V18.57c.134-.125.25-.277.362-.436l-2.968-3.616a2.88 2.88 0 0 1-.913.481zM9.06 6.056l.811-.677 6.589 7.907-.811.676z"/></g></g></svg>